  0
SECTION
  2
HEADER
  9
$ACADVER
  1
AC1015
  9
$ACADMAINTVER
 70
     6
  9
$DWGCODEPAGE
  3
ANSI_1252
  9
$INSBASE
 10
0.0
 20
0.0
 30
0.0
  9
$EXTMIN
 10
0.0
 20
0.0
 30
0.0
  9
$EXTMAX
 10
1189.0
 20
841.0
 30
0.0
  9
$LIMMIN
 10
0.0
 20
0.0
  9
$LIMMAX
 10
1189.0
 20
841.0
  9
$ORTHOMODE
 70
     0
  9
$REGENMODE
 70
     1
  9
$FILLMODE
 70
     1
  9
$QTEXTMODE
 70
     0
  9
$MIRRTEXT
 70
     1
  9
$LTSCALE
 40
1.0
  9
$ATTMODE
 70
     1
  9
$TEXTSIZE
 40
3.5
  9
$TRACEWID
 40
1.0
  9
$TEXTSTYLE
  7
Standard
  9
$CLAYER
  8
0
  9
$CELTYPE
  6
ByLayer
  9
$CECOLOR
 62
   256
  9
$CELTSCALE
 40
1.0
  9
$DISPSILH
 70
     0
  9
$DIMSCALE
 40
1.0
  9
$DIMASZ
 40
3.302
  9
$DIMEXO
 40
1.0
  9
$DIMDLI
 40
3.75
  9
$DIMRND
 40
0.0
  9
$DIMDLE
 40
0.0
  9
$DIMEXE
 40
1.0
  9
$DIMTP
 40
0.0
  9
$DIMTM
 40
0.0
  9
$DIMTXT
 40
3.5
  9
$DIMCEN
 40
2.5
  9
$DIMTSZ
 40
0.0
  9
$DIMTOL
 70
     0
  9
$DIMLIM
 70
     0
  9
$DIMTIH
 70
     1
  9
$DIMTOH
 70
     1
  9
$DIMSE1
 70
     0
  9
$DIMSE2
 70
     0
  9
$DIMTAD
 70
     1
  9
$DIMZIN
 70
     0
  9
$DIMBLK
  1

  9
$DIMASO
 70
     1
  9
$DIMSHO
 70
     1
  9
$DIMPOST
  1

  9
$DIMAPOST
  1

  9
$DIMALT
 70
     0
  9
$DIMALTD
 70
     3
  9
$DIMALTF
 40
0.0393700787
  9
$DIMLFAC
 40
0.5
  9
$DIMTOFL
 70
     1
  9
$DIMTVP
 40
0.0
  9
$DIMTIX
 70
     0
  9
$DIMSOXD
 70
     0
  9
$DIMSAH
 70
     0
  9
$DIMBLK1
  1

  9
$DIMBLK2
  1

  9
$DIMSTYLE
  2
ISO-25
  9
$DIMCLRD
 70
     0
  9
$DIMCLRE
 70
     0
  9
$DIMCLRT
 70
     0
  9
$DIMTFAC
 40
1.0
  9
$DIMGAP
 40
1.524
  9
$DIMJUST
 70
     0
  9
$DIMSD1
 70
     0
  9
$DIMSD2
 70
     0
  9
$DIMTOLJ
 70
     0
  9
$DIMTZIN
 70
     0
  9
$DIMALTZ
 70
     0
  9
$DIMALTTZ
 70
     0
  9
$DIMUPT
 70
     0
  9
$DIMDEC
 70
     2
  9
$DIMTDEC
 70
     2
  9
$DIMALTU
 70
     2
  9
$DIMALTTD
 70
     3
  9
$DIMTXSTY
  7
Standard
  9
$DIMAUNIT
 70
     0
  9
$DIMADEC
 70
     2
  9
$DIMALTRND
 40
0.0
  9
$DIMAZIN
 70
     0
  9
$DIMDSEP
 70
    44
  9
$DIMATFIT
 70
     3
  9
$DIMFRAC
 70
     0
  9
$DIMLDRBLK
  1

  9
$DIMLUNIT
 70
     2
  9
$DIMLWD
 70
    -2
  9
$DIMLWE
 70
    -2
  9
$DIMTMOVE
 70
     0
  9
$LUNITS
 70
     2
  9
$LUPREC
 70
     2
  9
$SKETCHINC
 40
1.0
  9
$FILLETRAD
 40
10.0
  9
$AUNITS
 70
     0
  9
$AUPREC
 70
     2
  9
$MENU
  1
.
  9
$ELEVATION
 40
0.0
  9
$PELEVATION
 40
0.0
  9
$THICKNESS
 40
0.0
  9
$LIMCHECK
 70
     0
  9
$CHAMFERA
 40
0.0
  9
$CHAMFERB
 40
0.0
  9
$CHAMFERC
 40
0.0
  9
$CHAMFERD
 40
0.0
  9
$SKPOLY
 70
     0
  9
$TDCREATE
 40
2456802.614109005
  9
$TDUCREATE
 40
2456802.822442338
  9
$TDUPDATE
 40
2456802.614113623
  9
$TDUUPDATE
 40
2456802.822446956
  9
$TDINDWG
 40
0.0000000116
  9
$TDUSRTIMER
 40
0.0000000116
  9
$USRTIMER
 70
     1
  9
$ANGBASE
 50
0.0
  9
$ANGDIR
 70
     0
  9
$PDMODE
 70
     0
  9
$PDSIZE
 40
-1.0
  9
$PLINEWID
 40
0.0
  9
$SPLFRAME
 70
     0
  9
$SPLINETYPE
 70
     6
  9
$SPLINESEGS
 70
     8
  9
$HANDSEED
  5
34A
  9
$SURFTAB1
 70
     6
  9
$SURFTAB2
 70
     6
  9
$SURFTYPE
 70
     6
  9
$SURFU
 70
     6
  9
$SURFV
 70
     6
  9
$UCSBASE
  2

  9
$UCSNAME
  2

  9
$UCSORG
 10
0.0
 20
0.0
 30
0.0
  9
$UCSXDIR
 10
1.0
 20
0.0
 30
0.0
  9
$UCSYDIR
 10
0.0
 20
1.0
 30
0.0
  9
$UCSORTHOREF
  2

  9
$UCSORTHOVIEW
 70
     0
  9
$UCSORGTOP
 10
0.0
 20
0.0
 30
0.0
  9
$UCSORGBOTTOM
 10
0.0
 20
0.0
 30
0.0
  9
$UCSORGLEFT
 10
0.0
 20
0.0
 30
0.0
  9
$UCSORGRIGHT
 10
0.0
 20
0.0
 30
0.0
  9
$UCSORGFRONT
 10
0.0
 20
0.0
 30
0.0
  9
$UCSORGBACK
 10
0.0
 20
0.0
 30
0.0
  9
$PUCSBASE
  2

  9
$PUCSNAME
  2

  9
$PUCSORG
 10
0.0
 20
0.0
 30
0.0
  9
$PUCSXDIR
 10
1.0
 20
0.0
 30
0.0
  9
$PUCSYDIR
 10
0.0
 20
1.0
 30
0.0
  9
$PUCSORTHOREF
  2

  9
$PUCSORTHOVIEW
 70
     0
  9
$PUCSORGTOP
 10
0.0
 20
0.0
 30
0.0
  9
$PUCSORGBOTTOM
 10
0.0
 20
0.0
 30
0.0
  9
$PUCSORGLEFT
 10
0.0
 20
0.0
 30
0.0
  9
$PUCSORGRIGHT
 10
0.0
 20
0.0
 30
0.0
  9
$PUCSORGFRONT
 10
0.0
 20
0.0
 30
0.0
  9
$PUCSORGBACK
 10
0.0
 20
0.0
 30
0.0
  9
$USERI1
 70
     0
  9
$USERI2
 70
     0
  9
$USERI3
 70
     0
  9
$USERI4
 70
     0
  9
$USERI5
 70
     0
  9
$USERR1
 40
0.0
  9
$USERR2
 40
0.0
  9
$USERR3
 40
0.0
  9
$USERR4
 40
0.0
  9
$USERR5
 40
0.0
  9
$WORLDVIEW
 70
     1
  9
$SHADEDGE
 70
     3
  9
$SHADEDIF
 70
    70
  9
$TILEMODE
 70
     1
  9
$MAXACTVP
 70
    64
  9
$PINSBASE
 10
0.0
 20
0.0
 30
0.0
  9
$PLIMCHECK
 70
     0
  9
$PEXTMIN
 10
1.0000000000E+20
 20
1.0000000000E+20
 30
1.0000000000E+20
  9
$PEXTMAX
 10
-1.0000000000E+20
 20
-1.0000000000E+20
 30
-1.0000000000E+20
  9
$PLIMMIN
 10
0.0
 20
0.0
  9
$PLIMMAX
 10
420.0
 20
297.0
  9
$UNITMODE
 70
     0
  9
$VISRETAIN
 70
     1
  9
$PLINEGEN
 70
     0
  9
$PSLTSCALE
 70
     1
  9
$TREEDEPTH
 70
  3020
  9
$CMLSTYLE
  2
Standard
  9
$CMLJUST
 70
     0
  9
$CMLSCALE
 40
20.0
  9
$PROXYGRAPHICS
 70
     1
  9
$MEASUREMENT
 70
     1
  9
$CELWEIGHT
370
    -1
  9
$ENDCAPS
280
     0
  9
$JOINSTYLE
280
     0
  9
$LWDISPLAY
290
     1
  9
$INSUNITS
 70
     4
  9
$HYPERLINKBASE
  1

  9
$STYLESHEET
  1

  9
$XEDIT
290
     1
  9
$CEPSNTYPE
380
     0
  9
$PSTYLEMODE
290
     1
  9
$FINGERPRINTGUID
  2
{47C7695F-33DE-4924-A9B1-85295DA0AC7B}
  9
$VERSIONGUID
  2
{FAEB1C32-E019-11D5-929B-00C0DF256EC4}
  9
$EXTNAMES
290
     1
  9
$PSVPSCALE
 40
0.0
  9
$OLESTARTUP
290
     0
  0
ENDSEC
  0
SECTION
  2
CLASSES
  0
CLASS
  1
ACDBDICTIONARYWDFLT
  2
AcDbDictionaryWithDefault
  3
ObjectDBX Classes
 90
        0
280
     0
281
     0
  0
CLASS
  1
VISUALSTYLE
  2
AcDbVisualStyle
  3
ObjectDBX Classes
 90
     4095
280
     0
281
     0
  0
CLASS
  1
MATERIAL
  2
AcDbMaterial
  3
ObjectDBX Classes
 90
     1153
280
     0
281
     0
  0
CLASS
  1
SCALE
  2
AcDbScale
  3
ObjectDBX Classes
 90
     1153
280
     0
281
     0
  0
CLASS
  1
SUN
  2
AcDbSun
  3
SCENEOE
 90
     1153
280
     0
281
     0
  0
CLASS
  1
ACDBPLACEHOLDER
  2
AcDbPlaceHolder
  3
ObjectDBX Classes
 90
        0
280
     0
281
     0
  0
CLASS
  1
LAYOUT
  2
AcDbLayout
  3
ObjectDBX Classes
 90
        0
280
     0
281
     0
  0
ENDSEC
  0
SECTION
  2
TABLES
  0
TABLE
  2
VPORT
  5
8
330
0
100
AcDbSymbolTable
 70
     1
  0
VPORT
  5
29
330
8
100
AcDbSymbolTableRecord
100
AcDbViewportTableRecord
  2
*Active
 70
     0
 10
0.0
 20
0.0
 11
1.0
 21
1.0
 12
594.5
 22
420.5
 13
0.0
 23
0.0
 14
10.0
 24
10.0
 15
10.0
 25
10.0
 16
0.0
 26
0.0
 36
1.0
 17
0.0
 27
0.0
 37
0.0
 40
841.0
 41
1.4137931034
 42
50.0
 43
0.0
 44
0.0
 50
0.0
 51
0.0
 71
     0
 72
  2000
 73
     1
 74
     3
 75
     0
 76
     0
 77
     0
 78
     0
281
     0
 65
     1
110
0.0
120
0.0
130
0.0
111
1.0
121
0.0
131
0.0
112
0.0
122
1.0
132
0.0
 79
     0
146
0.0
  0
ENDTAB
  0
TABLE
  2
LTYPE
  5
5
330
0
100
AcDbSymbolTable
 70
     6
  0
LTYPE
  5
14
330
5
100
AcDbSymbolTableRecord
100
AcDbLinetypeTableRecord
  2
ByBlock
 70
     0
  3

 72
    65
 73
     0
 40
0.0
  0
LTYPE
  5
15
330
5
100
AcDbSymbolTableRecord
100
AcDbLinetypeTableRecord
  2
ByLayer
 70
     0
  3

 72
    65
 73
     0
 40
0.0
  0
LTYPE
  5
16
330
5
100
AcDbSymbolTableRecord
100
AcDbLinetypeTableRecord
  2
Continuous
 70
     0
  3
Solid line
 72
    65
 73
     0
 40
0.0
  0
LTYPE
  5
6A
330
5
100
AcDbSymbolTableRecord
100
AcDbLinetypeTableRecord
  2
HIDDEN
 70
     0
  3
Hidden __ __ __ __ __ __ __ __ __ __ __ __ __ __
 72
    65
 73
     2
 40
1.905
 49
1.27
 74
     0
 49
-0.635
 74
     0
  0
LTYPE
  5
6B
330
5
100
AcDbSymbolTableRecord
100
AcDbLinetypeTableRecord
  2
PHANTOM
 70
     0
  3
Phantom ______  __  __  ______  __  __  ______
 72
    65
 73
     6
 40
12.7
 49
6.35
 74
     0
 49
-1.27
 74
     0
 49
1.27
 74
     0
 49
-1.27
 74
     0
 49
1.27
 74
     0
 49
-1.27
 74
     0
  0
LTYPE
  5
6C
330
5
100
AcDbSymbolTableRecord
100
AcDbLinetypeTableRecord
  2
CENTER
 70
     0
  3
Center ____ _ ____ _ ____ _ ____ _ ____ _ ____
 72
    65
 73
     4
 40
10.16
 49
6.35
 74
     0
 49
-1.27
 74
     0
 49
1.27
 74
     0
 49
-1.27
 74
     0
  0
LTYPE
  5
6D
330
5
100
AcDbSymbolTableRecord
100
AcDbLinetypeTableRecord
  2
CENTERX2
 70
     0
  3
Center (2x) ________  __  ________  __  _____
 72
    65
 73
     4
 40
20.32
 49
12.7
 74
     0
 49
-2.54
 74
     0
 49
2.54
 74
     0
 49
-2.54
 74
     0
  0
LTYPE
  5
6E
330
5
100
AcDbSymbolTableRecord
100
AcDbLinetypeTableRecord
  2
DOT2
 70
     0
  3
Dot (.5x) ........................................
 72
    65
 73
     2
 40
0.635
 49
0.0
 74
     0
 49
-0.635
 74
     0
  0
ENDTAB
  0
TABLE
  2
LAYER
  5
2
330
0
100
AcDbSymbolTable
 70
     2
  0
LAYER
  5
10
330
2
100
AcDbSymbolTableRecord
100
AcDbLayerTableRecord
  2
0
 70
     0
 62
     7
  6
Continuous
370
    -3
390
F
  0
LAYER
  5
6F
330
2
100
AcDbSymbolTableRecord
100
AcDbLayerTableRecord
  2
FORMAT
 70
     0
 62
     7
  6
Continuous
370
    -3
390
F
  0
ENDTAB
  0
TABLE
  2
STYLE
  5
3
330
0
100
AcDbSymbolTable
 70
     3
  0
STYLE
  5
11
330
3
100
AcDbSymbolTableRecord
100
AcDbTextStyleTableRecord
  2
Standard
 70
     0
 40
0.0
 41
1.0
 50
0.0
 71
     0
 42
3.5
  3
txt
  4

  0
STYLE
  5
92
330
3
100
AcDbSymbolTableRecord
100
AcDbTextStyleTableRecord
  2
SLDTEXTSTYLE0
 70
     0
 40
0.0
 41
0.75
 50
0.0
 71
     0
 42
3.5
  3
TXT
  4

  0
STYLE
  5
96
330
3
100
AcDbSymbolTableRecord
100
AcDbTextStyleTableRecord
  2
SLDTEXTSTYLE1
 70
     0
 40
0.0
 41
0.6818181818
 50
0.0
 71
     0
 42
3.5
  3
TXT
  4

  0
ENDTAB
  0
TABLE
  2
VIEW
  5
6
330
0
100
AcDbSymbolTable
 70
     0
  0
ENDTAB
  0
TABLE
  2
UCS
  5
7
330
0
100
AcDbSymbolTable
 70
     0
  0
ENDTAB
  0
TABLE
  2
APPID
  5
9
330
0
100
AcDbSymbolTable
 70
     1
  0
APPID
  5
12
330
9
100
AcDbSymbolTableRecord
100
AcDbRegAppTableRecord
  2
ACAD
 70
     0
  0
ENDTAB
  0
TABLE
  2
DIMSTYLE
  5
A
330
0
100
AcDbSymbolTable
 70
     1
100
AcDbDimStyleTable
  0
DIMSTYLE
105
27
330
A
100
AcDbSymbolTableRecord
100
AcDbDimStyleTableRecord
  2
ISO-25
 70
     0
 41
2.5
 42
0.625
 43
3.75
 44
1.25
 73
     0
 74
     0
 77
     1
 78
     8
140
2.5
141
2.5
143
0.0393700787
147
0.625
171
     3
172
     1
178
     0
271
     2
272
     2
274
     3
278
    44
283
     0
284
     8
340
11
  0
ENDTAB
  0
TABLE
  2
BLOCK_RECORD
  5
1
330
0
100
AcDbSymbolTable
 70
    12
  0
BLOCK_RECORD
  5
1F
330
1
100
AcDbSymbolTableRecord
100
AcDbBlockTableRecord
  2
*Model_Space
340
22
  0
BLOCK_RECORD
  5
1B
330
1
100
AcDbSymbolTableRecord
100
AcDbBlockTableRecord
  2
*Paper_Space
340
1E
  0
BLOCK_RECORD
  5
23
330
1
100
AcDbSymbolTableRecord
100
AcDbBlockTableRecord
  2
*Paper_Space0
340
26
  0
BLOCK_RECORD
  5
A1
330
1
100
AcDbSymbolTableRecord
100
AcDbBlockTableRecord
  2
SW_NOTE_0
340
0
102
{BLKREFS
331
A7
102
}
  0
BLOCK_RECORD
  5
A9
330
1
100
AcDbSymbolTableRecord
100
AcDbBlockTableRecord
  2
SW_NOTE_1
340
0
102
{BLKREFS
331
B2
102
}
  0
BLOCK_RECORD
  5
2DE
330
1
100
AcDbSymbolTableRecord
100
AcDbBlockTableRecord
  2
SW_CENTERMARKSYMBOL_0
340
0
102
{BLKREFS
331
2E9
102
}
  0
BLOCK_RECORD
  5
2EA
330
1
100
AcDbSymbolTableRecord
100
AcDbBlockTableRecord
  2
SW_CENTERMARKSYMBOL_1
340
0
102
{BLKREFS
331
2F5
102
}
  0
BLOCK_RECORD
  5
2F6
330
1
100
AcDbSymbolTableRecord
100
AcDbBlockTableRecord
  2
SW_CENTERMARKSYMBOL_2
340
0
102
{BLKREFS
331
301
102
}
  0
BLOCK_RECORD
  5
302
330
1
100
AcDbSymbolTableRecord
100
AcDbBlockTableRecord
  2
SW_CENTERMARKSYMBOL_3
340
0
102
{BLKREFS
331
30D
102
}
  0
BLOCK_RECORD
  5
30E
330
1
100
AcDbSymbolTableRecord
100
AcDbBlockTableRecord
  2
SW_CENTERMARKSYMBOL_4
340
0
102
{BLKREFS
331
319
102
}
  0
BLOCK_RECORD
  5
31A
330
1
100
AcDbSymbolTableRecord
100
AcDbBlockTableRecord
  2
SW_CENTERMARKSYMBOL_5
340
0
102
{BLKREFS
331
325
102
}
  0
BLOCK_RECORD
  5
326
330
1
100
AcDbSymbolTableRecord
100
AcDbBlockTableRecord
  2
SW_CENTERMARKSYMBOL_6
340
0
102
{BLKREFS
331
331
102
}
  0
BLOCK_RECORD
  5
332
330
1
100
AcDbSymbolTableRecord
100
AcDbBlockTableRecord
  2
SW_CENTERMARKSYMBOL_7
340
0
102
{BLKREFS
331
33D
102
}
  0
BLOCK_RECORD
  5
33E
330
1
100
AcDbSymbolTableRecord
100
AcDbBlockTableRecord
  2
SW_CENTERMARKSYMBOL_8
340
0
102
{BLKREFS
331
349
102
}
  0
ENDTAB
  0
ENDSEC
  0
SECTION
  2
BLOCKS
  0
BLOCK
  5
20
330
1F
100
AcDbEntity
  8
0
100
AcDbBlockBegin
  2
*Model_Space
 70
     0
 10
0.0
 20
0.0
 30
0.0
  3
*Model_Space
  1
*Model_Space
  0
ENDBLK
  5
21
330
1F
100
AcDbEntity
  8
0
100
AcDbBlockEnd
  0
BLOCK
  5
1C
330
1B
100
AcDbEntity
 67
     1
  8
0
100
AcDbBlockBegin
  2
*Paper_Space
 70
     0
 10
0.0
 20
0.0
 30
0.0
  3
*Paper_Space
  1
*Paper_Space
  0
ENDBLK
  5
1D
330
1B
100
AcDbEntity
 67
     1
  8
0
100
AcDbBlockEnd
  0
BLOCK
  5
24
330
23
100
AcDbEntity
  8
0
100
AcDbBlockBegin
  2
*Paper_Space0
 70
     0
 10
0.0
 20
0.0
 30
0.0
  3
*Paper_Space0
  1
*Paper_Space0
  0
ENDBLK
  5
25
330
23
100
AcDbEntity
  8
0
100
AcDbBlockEnd
  0
BLOCK
  5
A2
330
A1
100
AcDbEntity
  8
0
100
AcDbBlockBegin
  2
SW_NOTE_0
 70
     0
 10
0.0
 20
0.0
 30
0.0
  3
SW_NOTE_0
  1
SW_NOTE_0
  0
MTEXT
  5
A4
330
A1
100
AcDbEntity
  8
0
  6
Continuous
 62
     0
370
     0
100
AcDbMText
 10
0.0
 20
1.9336016097
 30
0.0
 40
1.5
 41
0.0
 71
     1
 72
     1
  1
REBARBAR Y
  7
SLDTEXTSTYLE0
 73
     1
 44
1.0
  0
MTEXT
  5
A5
330
A1
100
AcDbEntity
  8
0
  6
Continuous
 62
     0
370
     0
100
AcDbMText
 10
0.0
 20
-0.5663983345
 30
0.0
 40
1.5
 41
0.0
 71
     1
 72
     1
  1
ROMPER ARISTAS
  7
SLDTEXTSTYLE0
 73
     1
 44
1.0
  0
MTEXT
  5
A6
330
A1
100
AcDbEntity
  8
0
  6
Continuous
 62
     0
370
     0
100
AcDbMText
 10
0.0
 20
-3.0663982786
 30
0.0
 40
1.5
 41
0.0
 71
     1
 72
     1
  1
VIVAS
  7
SLDTEXTSTYLE0
 73
     1
 44
1.0
  0
ENDBLK
  5
A3
330
A1
100
AcDbEntity
  8
0
100
AcDbBlockEnd
  0
BLOCK
  5
AA
330
A9
100
AcDbEntity
  8
0
100
AcDbBlockBegin
  2
SW_NOTE_1
 70
     0
 10
0.0
 20
0.0
 30
0.0
  3
SW_NOTE_1
  1
SW_NOTE_1
  0
MTEXT
  5
AC
330
A9
100
AcDbEntity
  8
0
  6
Continuous
 62
     0
370
     0
100
AcDbMText
 10
0.0
 20
1.9336016097
 30
0.0
 40
1.5
 41
0.0
 71
     1
 72
     1
  1
SI NO SE INDICA LO CONTRARIO:
  7
SLDTEXTSTYLE0
 73
     1
 44
1.0
  0
MTEXT
  5
AD
330
A9
100
AcDbEntity
  8
0
  6
Continuous
 62
     0
370
     0
100
AcDbMText
 10
0.0
 20
-0.5663983345
 30
0.0
 40
1.5
 41
0.0
 71
     1
 72
     1
  1
LAS COTAS SE EXPRESAN EN MM
  7
SLDTEXTSTYLE0
 73
     1
 44
1.0
  0
MTEXT
  5
AE
330
A9
100
AcDbEntity
  8
0
  6
Continuous
 62
     0
370
     0
100
AcDbMText
 10
0.0
 20
-3.0663982786
 30
0.0
 40
1.5
 41
0.0
 71
     1
 72
     1
  1
ACABADO SUPERFICIAL:
  7
SLDTEXTSTYLE0
 73
     1
 44
1.0
  0
MTEXT
  5
AF
330
A9
100
AcDbEntity
  8
0
  6
Continuous
 62
     0
370
     0
100
AcDbMText
 10
0.0
 20
-5.5663982227
 30
0.0
 40
1.5
 41
0.0
 71
     1
 72
     1
  1
TOLERANCIAS:
  7
SLDTEXTSTYLE0
 73
     1
 44
1.0
  0
MTEXT
  5
B0
330
A9
100
AcDbEntity
  8
0
  6
Continuous
 62
     0
370
     0
100
AcDbMText
 10
1.6875
 20
-8.0663981668
 30
0.0
 40
1.5
 41
0.0
 71
     1
 72
     1
  1
LINEAL:
  7
SLDTEXTSTYLE0
 73
     1
 44
1.0
  0
MTEXT
  5
B1
330
A9
100
AcDbEntity
  8
0
  6
Continuous
 62
     0
370
     0
100
AcDbMText
 10
1.6875
 20
-10.5663981109
 30
0.0
 40
1.5
 41
0.0
 71
     1
 72
     1
  1
ANGULAR:
  7
SLDTEXTSTYLE0
 73
     1
 44
1.0
  0
ENDBLK
  5
AB
330
A9
100
AcDbEntity
  8
0
100
AcDbBlockEnd
  0
BLOCK
  5
2DF
330
2DE
100
AcDbEntity
  8
0
100
AcDbBlockBegin
  2
SW_CENTERMARKSYMBOL_0
 70
     0
 10
0.0
 20
0.0
 30
0.0
  3
SW_CENTERMARKSYMBOL_0
  1
SW_CENTERMARKSYMBOL_0
  0
LINE
  5
2E1
330
2DE
100
AcDbEntity
  8
0
  6
Continuous
 62
     0
370
     0
100
AcDbLine
 10
0.0
 20
0.0
 30
0.0
 11
0.0
 21
2.5
 31
0.0
  0
LINE
  5
2E2
330
2DE
100
AcDbEntity
  8
0
  6
Continuous
 62
     0
370
     0
100
AcDbLine
 10
0.0
 20
0.0
 30
0.0
 11
-2.5
 21
0.0
 31
0.0
  0
LINE
  5
2E3
330
2DE
100
AcDbEntity
  8
0
  6
Continuous
 62
     0
370
     0
100
AcDbLine
 10
0.0
 20
0.0
 30
0.0
 11
0.0
 21
-2.5
 31
0.0
  0
LINE
  5
2E4
330
2DE
100
AcDbEntity
  8
0
  6
Continuous
 62
     0
370
     0
100
AcDbLine
 10
0.0
 20
0.0
 30
0.0
 11
2.5
 21
0.0
 31
0.0
  0
LINE
  5
2E5
330
2DE
100
AcDbEntity
  8
0
  6
Continuous
 62
     0
370
     0
100
AcDbLine
 10
0.0
 20
2.5
 30
0.0
 11
0.0
 21
4.25
 31
0.0
  0
LINE
  5
2E6
330
2DE
100
AcDbEntity
  8
0
  6
Continuous
 62
     0
370
     0
100
AcDbLine
 10
-2.5
 20
0.0
 30
0.0
 11
-4.25
 21
0.0
 31
0.0
  0
LINE
  5
2E7
330
2DE
100
AcDbEntity
  8
0
  6
Continuous
 62
     0
370
     0
100
AcDbLine
 10
0.0
 20
-2.5
 30
0.0
 11
0.0
 21
-4.25
 31
0.0
  0
LINE
  5
2E8
330
2DE
100
AcDbEntity
  8
0
  6
Continuous
 62
     0
370
     0
100
AcDbLine
 10
2.5
 20
0.0
 30
0.0
 11
4.25
 21
0.0
 31
0.0
  0
ENDBLK
  5
2E0
330
2DE
100
AcDbEntity
  8
0
100
AcDbBlockEnd
  0
BLOCK
  5
2EB
330
2EA
100
AcDbEntity
  8
0
100
AcDbBlockBegin
  2
SW_CENTERMARKSYMBOL_1
 70
     0
 10
0.0
 20
0.0
 30
0.0
  3
SW_CENTERMARKSYMBOL_1
  1
SW_CENTERMARKSYMBOL_1
  0
LINE
  5
2ED
330
2EA
100
AcDbEntity
  8
0
  6
Continuous
 62
     0
370
     0
100
AcDbLine
 10
0.0
 20
0.0
 30
0.0
 11
0.0
 21
2.5
 31
0.0
  0
LINE
  5
2EE
330
2EA
100
AcDbEntity
  8
0
  6
Continuous
 62
     0
370
     0
100
AcDbLine
 10
0.0
 20
0.0
 30
0.0
 11
-2.5
 21
0.0
 31
0.0
  0
LINE
  5
2EF
330
2EA
100
AcDbEntity
  8
0
  6
Continuous
 62
     0
370
     0
100
AcDbLine
 10
0.0
 20
0.0
 30
0.0
 11
0.0
 21
-2.5
 31
0.0
  0
LINE
  5
2F0
330
2EA
100
AcDbEntity
  8
0
  6
Continuous
 62
     0
370
     0
100
AcDbLine
 10
0.0
 20
0.0
 30
0.0
 11
2.5
 21
0.0
 31
0.0
  0
LINE
  5
2F1
330
2EA
100
AcDbEntity
  8
0
  6
Continuous
 62
     0
370
     0
100
AcDbLine
 10
0.0
 20
2.5
 30
0.0
 11
0.0
 21
4.0
 31
0.0
  0
LINE
  5
2F2
330
2EA
100
AcDbEntity
  8
0
  6
Continuous
 62
     0
370
     0
100
AcDbLine
 10
-2.5
 20
0.0
 30
0.0
 11
-4.0
 21
0.0
 31
0.0
  0
LINE
  5
2F3
330
2EA
100
AcDbEntity
  8
0
  6
Continuous
 62
     0
370
     0
100
AcDbLine
 10
0.0
 20
-2.5
 30
0.0
 11
0.0
 21
-4.0
 31
0.0
  0
LINE
  5
2F4
330
2EA
100
AcDbEntity
  8
0
  6
Continuous
 62
     0
370
     0
100
AcDbLine
 10
2.5
 20
0.0
 30
0.0
 11
4.0
 21
0.0
 31
0.0
  0
ENDBLK
  5
2EC
330
2EA
100
AcDbEntity
  8
0
100
AcDbBlockEnd
  0
BLOCK
  5
2F7
330
2F6
100
AcDbEntity
  8
0
100
AcDbBlockBegin
  2
SW_CENTERMARKSYMBOL_2
 70
     0
 10
0.0
 20
0.0
 30
0.0
  3
SW_CENTERMARKSYMBOL_2
  1
SW_CENTERMARKSYMBOL_2
  0
LINE
  5
2F9
330
2F6
100
AcDbEntity
  8
0
  6
Continuous
 62
     0
370
     0
100
AcDbLine
 10
0.0
 20
0.0
 30
0.0
 11
0.0
 21
2.5
 31
0.0
  0
LINE
  5
2FA
330
2F6
100
AcDbEntity
  8
0
  6
Continuous
 62
     0
370
     0
100
AcDbLine
 10
0.0
 20
0.0
 30
0.0
 11
-2.5
 21
0.0
 31
0.0
  0
LINE
  5
2FB
330
2F6
100
AcDbEntity
  8
0
  6
Continuous
 62
     0
370
     0
100
AcDbLine
 10
0.0
 20
0.0
 30
0.0
 11
0.0
 21
-2.5
 31
0.0
  0
LINE
  5
2FC
330
2F6
100
AcDbEntity
  8
0
  6
Continuous
 62
     0
370
     0
100
AcDbLine
 10
0.0
 20
0.0
 30
0.0
 11
2.5
 21
0.0
 31
0.0
  0
LINE
  5
2FD
330
2F6
100
AcDbEntity
  8
0
  6
Continuous
 62
     0
370
     0
100
AcDbLine
 10
0.0
 20
2.5
 30
0.0
 11
0.0
 21
4.25
 31
0.0
  0
LINE
  5
2FE
330
2F6
100
AcDbEntity
  8
0
  6
Continuous
 62
     0
370
     0
100
AcDbLine
 10
-2.5
 20
0.0
 30
0.0
 11
-4.25
 21
0.0
 31
0.0
  0
LINE
  5
2FF
330
2F6
100
AcDbEntity
  8
0
  6
Continuous
 62
     0
370
     0
100
AcDbLine
 10
0.0
 20
-2.5
 30
0.0
 11
0.0
 21
-4.25
 31
0.0
  0
LINE
  5
300
330
2F6
100
AcDbEntity
  8
0
  6
Continuous
 62
     0
370
     0
100
AcDbLine
 10
2.5
 20
0.0
 30
0.0
 11
4.25
 21
0.0
 31
0.0
  0
ENDBLK
  5
2F8
330
2F6
100
AcDbEntity
  8
0
100
AcDbBlockEnd
  0
BLOCK
  5
303
330
302
100
AcDbEntity
  8
0
100
AcDbBlockBegin
  2
SW_CENTERMARKSYMBOL_3
 70
     0
 10
0.0
 20
0.0
 30
0.0
  3
SW_CENTERMARKSYMBOL_3
  1
SW_CENTERMARKSYMBOL_3
  0
LINE
  5
305
330
302
100
AcDbEntity
  8
0
  6
Continuous
 62
     0
370
     0
100
AcDbLine
 10
0.0
 20
0.0
 30
0.0
 11
0.0
 21
2.5
 31
0.0
  0
LINE
  5
306
330
302
100
AcDbEntity
  8
0
  6
Continuous
 62
     0
370
     0
100
AcDbLine
 10
0.0
 20
0.0
 30
0.0
 11
-2.5
 21
0.0
 31
0.0
  0
LINE
  5
307
330
302
100
AcDbEntity
  8
0
  6
Continuous
 62
     0
370
     0
100
AcDbLine
 10
0.0
 20
0.0
 30
0.0
 11
0.0
 21
-2.5
 31
0.0
  0
LINE
  5
308
330
302
100
AcDbEntity
  8
0
  6
Continuous
 62
     0
370
     0
100
AcDbLine
 10
0.0
 20
0.0
 30
0.0
 11
2.5
 21
0.0
 31
0.0
  0
LINE
  5
309
330
302
100
AcDbEntity
  8
0
  6
Continuous
 62
     0
370
     0
100
AcDbLine
 10
0.0
 20
2.5
 30
0.0
 11
0.0
 21
4.25
 31
0.0
  0
LINE
  5
30A
330
302
100
AcDbEntity
  8
0
  6
Continuous
 62
     0
370
     0
100
AcDbLine
 10
-2.5
 20
0.0
 30
0.0
 11
-4.25
 21
0.0
 31
0.0
  0
LINE
  5
30B
330
302
100
AcDbEntity
  8
0
  6
Continuous
 62
     0
370
     0
100
AcDbLine
 10
0.0
 20
-2.5
 30
0.0
 11
0.0
 21
-4.25
 31
0.0
  0
LINE
  5
30C
330
302
100
AcDbEntity
  8
0
  6
Continuous
 62
     0
370
     0
100
AcDbLine
 10
2.5
 20
0.0
 30
0.0
 11
4.25
 21
0.0
 31
0.0
  0
ENDBLK
  5
304
330
302
100
AcDbEntity
  8
0
100
AcDbBlockEnd
  0
BLOCK
  5
30F
330
30E
100
AcDbEntity
  8
0
100
AcDbBlockBegin
  2
SW_CENTERMARKSYMBOL_4
 70
     0
 10
0.0
 20
0.0
 30
0.0
  3
SW_CENTERMARKSYMBOL_4
  1
SW_CENTERMARKSYMBOL_4
  0
LINE
  5
311
330
30E
100
AcDbEntity
  8
0
  6
Continuous
 62
     0
370
     0
100
AcDbLine
 10
0.0
 20
0.0
 30
0.0
 11
0.0
 21
2.5
 31
0.0
  0
LINE
  5
312
330
30E
100
AcDbEntity
  8
0
  6
Continuous
 62
     0
370
     0
100
AcDbLine
 10
0.0
 20
0.0
 30
0.0
 11
-2.5
 21
0.0
 31
0.0
  0
LINE
  5
313
330
30E
100
AcDbEntity
  8
0
  6
Continuous
 62
     0
370
     0
100
AcDbLine
 10
0.0
 20
0.0
 30
0.0
 11
0.0
 21
-2.5
 31
0.0
  0
LINE
  5
314
330
30E
100
AcDbEntity
  8
0
  6
Continuous
 62
     0
370
     0
100
AcDbLine
 10
0.0
 20
0.0
 30
0.0
 11
2.5
 21
0.0
 31
0.0
  0
LINE
  5
315
330
30E
100
AcDbEntity
  8
0
  6
Continuous
 62
     0
370
     0
100
AcDbLine
 10
0.0
 20
2.5
 30
0.0
 11
0.0
 21
4.25
 31
0.0
  0
LINE
  5
316
330
30E
100
AcDbEntity
  8
0
  6
Continuous
 62
     0
370
     0
100
AcDbLine
 10
-2.5
 20
0.0
 30
0.0
 11
-4.25
 21
0.0
 31
0.0
  0
LINE
  5
317
330
30E
100
AcDbEntity
  8
0
  6
Continuous
 62
     0
370
     0
100
AcDbLine
 10
0.0
 20
-2.5
 30
0.0
 11
0.0
 21
-4.25
 31
0.0
  0
LINE
  5
318
330
30E
100
AcDbEntity
  8
0
  6
Continuous
 62
     0
370
     0
100
AcDbLine
 10
2.5
 20
0.0
 30
0.0
 11
4.25
 21
0.0
 31
0.0
  0
ENDBLK
  5
310
330
30E
100
AcDbEntity
  8
0
100
AcDbBlockEnd
  0
BLOCK
  5
31B
330
31A
100
AcDbEntity
  8
0
100
AcDbBlockBegin
  2
SW_CENTERMARKSYMBOL_5
 70
     0
 10
0.0
 20
0.0
 30
0.0
  3
SW_CENTERMARKSYMBOL_5
  1
SW_CENTERMARKSYMBOL_5
  0
LINE
  5
31D
330
31A
100
AcDbEntity
  8
0
  6
Continuous
 62
     0
370
     0
100
AcDbLine
 10
0.0
 20
0.0
 30
0.0
 11
0.0
 21
2.5
 31
0.0
  0
LINE
  5
31E
330
31A
100
AcDbEntity
  8
0
  6
Continuous
 62
     0
370
     0
100
AcDbLine
 10
0.0
 20
0.0
 30
0.0
 11
-2.5
 21
0.0
 31
0.0
  0
LINE
  5
31F
330
31A
100
AcDbEntity
  8
0
  6
Continuous
 62
     0
370
     0
100
AcDbLine
 10
0.0
 20
0.0
 30
0.0
 11
0.0
 21
-2.5
 31
0.0
  0
LINE
  5
320
330
31A
100
AcDbEntity
  8
0
  6
Continuous
 62
     0
370
     0
100
AcDbLine
 10
0.0
 20
0.0
 30
0.0
 11
2.5
 21
0.0
 31
0.0
  0
LINE
  5
321
330
31A
100
AcDbEntity
  8
0
  6
Continuous
 62
     0
370
     0
100
AcDbLine
 10
0.0
 20
2.5
 30
0.0
 11
0.0
 21
4.25
 31
0.0
  0
LINE
  5
322
330
31A
100
AcDbEntity
  8
0
  6
Continuous
 62
     0
370
     0
100
AcDbLine
 10
-2.5
 20
0.0
 30
0.0
 11
-4.25
 21
0.0
 31
0.0
  0
LINE
  5
323
330
31A
100
AcDbEntity
  8
0
  6
Continuous
 62
     0
370
     0
100
AcDbLine
 10
0.0
 20
-2.5
 30
0.0
 11
0.0
 21
-4.25
 31
0.0
  0
LINE
  5
324
330
31A
100
AcDbEntity
  8
0
  6
Continuous
 62
     0
370
     0
100
AcDbLine
 10
2.5
 20
0.0
 30
0.0
 11
4.25
 21
0.0
 31
0.0
  0
ENDBLK
  5
31C
330
31A
100
AcDbEntity
  8
0
100
AcDbBlockEnd
  0
BLOCK
  5
327
330
326
100
AcDbEntity
  8
0
100
AcDbBlockBegin
  2
SW_CENTERMARKSYMBOL_6
 70
     0
 10
0.0
 20
0.0
 30
0.0
  3
SW_CENTERMARKSYMBOL_6
  1
SW_CENTERMARKSYMBOL_6
  0
LINE
  5
329
330
326
100
AcDbEntity
  8
0
  6
Continuous
 62
     0
370
     0
100
AcDbLine
 10
0.0
 20
0.0
 30
0.0
 11
0.0
 21
2.5
 31
0.0
  0
LINE
  5
32A
330
326
100
AcDbEntity
  8
0
  6
Continuous
 62
     0
370
     0
100
AcDbLine
 10
0.0
 20
0.0
 30
0.0
 11
-2.5
 21
0.0
 31
0.0
  0
LINE
  5
32B
330
326
100
AcDbEntity
  8
0
  6
Continuous
 62
     0
370
     0
100
AcDbLine
 10
0.0
 20
0.0
 30
0.0
 11
0.0
 21
-2.5
 31
0.0
  0
LINE
  5
32C
330
326
100
AcDbEntity
  8
0
  6
Continuous
 62
     0
370
     0
100
AcDbLine
 10
0.0
 20
0.0
 30
0.0
 11
2.5
 21
0.0
 31
0.0
  0
LINE
  5
32D
330
326
100
AcDbEntity
  8
0
  6
Continuous
 62
     0
370
     0
100
AcDbLine
 10
0.0
 20
2.5
 30
0.0
 11
0.0
 21
4.0
 31
0.0
  0
LINE
  5
32E
330
326
100
AcDbEntity
  8
0
  6
Continuous
 62
     0
370
     0
100
AcDbLine
 10
-2.5
 20
0.0
 30
0.0
 11
-4.0
 21
0.0
 31
0.0
  0
LINE
  5
32F
330
326
100
AcDbEntity
  8
0
  6
Continuous
 62
     0
370
     0
100
AcDbLine
 10
0.0
 20
-2.5
 30
0.0
 11
0.0
 21
-4.0
 31
0.0
  0
LINE
  5
330
330
326
100
AcDbEntity
  8
0
  6
Continuous
 62
     0
370
     0
100
AcDbLine
 10
2.5
 20
0.0
 30
0.0
 11
4.0
 21
0.0
 31
0.0
  0
ENDBLK
  5
328
330
326
100
AcDbEntity
  8
0
100
AcDbBlockEnd
  0
BLOCK
  5
333
330
332
100
AcDbEntity
  8
0
100
AcDbBlockBegin
  2
SW_CENTERMARKSYMBOL_7
 70
     0
 10
0.0
 20
0.0
 30
0.0
  3
SW_CENTERMARKSYMBOL_7
  1
SW_CENTERMARKSYMBOL_7
  0
LINE
  5
335
330
332
100
AcDbEntity
  8
0
  6
Continuous
 62
     0
370
     0
100
AcDbLine
 10
0.0
 20
0.0
 30
0.0
 11
0.0
 21
2.5
 31
0.0
  0
LINE
  5
336
330
332
100
AcDbEntity
  8
0
  6
Continuous
 62
     0
370
     0
100
AcDbLine
 10
0.0
 20
0.0
 30
0.0
 11
-2.5
 21
0.0
 31
0.0
  0
LINE
  5
337
330
332
100
AcDbEntity
  8
0
  6
Continuous
 62
     0
370
     0
100
AcDbLine
 10
0.0
 20
0.0
 30
0.0
 11
0.0
 21
-2.5
 31
0.0
  0
LINE
  5
338
330
332
100
AcDbEntity
  8
0
  6
Continuous
 62
     0
370
     0
100
AcDbLine
 10
0.0
 20
0.0
 30
0.0
 11
2.5
 21
0.0
 31
0.0
  0
LINE
  5
339
330
332
100
AcDbEntity
  8
0
  6
Continuous
 62
     0
370
     0
100
AcDbLine
 10
0.0
 20
2.5
 30
0.0
 11
0.0
 21
4.0
 31
0.0
  0
LINE
  5
33A
330
332
100
AcDbEntity
  8
0
  6
Continuous
 62
     0
370
     0
100
AcDbLine
 10
-2.5
 20
0.0
 30
0.0
 11
-4.0
 21
0.0
 31
0.0
  0
LINE
  5
33B
330
332
100
AcDbEntity
  8
0
  6
Continuous
 62
     0
370
     0
100
AcDbLine
 10
0.0
 20
-2.5
 30
0.0
 11
0.0
 21
-4.0
 31
0.0
  0
LINE
  5
33C
330
332
100
AcDbEntity
  8
0
  6
Continuous
 62
     0
370
     0
100
AcDbLine
 10
2.5
 20
0.0
 30
0.0
 11
4.0
 21
0.0
 31
0.0
  0
ENDBLK
  5
334
330
332
100
AcDbEntity
  8
0
100
AcDbBlockEnd
  0
BLOCK
  5
33F
330
33E
100
AcDbEntity
  8
0
100
AcDbBlockBegin
  2
SW_CENTERMARKSYMBOL_8
 70
     0
 10
0.0
 20
0.0
 30
0.0
  3
SW_CENTERMARKSYMBOL_8
  1
SW_CENTERMARKSYMBOL_8
  0
LINE
  5
341
330
33E
100
AcDbEntity
  8
0
  6
Continuous
 62
     0
370
     0
100
AcDbLine
 10
0.0
 20
0.0
 30
0.0
 11
0.0
 21
2.5
 31
0.0
  0
LINE
  5
342
330
33E
100
AcDbEntity
  8
0
  6
Continuous
 62
     0
370
     0
100
AcDbLine
 10
0.0
 20
0.0
 30
0.0
 11
-2.5
 21
0.0
 31
0.0
  0
LINE
  5
343
330
33E
100
AcDbEntity
  8
0
  6
Continuous
 62
     0
370
     0
100
AcDbLine
 10
0.0
 20
0.0
 30
0.0
 11
0.0
 21
-2.5
 31
0.0
  0
LINE
  5
344
330
33E
100
AcDbEntity
  8
0
  6
Continuous
 62
     0
370
     0
100
AcDbLine
 10
0.0
 20
0.0
 30
0.0
 11
2.5
 21
0.0
 31
0.0
  0
LINE
  5
345
330
33E
100
AcDbEntity
  8
0
  6
Continuous
 62
     0
370
     0
100
AcDbLine
 10
0.0
 20
2.5
 30
0.0
 11
0.0
 21
4.0
 31
0.0
  0
LINE
  5
346
330
33E
100
AcDbEntity
  8
0
  6
Continuous
 62
     0
370
     0
100
AcDbLine
 10
-2.5
 20
0.0
 30
0.0
 11
-4.0
 21
0.0
 31
0.0
  0
LINE
  5
347
330
33E
100
AcDbEntity
  8
0
  6
Continuous
 62
     0
370
     0
100
AcDbLine
 10
0.0
 20
-2.5
 30
0.0
 11
0.0
 21
-4.0
 31
0.0
  0
LINE
  5
348
330
33E
100
AcDbEntity
  8
0
  6
Continuous
 62
     0
370
     0
100
AcDbLine
 10
2.5
 20
0.0
 30
0.0
 11
4.0
 21
0.0
 31
0.0
  0
ENDBLK
  5
340
330
33E
100
AcDbEntity
  8
0
100
AcDbBlockEnd
  0
ENDSEC
  0
SECTION
  2
ENTITIES
  0
LINE
  5
70
330
1F
100
AcDbEntity
  8
0
  6
Continuous
 62
     7
370
    40
100
AcDbLine
 10
25.0788435654
 20
10.2147801566
 30
0.0
 11
25.0788435654
 21
831.2147801566
 31
0.0
  0
LINE
  5
71
330
1F
100
AcDbEntity
  8
0
  6
Continuous
 62
     7
370
    40
100
AcDbLine
 10
0.0788435654
 20
0.2147801566
 30
0.0
 11
1189.0788435654
 21
0.2147801566
 31
0.0
  0
LINE
  5
72
330
1F
100
AcDbEntity
  8
0
  6
Continuous
 62
     7
370
    40
100
AcDbLine
 10
0.0788435654
 20
0.2147801566
 30
0.0
 11
0.0788435654
 21
841.2147801566
 31
0.0
  0
LINE
  5
73
330
1F
100
AcDbEntity
  8
0
  6
Continuous
 62
     7
370
    40
100
AcDbLine
 10
0.0788435654
 20
841.2147801566
 30
0.0
 11
1189.0788435654
 21
841.2147801566
 31
0.0
  0
LINE
  5
74
330
1F
100
AcDbEntity
  8
0
  6
Continuous
 62
     7
370
    40
100
AcDbLine
 10
1189.0788435654
 20
0.2147801566
 30
0.0
 11
1189.0788435654
 21
841.2147801566
 31
0.0
  0
LINE
  5
75
330
1F
100
AcDbEntity
  8
0
  6
Continuous
 62
     7
370
    40
100
AcDbLine
 10
25.0788435654
 20
831.2147801566
 30
0.0
 11
1179.0788435654
 21
831.2147801566
 31
0.0
  0
LINE
  5
76
330
1F
100
AcDbEntity
  8
0
  6
Continuous
 62
     7
370
    40
100
AcDbLine
 10
1179.0788435654
 20
10.2147801566
 30
0.0
 11
1179.0788435654
 21
831.2147801566
 31
0.0
  0
LINE
  5
77
330
1F
100
AcDbEntity
  8
0
  6
Continuous
 62
     7
370
    40
100
AcDbLine
 10
25.0788435654
 20
10.2147801566
 30
0.0
 11
1179.0788435654
 21
10.2147801566
 31
0.0
  0
LINE
  5
78
330
1F
100
AcDbEntity
  8
0
  6
Continuous
 62
     7
370
    40
100
AcDbLine
 10
1179.0788435654
 20
65.4647801566
 30
0.0
 11
1179.0788435654
 21
10.2147801566
 31
0.0
  0
LINE
  5
79
330
1F
100
AcDbEntity
  8
0
  6
Continuous
 62
     7
370
    40
100
AcDbLine
 10
991.8788435654
 20
14.4647801566
 30
0.0
 11
1179.0788435654
 21
14.4647801566
 31
0.0
  0
LINE
  5
7A
330
1F
100
AcDbEntity
  8
0
  6
Continuous
 62
     7
370
    40
100
AcDbLine
 10
1179.0788435654
 20
48.4647801566
 30
0.0
 11
991.8788435654
 21
48.4647801566
 31
0.0
  0
LINE
  5
7B
330
1F
100
AcDbEntity
  8
0
  6
Continuous
 62
     7
370
    40
100
AcDbLine
 10
991.8788435654
 20
65.4647801566
 30
0.0
 11
1179.0788435654
 21
65.4647801566
 31
0.0
  0
LINE
  5
7C
330
1F
100
AcDbEntity
  8
0
  6
Continuous
 62
     7
370
    40
100
AcDbLine
 10
1018.8697959991
 20
48.4647801566
 30
0.0
 11
1018.8697959991
 21
10.2147801566
 31
0.0
  0
LINE
  5
7D
330
1F
100
AcDbEntity
  8
0
  6
Continuous
 62
     7
370
    40
100
AcDbLine
 10
1090.6788435654
 20
31.4647801566
 30
0.0
 11
991.8788435654
 21
31.4647801566
 31
0.0
  0
LINE
  5
7E
330
1F
100
AcDbEntity
  8
0
  6
Continuous
 62
     7
370
    40
100
AcDbLine
 10
1090.6788435654
 20
35.7147801566
 30
0.0
 11
991.8788435654
 21
35.7147801566
 31
0.0
  0
LINE
  5
7F
330
1F
100
AcDbEntity
  8
0
  6
Continuous
 62
     7
370
    40
100
AcDbLine
 10
1090.6788435654
 20
39.9647801566
 30
0.0
 11
991.8788435654
 21
39.9647801566
 31
0.0
  0
LINE
  5
80
330
1F
100
AcDbEntity
  8
0
  6
Continuous
 62
     7
370
    40
100
AcDbLine
 10
1090.6788435654
 20
44.2147801566
 30
0.0
 11
991.8788435654
 21
44.2147801566
 31
0.0
  0
LINE
  5
81
330
1F
100
AcDbEntity
  8
0
  6
Continuous
 62
     7
370
    40
100
AcDbLine
 10
1046.4788435654
 20
10.2147801566
 30
0.0
 11
1046.4788435654
 21
48.4647801566
 31
0.0
  0
LINE
  5
82
330
1F
100
AcDbEntity
  8
0
  6
Continuous
 62
     7
370
    40
100
AcDbLine
 10
991.8788435654
 20
65.4647801566
 30
0.0
 11
991.8788435654
 21
10.2147801566
 31
0.0
  0
LINE
  5
83
330
1F
100
AcDbEntity
  8
0
  6
Continuous
 62
     7
370
    40
100
AcDbLine
 10
999.6788435654
 20
48.4647801566
 30
0.0
 11
999.6788435654
 21
10.2147801566
 31
0.0
  0
LINE
  5
84
330
1F
100
AcDbEntity
  8
0
  6
Continuous
 62
     7
370
    40
100
AcDbLine
 10
1025.6788435654
 20
48.4647801566
 30
0.0
 11
1025.6788435654
 21
65.4647801566
 31
0.0
  0
LINE
  5
85
330
1F
100
AcDbEntity
  8
0
  6
Continuous
 62
     7
370
    40
100
AcDbLine
 10
1036.2777697289
 20
48.4647801566
 30
0.0
 11
1036.2777697289
 21
10.2147801566
 31
0.0
  0
LINE
  5
86
330
1F
100
AcDbEntity
  8
0
  6
Continuous
 62
     7
370
    40
100
AcDbLine
 10
1056.8788435654
 20
31.4647801566
 30
0.0
 11
1056.8788435654
 21
48.4647801566
 31
0.0
  0
LINE
  5
87
330
1F
100
AcDbEntity
  8
0
  6
Continuous
 62
     7
370
    40
100
AcDbLine
 10
1046.4788435654
 20
18.7147801566
 30
0.0
 11
991.8788435654
 21
18.7147801566
 31
0.0
  0
LINE
  5
88
330
1F
100
AcDbEntity
  8
0
  6
Continuous
 62
     7
370
    40
100
AcDbLine
 10
1072.4788435654
 20
65.4647801566
 30
0.0
 11
1072.4788435654
 21
27.2147801566
 31
0.0
  0
LINE
  5
89
330
1F
100
AcDbEntity
  8
0
  6
Continuous
 62
     7
370
    40
100
AcDbLine
 10
1046.4788435654
 20
22.9647081566
 30
0.0
 11
991.8788435654
 21
22.9647081566
 31
0.0
  0
LINE
  5
8A
330
1F
100
AcDbEntity
  8
0
  6
Continuous
 62
     7
370
    40
100
AcDbLine
 10
1046.4788435654
 20
27.2147801566
 30
0.0
 11
991.8788435654
 21
27.2147801566
 31
0.0
  0
LINE
  5
8B
330
1F
100
AcDbEntity
  8
0
  6
Continuous
 62
     7
370
    40
100
AcDbLine
 10
1046.4788435654
 20
27.2147801566
 30
0.0
 11
1179.0788435654
 21
27.2147801566
 31
0.0
  0
LINE
  5
8C
330
1F
100
AcDbEntity
  8
0
  6
Continuous
 62
     7
370
    40
100
AcDbLine
 10
1090.6788435654
 20
65.4647801566
 30
0.0
 11
1090.6788435654
 21
10.2147801566
 31
0.0
  0
LINE
  5
8D
330
1F
100
AcDbEntity
  8
0
  6
Continuous
 62
     7
370
    40
100
AcDbLine
 10
1134.8788435654
 20
10.2147801566
 30
0.0
 11
1134.8788435654
 21
14.4647801566
 31
0.0
  0
LINE
  5
8E
330
1F
100
AcDbEntity
  8
0
  6
Continuous
 62
     7
370
    40
100
AcDbLine
 10
1142.6788435654
 20
59.0897801566
 30
0.0
 11
1142.6788435654
 21
65.4647801566
 31
0.0
  0
LINE
  5
8F
330
1F
100
AcDbEntity
  8
0
  6
Continuous
 62
     7
370
    40
100
AcDbLine
 10
1166.0788435654
 20
14.4647801566
 30
0.0
 11
1166.0788435654
 21
27.2147801566
 31
0.0
  0
LINE
  5
90
330
1F
100
AcDbEntity
  8
0
  6
Continuous
 62
     7
370
    40
100
AcDbLine
 10
1179.0788435654
 20
59.0897801566
 30
0.0
 11
1090.6788435654
 21
59.0897801566
 31
0.0
  0
LINE
  5
91
330
1F
100
AcDbEntity
  8
0
  6
Continuous
 62
     7
370
    40
100
AcDbLine
 10
1179.0788435654
 20
18.7147801566
 30
0.0
 11
1166.0788435654
 21
18.7147801566
 31
0.0
  0
MTEXT
  5
93
330
1F
100
AcDbEntity
  8
0
  6
Continuous
 62
     7
370
     0
100
AcDbMText
 10
1131.9881623822
 20
24.8465185664
 30
0.0
 40
6.35
 41
0.0
 71
     2
 72
     1
  1
BT_barra
  7
SLDTEXTSTYLE0
 73
     1
 44
1.0
  0
MTEXT
  5
94
330
1F
100
AcDbEntity
  8
0
  6
Continuous
 62
     7
370
     0
100
AcDbMText
 10
1047.4966546935
 20
13.1640920602
 30
0.0
 40
1.4986
 41
0.0
 71
     1
 72
     1
  1
PESO:
  7
SLDTEXTSTYLE0
 73
     1
 44
1.0
  0
MTEXT
  5
95
330
1F
100
AcDbEntity
  8
0
  6
Continuous
 62
     7
370
     0
100
AcDbMText
 10
1169.9998284117
 20
24.5152246678
 30
0.0
 40
2.9104166667
 41
0.0
 71
     1
 72
     1
  1
A0
  7
SLDTEXTSTYLE0
 73
     1
 44
1.0
  0
MTEXT
  5
97
330
1F
100
AcDbEntity
  8
0
  6
Continuous
 62
     7
370
     0
100
AcDbMText
 10
1136.3571379932
 20
13.1148674312
 30
0.0
 40
1.5
 41
0.0
 71
     1
 72
     1
  1
HOJA 1 DE 1
  7
SLDTEXTSTYLE1
 73
     1
 44
1.0
  0
MTEXT
  5
98
330
1F
100
AcDbEntity
  8
0
  6
Continuous
 62
     7
370
     0
100
AcDbMText
 10
1091.9528096828
 20
13.1148674312
 30
0.0
 40
1.5
 41
0.0
 71
     1
 72
     1
  1
ESCALA:2:1
  7
SLDTEXTSTYLE0
 73
     1
 44
1.0
  0
MTEXT
  5
99
330
1F
100
AcDbEntity
  8
0
  6
Continuous
 62
     7
370
     0
100
AcDbMText
 10
1091.9528096828
 20
25.0834179837
 30
0.0
 40
1.5
 41
0.0
 71
     1
 72
     1
  1
N.º DE DIBUJO
  7
SLDTEXTSTYLE0
 73
     1
 44
1.0
  0
MTEXT
  5
9A
330
1F
100
AcDbEntity
  8
0
  6
Continuous
 62
     7
370
     0
100
AcDbMText
 10
1091.835030502
 20
46.4931144426
 30
0.0
 40
1.5
 41
0.0
 71
     1
 72
     1
  1
TÍTULO:
  7
SLDTEXTSTYLE0
 73
     1
 44
1.0
  0
MTEXT
  5
9B
330
1F
100
AcDbEntity
  8
0
  6
Continuous
 62
     7
370
     0
100
AcDbMText
 10
1145.2064252647
 20
62.5496888371
 30
0.0
 40
1.5
 41
0.0
 71
     1
 72
     1
  1
REVISIÓN
  7
SLDTEXTSTYLE0
 73
     1
 44
1.0
  0
MTEXT
  5
9C
330
1F
100
AcDbEntity
  8
0
  6
Continuous
 62
     7
370
     0
100
AcDbMText
 10
1104.4934840882
 20
62.7477737317
 30
0.0
 40
1.5
 41
0.0
 71
     1
 72
     1
  1
NO CAMBIE LA ESCALA
  7
SLDTEXTSTYLE0
 73
     1
 44
1.0
  0
MTEXT
  5
9D
330
1F
100
AcDbEntity
  8
0
  6
Continuous
 62
     7
370
     0
100
AcDbMText
 10
1047.5247058741
 20
26.2008364459
 30
0.0
 40
1.5
 41
0.0
 71
     1
 72
     1
  1
MATERIAL:
  7
SLDTEXTSTYLE0
 73
     1
 44
1.0
  0
MTEXT
  5
9E
330
1F
100
AcDbEntity
  8
0
  6
Continuous
 62
     7
370
     0
100
AcDbMText
 10
1038.4017111441
 20
46.7909593779
 30
0.0
 40
1.5
 41
0.0
 71
     1
 72
     1
  1
FECHA
  7
SLDTEXTSTYLE0
 73
     1
 44
1.0
  0
MTEXT
  5
9F
330
1F
100
AcDbEntity
  8
0
  6
Continuous
 62
     7
370
     0
100
AcDbMText
 10
1024.4030349216
 20
46.7765365362
 30
0.0
 40
1.5
 41
0.0
 71
     1
 72
     1
  1
FIRMA
  7
SLDTEXTSTYLE0
 73
     1
 44
1.0
  0
MTEXT
  5
A0
330
1F
100
AcDbEntity
  8
0
  6
Continuous
 62
     7
370
     0
100
AcDbMText
 10
1004.4023133769
 20
46.7162627901
 30
0.0
 40
1.5
 41
0.0
 71
     1
 72
     1
  1
NOMBRE
  7
SLDTEXTSTYLE0
 73
     1
 44
1.0
  0
INSERT
  5
A7
330
1F
100
AcDbEntity
  8
0
  6
Continuous
 62
     7
370
     0
100
AcDbBlockReference
  2
SW_NOTE_0
 10
1073.1880592516
 20
62.2842697997
 30
0.0
  0
MTEXT
  5
A8
330
1F
100
AcDbEntity
  8
0
  6
Continuous
 62
     7
370
     0
100
AcDbMText
 10
1026.2501357322
 20
64.1340521518
 30
0.0
 40
1.5
 41
0.0
 71
     1
 72
     1
  1
ACABADO:
  7
SLDTEXTSTYLE0
 73
     1
 44
1.0
  0
INSERT
  5
B2
330
1F
100
AcDbEntity
  8
0
  6
Continuous
 62
     7
370
     0
100
AcDbBlockReference
  2
SW_NOTE_1
 10
992.472512311
 20
62.2021500309
 30
0.0
  0
MTEXT
  5
B3
330
1F
100
AcDbEntity
  8
0
  6
Continuous
 62
     7
370
     0
100
AcDbMText
 10
992.5478864275
 20
25.5644293639
 30
0.0
 40
1.5
 41
0.0
 71
     1
 72
     1
  1
CAL.
  7
SLDTEXTSTYLE0
 73
     1
 44
1.0
  0
MTEXT
  5
B4
330
1F
100
AcDbEntity
  8
0
  6
Continuous
 62
     7
370
     0
100
AcDbMText
 10
992.3340300644
 20
29.9484848072
 30
0.0
 40
1.5
 41
0.0
 71
     1
 72
     1
  1
FABR.
  7
SLDTEXTSTYLE0
 73
     1
 44
1.0
  0
MTEXT
  5
B5
330
1F
100
AcDbEntity
  8
0
  6
Continuous
 62
     7
370
     0
100
AcDbMText
 10
992.2805659737
 20
34.2790761598
 30
0.0
 40
1.5
 41
0.0
 71
     1
 72
     1
  1
APROB.
  7
SLDTEXTSTYLE0
 73
     1
 44
1.0
  0
MTEXT
  5
B6
330
1F
100
AcDbEntity
  8
0
  6
Continuous
 62
     7
370
     0
100
AcDbMText
 10
992.289312433
 20
38.3691873166
 30
0.0
 40
1.5
 41
0.0
 71
     1
 72
     1
  1
VERIF.
  7
SLDTEXTSTYLE0
 73
     1
 44
1.0
  0
MTEXT
  5
B7
330
1F
100
AcDbEntity
  8
0
  6
Continuous
 62
     7
370
     0
100
AcDbMText
 10
992.0909928094
 20
42.6444950426
 30
0.0
 40
1.5
 41
0.0
 71
     1
 72
     1
  1
DIBUJ.
  7
SLDTEXTSTYLE0
 73
     1
 44
1.0
  0
CIRCLE
  5
B8
330
1F
100
AcDbEntity
  8
0
  6
Continuous
 62
     7
370
    15
100
AcDbCircle
 10
47.7192078303
 20
651.8513811752
 30
0.0
 40
1.5
  0
ARC
  5
B9
330
1F
100
AcDbEntity
  8
0
  6
Continuous
 62
     7
370
    15
100
AcDbCircle
 10
47.7192078303
 20
651.8513811752
 30
0.0
 40
5.000000000000007
100
AcDbArc
 50
132.5550671546
 51
0.0
  0
ARC
  5
BA
330
1F
100
AcDbEntity
  8
0
  6
Continuous
 62
     7
370
    15
100
AcDbCircle
 10
-521.3609124276
 20
726.8513811752
 30
0.0
 40
570.1763167830791
100
AcDbArc
 50
352.8147045267
 51
7.1852954733
  0
ARC
  5
BB
330
1F
100
AcDbEntity
  8
0
  6
Continuous
 62
     7
370
    15
100
AcDbCircle
 10
47.7192078303
 20
801.8513811752
 30
0.0
 40
5.0
100
AcDbArc
 50
0.0
 51
227.4449328454
  0
ARC
  5
BC
330
1F
100
AcDbEntity
  8
0
  6
Continuous
 62
     7
370
    15
100
AcDbCircle
 10
-555.3961806739
 20
726.8513811752
 30
0.0
 40
612.7228784169297
100
AcDbArc
 50
352.9691100336
 51
7.0308899664
  0
CIRCLE
  5
BD
330
1F
100
AcDbEntity
  8
0
  6
Continuous
 62
     7
370
    15
100
AcDbCircle
 10
47.7192078303
 20
801.8513811752
 30
0.0
 40
1.5
  0
CIRCLE
  5
BE
330
1F
100
AcDbEntity
  8
0
  6
Continuous
 62
     7
370
    15
100
AcDbCircle
 10
73.5980165362
 20
652.4934265776
 30
0.0
 40
1.5
  0
ARC
  5
BF
330
1F
100
AcDbEntity
  8
0
  6
Continuous
 62
     7
370
    15
100
AcDbCircle
 10
73.5980165362
 20
652.4934265776
 30
0.0
 40
5.000000000000014
100
AcDbArc
 50
132.5550671546
 51
0.0
  0
ARC
  5
C0
330
1F
100
AcDbEntity
  8
0
  6
Continuous
 62
     7
370
    15
100
AcDbCircle
 10
-495.4821037217
 20
727.4934265776
 30
0.0
 40
570.1763167830792
100
AcDbArc
 50
352.8147045267
 51
7.1852954733
  0
ARC
  5
C1
330
1F
100
AcDbEntity
  8
0
  6
Continuous
 62
     7
370
    15
100
AcDbCircle
 10
73.5980165362
 20
802.4934265776
 30
0.0
 40
5.000000000000014
100
AcDbArc
 50
0.0
 51
227.4449328454
  0
ARC
  5
C2
330
1F
100
AcDbEntity
  8
0
  6
Continuous
 62
     7
370
    15
100
AcDbCircle
 10
-529.517371968
 20
727.4934265776
 30
0.0
 40
612.7228784169297
100
AcDbArc
 50
352.9691100336
 51
7.0308899664
  0
CIRCLE
  5
C3
330
1F
100
AcDbEntity
  8
0
  6
Continuous
 62
     7
370
    15
100
AcDbCircle
 10
73.5980165362
 20
802.4934265776
 30
0.0
 40
1.5
  0
CIRCLE
  5
C4
330
1F
100
AcDbEntity
  8
0
  6
Continuous
 62
     7
370
    15
100
AcDbCircle
 10
165.2965701291
 20
712.3829740405
 30
0.0
 40
1.5
  0
CIRCLE
  5
C5
330
1F
100
AcDbEntity
  8
0
  6
Continuous
 62
     7
370
    15
100
AcDbCircle
 10
210.4253712788
 20
663.9752655706
 30
0.0
 40
1.5
  0
CIRCLE
  5
C6
330
1F
100
AcDbEntity
  8
0
  6
Continuous
 62
     7
370
    15
100
AcDbCircle
 10
100.4253712788
 20
668.3704495215
 30
0.0
 40
1.75
  0
CIRCLE
  5
C7
330
1F
100
AcDbEntity
  8
0
  6
Continuous
 62
     7
370
    15
100
AcDbCircle
 10
147.2954289638
 20
668.5714596483
 30
0.0
 40
1.75
  0
CIRCLE
  5
C8
330
1F
100
AcDbEntity
  8
0
  6
Continuous
 62
     7
370
    15
100
AcDbCircle
 10
107.6952938768
 20
694.0251484304
 30
0.0
 40
1.75
  0
LINE
  5
C9
330
1F
100
AcDbEntity
  8
0
  6
Continuous
 62
     7
370
    15
100
AcDbLine
 10
215.4253700867
 20
698.370449298
 30
0.0
 11
210.425374855
 21
698.370449298
 31
0.0
  0
LINE
  5
CA
330
1F
100
AcDbEntity
  8
0
  6
Continuous
 62
     7
370
    15
100
AcDbLine
 10
215.4253700867
 20
693.3704494097
 30
0.0
 11
215.4253700867
 21
698.370449298
 31
0.0
  0
LINE
  5
CB
330
1F
100
AcDbEntity
  8
0
  6
Continuous
 62
     7
370
    15
100
AcDbLine
 10
220.4253727689
 20
693.3704494097
 30
0.0
 11
215.4253700867
 21
693.3704494097
 31
0.0
  0
LINE
  5
CC
330
1F
100
AcDbEntity
  8
0
  6
Continuous
 62
     7
370
    15
100
AcDbLine
 10
220.4253727689
 20
653.3704493725
 30
0.0
 11
220.4253727689
 21
693.3704494097
 31
0.0
  0
LINE
  5
CD
330
1F
100
AcDbEntity
  8
0
  6
Continuous
 62
     7
370
    15
100
AcDbLine
 10
215.4253700867
 20
653.3704493725
 30
0.0
 11
220.4253727689
 21
653.3704493725
 31
0.0
  0
LINE
  5
CE
330
1F
100
AcDbEntity
  8
0
  6
Continuous
 62
     7
370
    15
100
AcDbLine
 10
215.4253700867
 20
648.3704504156
 30
0.0
 11
215.4253700867
 21
653.3704493725
 31
0.0
  0
ARC
  5
CF
330
1F
100
AcDbEntity
  8
0
  6
Continuous
 62
     7
370
    15
100
AcDbCircle
 10
165.2965701291
 20
712.3829740405
 30
0.0
 40
81.3049813972061
100
AcDbArc
 50
217.0723591544
 51
308.0648249033
  0
ARC
  5
D0
330
1F
100
AcDbEntity
  8
0
  6
Continuous
 62
     7
370
    15
100
AcDbCircle
 10
100.4253712788
 20
668.3704495215
 30
0.0
 40
5.0
100
AcDbArc
 50
150.3767599041
 51
270.0
  0
ARC
  5
D1
330
1F
100
AcDbEntity
  8
0
  6
Continuous
 62
     7
370
    15
100
AcDbCircle
 10
120.4253712788
 20
688.3704495215
 30
0.0
 40
30.00000000000002
100
AcDbArc
 50
76.9279085143
 51
215.7524415519
  0
ARC
  5
D2
330
1F
100
AcDbEntity
  8
0
  6
Continuous
 62
     7
370
    15
100
AcDbCircle
 10
144.8232746453
 20
776.1535073747
 30
0.0
 40
61.15171519002001
100
AcDbArc
 50
253.260859201
 51
278.5543875128
  0
ARC
  5
D3
330
1F
100
AcDbEntity
  8
0
  6
Continuous
 62
     7
370
    15
100
AcDbCircle
 10
171.207297932
 20
671.2356730241
 30
0.0
 40
47.69018109208429
100
AcDbArc
 50
34.6791538549
 51
111.2539736591
  0
LINE
  5
D4
330
1F
100
AcDbEntity
  8
0
  6
Continuous
 62
     7
370
    15
100
AcDbLine
 10
148.7096415951
 20
674.2283143633
 30
0.0
 11
120.4253712788
 21
702.5125846797
 31
0.0
  0
LINE
  5
D5
330
1F
100
AcDbEntity
  8
0
  6
Continuous
 62
     7
370
    15
100
AcDbLine
 10
120.4253712788
 20
702.5125846797
 30
0.0
 11
114.4149636968
 21
696.5021770978
 31
0.0
  0
LINE
  5
D6
330
1F
100
AcDbEntity
  8
0
  6
Continuous
 62
     7
370
    15
100
AcDbLine
 10
114.4149636968
 20
696.5021770978
 30
0.0
 11
110.1723227768
 21
700.7448180177
 31
0.0
  0
LINE
  5
D7
330
1F
100
AcDbEntity
  8
0
  6
Continuous
 62
     7
370
    15
100
AcDbLine
 10
110.1723227768
 20
700.7448180177
 30
0.0
 11
108.0510027825
 21
698.6234980234
 31
0.0
  0
LINE
  5
D8
330
1F
100
AcDbEntity
  8
0
  6
Continuous
 62
     7
370
    15
100
AcDbLine
 10
108.0510027825
 20
698.6234980234
 30
0.0
 11
112.2936437025
 21
694.3808571034
 31
0.0
  0
LINE
  5
D9
330
1F
100
AcDbEntity
  8
0
  6
Continuous
 62
     7
370
    15
100
AcDbLine
 10
112.2936437025
 20
694.3808571034
 30
0.0
 11
106.2832361206
 21
688.3704495215
 31
0.0
  0
LINE
  5
DA
330
1F
100
AcDbEntity
  8
0
  6
Continuous
 62
     7
370
    15
100
AcDbLine
 10
106.2832361206
 20
688.3704495215
 30
0.0
 11
134.5675064369
 21
660.0861792051
 31
0.0
  0
LINE
  5
DB
330
1F
100
AcDbEntity
  8
0
  6
Continuous
 62
     7
370
    15
100
AcDbLine
 10
134.5675064369
 20
660.0861792051
 30
0.0
 11
140.576081176
 21
666.0947539442
 31
0.0
  0
LINE
  5
DC
330
1F
100
AcDbEntity
  8
0
  6
Continuous
 62
     7
370
    15
100
AcDbLine
 10
140.576081176
 20
666.0947539442
 30
0.0
 11
144.8187230273
 21
661.8521120929
 31
0.0
  0
LINE
  5
DD
330
1F
100
AcDbEntity
  8
0
  6
Continuous
 62
     7
370
    15
100
AcDbLine
 10
144.8187230273
 20
661.8521120929
 30
0.0
 11
146.9418758645
 21
663.9752649301
 31
0.0
  0
LINE
  5
DE
330
1F
100
AcDbEntity
  8
0
  6
Continuous
 62
     7
370
    15
100
AcDbLine
 10
146.9418758645
 20
663.9752649301
 30
0.0
 11
142.6992340132
 21
668.2179067814
 31
0.0
  0
LINE
  5
DF
330
1F
100
AcDbEntity
  8
0
  6
Continuous
 62
     7
370
    15
100
AcDbLine
 10
142.6992340132
 20
668.2179067814
 30
0.0
 11
148.7096415951
 21
674.2283143633
 31
0.0
  0
CIRCLE
  5
E0
330
1F
100
AcDbEntity
  8
0
  6
Continuous
 62
     7
370
    15
100
AcDbCircle
 10
114.7668939262
 20
701.0967484798
 30
0.0
 40
1.749999999999986
  0
CIRCLE
  5
E1
330
1F
100
AcDbEntity
  8
0
  6
Continuous
 62
     7
370
    15
100
AcDbCircle
 10
140.2225284637
 20
661.4985591482
 30
0.0
 40
1.749999999999915
  0
CIRCLE
  5
E2
330
1F
100
AcDbEntity
  8
0
  6
Continuous
 62
     7
370
    15
100
AcDbCircle
 10
210.4253712788
 20
681.5492657867
 30
0.0
 40
1.5
  0
CIRCLE
  5
E3
330
1F
100
AcDbEntity
  8
0
  6
Continuous
 62
     7
370
    15
100
AcDbCircle
 10
165.2965701291
 20
642.3216727075
 30
0.0
 40
1.5
  0
CIRCLE
  5
E4
330
1F
100
AcDbEntity
  8
0
  6
Continuous
 62
     7
370
    15
100
AcDbCircle
 10
111.6580810937
 20
540.2456913838
 30
0.0
 40
1.5
  0
CIRCLE
  5
E5
330
1F
100
AcDbEntity
  8
0
  6
Continuous
 62
     7
370
    15
100
AcDbCircle
 10
156.7868822434
 20
491.8379829139
 30
0.0
 40
1.5
  0
CIRCLE
  5
E6
330
1F
100
AcDbEntity
  8
0
  6
Continuous
 62
     7
370
    15
100
AcDbCircle
 10
46.7868822434
 20
496.2331668648
 30
0.0
 40
1.750000000000007
  0
CIRCLE
  5
E7
330
1F
100
AcDbEntity
  8
0
  6
Continuous
 62
     7
370
    15
100
AcDbCircle
 10
93.6569399285
 20
496.4341769916
 30
0.0
 40
1.750000000000028
  0
CIRCLE
  5
E8
330
1F
100
AcDbEntity
  8
0
  6
Continuous
 62
     7
370
    15
100
AcDbCircle
 10
54.0568048415
 20
521.8878657737
 30
0.0
 40
1.749999999999993
  0
LINE
  5
E9
330
1F
100
AcDbEntity
  8
0
  6
Continuous
 62
     7
370
    15
100
AcDbLine
 10
161.7868810513
 20
526.2331666413
 30
0.0
 11
156.7868858197
 21
526.2331666413
 31
0.0
  0
LINE
  5
EA
330
1F
100
AcDbEntity
  8
0
  6
Continuous
 62
     7
370
    15
100
AcDbLine
 10
161.7868810513
 20
521.2331667531
 30
0.0
 11
161.7868810513
 21
526.2331666413
 31
0.0
  0
LINE
  5
EB
330
1F
100
AcDbEntity
  8
0
  6
Continuous
 62
     7
370
    15
100
AcDbLine
 10
166.7868837335
 20
521.2331667531
 30
0.0
 11
161.7868810513
 21
521.2331667531
 31
0.0
  0
LINE
  5
EC
330
1F
100
AcDbEntity
  8
0
  6
Continuous
 62
     7
370
    15
100
AcDbLine
 10
166.7868837335
 20
481.2331667158
 30
0.0
 11
166.7868837335
 21
521.2331667531
 31
0.0
  0
LINE
  5
ED
330
1F
100
AcDbEntity
  8
0
  6
Continuous
 62
     7
370
    15
100
AcDbLine
 10
161.7868810513
 20
481.2331667158
 30
0.0
 11
166.7868837335
 21
481.2331667158
 31
0.0
  0
LINE
  5
EE
330
1F
100
AcDbEntity
  8
0
  6
Continuous
 62
     7
370
    15
100
AcDbLine
 10
161.7868810513
 20
476.2331677589
 30
0.0
 11
161.7868810513
 21
481.2331667158
 31
0.0
  0
ARC
  5
EF
330
1F
100
AcDbEntity
  8
0
  6
Continuous
 62
     7
370
    15
100
AcDbCircle
 10
111.6580810937
 20
540.2456913838
 30
0.0
 40
81.30498139720616
100
AcDbArc
 50
217.0723591544
 51
308.0648249033
  0
ARC
  5
F0
330
1F
100
AcDbEntity
  8
0
  6
Continuous
 62
     7
370
    15
100
AcDbCircle
 10
46.7868822434
 20
496.2331668648
 30
0.0
 40
5.000000000000013
100
AcDbArc
 50
150.3767599041
 51
270.0
  0
ARC
  5
F1
330
1F
100
AcDbEntity
  8
0
  6
Continuous
 62
     7
370
    15
100
AcDbCircle
 10
66.7868822434
 20
516.2331668648
 30
0.0
 40
30.00000000000002
100
AcDbArc
 50
76.9279085143
 51
215.7524415519
  0
ARC
  5
F2
330
1F
100
AcDbEntity
  8
0
  6
Continuous
 62
     7
370
    15
100
AcDbCircle
 10
91.18478561
 20
604.016224718
 30
0.0
 40
61.15171519002001
100
AcDbArc
 50
253.260859201
 51
278.5543875128
  0
ARC
  5
F3
330
1F
100
AcDbEntity
  8
0
  6
Continuous
 62
     7
370
    15
100
AcDbCircle
 10
117.5688088966
 20
499.0983903675
 30
0.0
 40
47.69018109208435
100
AcDbArc
 50
34.6791538549
 51
111.2539736591
  0
LINE
  5
F4
330
1F
100
AcDbEntity
  8
0
  6
Continuous
 62
     7
370
    15
100
AcDbLine
 10
95.0711525598
 20
502.0910317067
 30
0.0
 11
66.7868822434
 21
530.375302023
 31
0.0
  0
LINE
  5
F5
330
1F
100
AcDbEntity
  8
0
  6
Continuous
 62
     7
370
    15
100
AcDbLine
 10
66.7868822434
 20
530.375302023
 30
0.0
 11
60.7764746615
 21
524.3648944411
 31
0.0
  0
LINE
  5
F6
330
1F
100
AcDbEntity
  8
0
  6
Continuous
 62
     7
370
    15
100
AcDbLine
 10
60.7764746615
 20
524.3648944411
 30
0.0
 11
56.5338337415
 21
528.6075353611
 31
0.0
  0
LINE
  5
F7
330
1F
100
AcDbEntity
  8
0
  6
Continuous
 62
     7
370
    15
100
AcDbLine
 10
56.5338337415
 20
528.6075353611
 30
0.0
 11
54.4125137472
 21
526.4862153667
 31
0.0
  0
LINE
  5
F8
330
1F
100
AcDbEntity
  8
0
  6
Continuous
 62
     7
370
    15
100
AcDbLine
 10
54.4125137472
 20
526.4862153667
 30
0.0
 11
58.6551546672
 21
522.2435744468
 31
0.0
  0
LINE
  5
F9
330
1F
100
AcDbEntity
  8
0
  6
Continuous
 62
     7
370
    15
100
AcDbLine
 10
58.6551546672
 20
522.2435744468
 30
0.0
 11
52.6447470852
 21
516.2331668648
 31
0.0
  0
LINE
  5
FA
330
1F
100
AcDbEntity
  8
0
  6
Continuous
 62
     7
370
    15
100
AcDbLine
 10
52.6447470852
 20
516.2331668648
 30
0.0
 11
80.9290174016
 21
487.9488965485
 31
0.0
  0
LINE
  5
FB
330
1F
100
AcDbEntity
  8
0
  6
Continuous
 62
     7
370
    15
100
AcDbLine
 10
80.9290174016
 20
487.9488965485
 30
0.0
 11
86.9375921407
 21
493.9574712876
 31
0.0
  0
LINE
  5
FC
330
1F
100
AcDbEntity
  8
0
  6
Continuous
 62
     7
370
    15
100
AcDbLine
 10
86.9375921407
 20
493.9574712876
 30
0.0
 11
91.180233992
 21
489.7148294363
 31
0.0
  0
LINE
  5
FD
330
1F
100
AcDbEntity
  8
0
  6
Continuous
 62
     7
370
    15
100
AcDbLine
 10
91.180233992
 20
489.7148294363
 30
0.0
 11
93.3033868292
 21
491.8379822734
 31
0.0
  0
LINE
  5
FE
330
1F
100
AcDbEntity
  8
0
  6
Continuous
 62
     7
370
    15
100
AcDbLine
 10
93.3033868292
 20
491.8379822734
 30
0.0
 11
89.0607449779
 21
496.0806241247
 31
0.0
  0
LINE
  5
FF
330
1F
100
AcDbEntity
  8
0
  6
Continuous
 62
     7
370
    15
100
AcDbLine
 10
89.0607449779
 20
496.0806241247
 30
0.0
 11
95.0711525598
 21
502.0910317067
 31
0.0
  0
CIRCLE
  5
100
330
1F
100
AcDbEntity
  8
0
  6
Continuous
 62
     7
370
    15
100
AcDbCircle
 10
61.1284048909
 20
528.9594658231
 30
0.0
 40
1.749999999999986
  0
CIRCLE
  5
101
330
1F
100
AcDbEntity
  8
0
  6
Continuous
 62
     7
370
    15
100
AcDbCircle
 10
86.5840394284
 20
489.3612764915
 30
0.0
 40
1.749999999999901
  0
CIRCLE
  5
102
330
1F
100
AcDbEntity
  8
0
  6
Continuous
 62
     7
370
    15
100
AcDbCircle
 10
156.7868822434
 20
509.41198313
 30
0.0
 40
1.5
  0
CIRCLE
  5
103
330
1F
100
AcDbEntity
  8
0
  6
Continuous
 62
     7
370
    15
100
AcDbCircle
 10
111.6580810937
 20
470.1843900509
 30
0.0
 40
1.5
  0
CIRCLE
  5
104
330
1F
100
AcDbEntity
  8
0
  6
Continuous
 62
     7
370
    15
100
AcDbCircle
 10
105.6389743369
 20
632.2042252851
 30
0.0
 40
1.5
  0
CIRCLE
  5
105
330
1F
100
AcDbEntity
  8
0
  6
Continuous
 62
     7
370
    15
100
AcDbCircle
 10
150.7677754866
 20
583.7965168152
 30
0.0
 40
1.5
  0
CIRCLE
  5
106
330
1F
100
AcDbEntity
  8
0
  6
Continuous
 62
     7
370
    15
100
AcDbCircle
 10
40.7677754866
 20
588.1917007661
 30
0.0
 40
1.750000000000007
  0
CIRCLE
  5
107
330
1F
100
AcDbEntity
  8
0
  6
Continuous
 62
     7
370
    15
100
AcDbCircle
 10
87.6378331717
 20
588.3927108929
 30
0.0
 40
1.750000000000014
  0
CIRCLE
  5
108
330
1F
100
AcDbEntity
  8
0
  6
Continuous
 62
     7
370
    15
100
AcDbCircle
 10
48.0376980847
 20
613.846399675
 30
0.0
 40
1.749999999999993
  0
LINE
  5
109
330
1F
100
AcDbEntity
  8
0
  6
Continuous
 62
     7
370
    15
100
AcDbLine
 10
155.7677742945
 20
618.1917005426
 30
0.0
 11
150.7677790629
 21
618.1917005426
 31
0.0
  0
LINE
  5
10A
330
1F
100
AcDbEntity
  8
0
  6
Continuous
 62
     7
370
    15
100
AcDbLine
 10
155.7677742945
 20
613.1917006544
 30
0.0
 11
155.7677742945
 21
618.1917005426
 31
0.0
  0
LINE
  5
10B
330
1F
100
AcDbEntity
  8
0
  6
Continuous
 62
     7
370
    15
100
AcDbLine
 10
160.7677769768
 20
613.1917006544
 30
0.0
 11
155.7677742945
 21
613.1917006544
 31
0.0
  0
LINE
  5
10C
330
1F
100
AcDbEntity
  8
0
  6
Continuous
 62
     7
370
    15
100
AcDbLine
 10
160.7677769768
 20
573.1917006171
 30
0.0
 11
160.7677769768
 21
613.1917006544
 31
0.0
  0
LINE
  5
10D
330
1F
100
AcDbEntity
  8
0
  6
Continuous
 62
     7
370
    15
100
AcDbLine
 10
155.7677742945
 20
573.1917006171
 30
0.0
 11
160.7677769768
 21
573.1917006171
 31
0.0
  0
LINE
  5
10E
330
1F
100
AcDbEntity
  8
0
  6
Continuous
 62
     7
370
    15
100
AcDbLine
 10
155.7677742945
 20
568.1917016602
 30
0.0
 11
155.7677742945
 21
573.1917006171
 31
0.0
  0
ARC
  5
10F
330
1F
100
AcDbEntity
  8
0
  6
Continuous
 62
     7
370
    15
100
AcDbCircle
 10
105.6389743369
 20
632.2042252851
 30
0.0
 40
81.3049813972062
100
AcDbArc
 50
217.0723591544
 51
308.0648249033
  0
ARC
  5
110
330
1F
100
AcDbEntity
  8
0
  6
Continuous
 62
     7
370
    15
100
AcDbCircle
 10
40.7677754866
 20
588.1917007661
 30
0.0
 40
5.0
100
AcDbArc
 50
150.3767599041
 51
270.0
  0
ARC
  5
111
330
1F
100
AcDbEntity
  8
0
  6
Continuous
 62
     7
370
    15
100
AcDbCircle
 10
60.7677754866
 20
608.1917007661
 30
0.0
 40
30.00000000000008
100
AcDbArc
 50
76.9279085143
 51
215.7524415519
  0
ARC
  5
112
330
1F
100
AcDbEntity
  8
0
  6
Continuous
 62
     7
370
    15
100
AcDbCircle
 10
85.1656788532
 20
695.9747586193
 30
0.0
 40
61.15171519001991
100
AcDbArc
 50
253.260859201
 51
278.5543875128
  0
ARC
  5
113
330
1F
100
AcDbEntity
  8
0
  6
Continuous
 62
     7
370
    15
100
AcDbCircle
 10
111.5497021399
 20
591.0569242688
 30
0.0
 40
47.69018109208431
100
AcDbArc
 50
34.6791538549
 51
111.2539736591
  0
LINE
  5
114
330
1F
100
AcDbEntity
  8
0
  6
Continuous
 62
     7
370
    15
100
AcDbLine
 10
89.052045803
 20
594.049565608
 30
0.0
 11
60.7677754866
 21
622.3338359243
 31
0.0
  0
LINE
  5
115
330
1F
100
AcDbEntity
  8
0
  6
Continuous
 62
     7
370
    15
100
AcDbLine
 10
60.7677754866
 20
622.3338359243
 30
0.0
 11
54.7573679047
 21
616.3234283424
 31
0.0
  0
LINE
  5
116
330
1F
100
AcDbEntity
  8
0
  6
Continuous
 62
     7
370
    15
100
AcDbLine
 10
54.7573679047
 20
616.3234283424
 30
0.0
 11
50.5147269847
 21
620.5660692624
 31
0.0
  0
LINE
  5
117
330
1F
100
AcDbEntity
  8
0
  6
Continuous
 62
     7
370
    15
100
AcDbLine
 10
50.5147269847
 20
620.5660692624
 30
0.0
 11
48.3934069904
 21
618.444749268
 31
0.0
  0
LINE
  5
118
330
1F
100
AcDbEntity
  8
0
  6
Continuous
 62
     7
370
    15
100
AcDbLine
 10
48.3934069904
 20
618.444749268
 30
0.0
 11
52.6360479104
 21
614.2021083481
 31
0.0
  0
LINE
  5
119
330
1F
100
AcDbEntity
  8
0
  6
Continuous
 62
     7
370
    15
100
AcDbLine
 10
52.6360479104
 20
614.2021083481
 30
0.0
 11
46.6256403285
 21
608.1917007661
 31
0.0
  0
LINE
  5
11A
330
1F
100
AcDbEntity
  8
0
  6
Continuous
 62
     7
370
    15
100
AcDbLine
 10
46.6256403285
 20
608.1917007661
 30
0.0
 11
74.9099106448
 21
579.9074304498
 31
0.0
  0
LINE
  5
11B
330
1F
100
AcDbEntity
  8
0
  6
Continuous
 62
     7
370
    15
100
AcDbLine
 10
74.9099106448
 20
579.9074304498
 30
0.0
 11
80.9184853839
 21
585.9160051889
 31
0.0
  0
LINE
  5
11C
330
1F
100
AcDbEntity
  8
0
  6
Continuous
 62
     7
370
    15
100
AcDbLine
 10
80.9184853839
 20
585.9160051889
 30
0.0
 11
85.1611272352
 21
581.6733633376
 31
0.0
  0
LINE
  5
11D
330
1F
100
AcDbEntity
  8
0
  6
Continuous
 62
     7
370
    15
100
AcDbLine
 10
85.1611272352
 20
581.6733633376
 30
0.0
 11
87.2842800724
 21
583.7965161747
 31
0.0
  0
LINE
  5
11E
330
1F
100
AcDbEntity
  8
0
  6
Continuous
 62
     7
370
    15
100
AcDbLine
 10
87.2842800724
 20
583.7965161747
 30
0.0
 11
83.0416382211
 21
588.039158026
 31
0.0
  0
LINE
  5
11F
330
1F
100
AcDbEntity
  8
0
  6
Continuous
 62
     7
370
    15
100
AcDbLine
 10
83.0416382211
 20
588.039158026
 30
0.0
 11
89.052045803
 21
594.049565608
 31
0.0
  0
CIRCLE
  5
120
330
1F
100
AcDbEntity
  8
0
  6
Continuous
 62
     7
370
    15
100
AcDbCircle
 10
55.1092981341
 20
620.9179997244
 30
0.0
 40
1.749999999999993
  0
CIRCLE
  5
121
330
1F
100
AcDbEntity
  8
0
  6
Continuous
 62
     7
370
    15
100
AcDbCircle
 10
80.5649326716
 20
581.3198103928
 30
0.0
 40
1.749999999999901
  0
CIRCLE
  5
122
330
1F
100
AcDbEntity
  8
0
  6
Continuous
 62
     7
370
    15
100
AcDbCircle
 10
150.7677754866
 20
601.3705170313
 30
0.0
 40
1.5
  0
CIRCLE
  5
123
330
1F
100
AcDbEntity
  8
0
  6
Continuous
 62
     7
370
    15
100
AcDbCircle
 10
105.6389743369
 20
562.1429239522
 30
0.0
 40
1.5
  0
CIRCLE
  5
124
330
1F
100
AcDbEntity
  8
0
  6
Continuous
 62
     7
370
    15
100
AcDbCircle
 10
506.3859977975
 20
585.4096169997
 30
0.0
 40
1.749999999999943
  0
CIRCLE
  5
125
330
1F
100
AcDbEntity
  8
0
  6
Continuous
 62
     7
370
    15
100
AcDbCircle
 10
506.3859977975
 20
605.4096169997
 30
0.0
 40
4.050000000000011
  0
LINE
  5
126
330
1F
100
AcDbEntity
  8
0
  6
Continuous
 62
     7
370
    15
100
AcDbLine
 10
471.8856522098
 20
625.4096165527
 30
0.0
 11
471.8856522098
 21
585.4096174467
 31
0.0
  0
LINE
  5
127
330
1F
100
AcDbEntity
  8
0
  6
Continuous
 62
     7
370
    15
100
AcDbLine
 10
466.8856532528
 20
625.4096165527
 30
0.0
 11
471.8856522098
 21
625.4096165527
 31
0.0
  0
LINE
  5
128
330
1F
100
AcDbEntity
  8
0
  6
Continuous
 62
     7
370
    15
100
AcDbLine
 10
466.8856532528
 20
630.4096173722
 30
0.0
 11
466.8856532528
 21
625.4096165527
 31
0.0
  0
LINE
  5
129
330
1F
100
AcDbEntity
  8
0
  6
Continuous
 62
     7
370
    15
100
AcDbLine
 10
470.0689473405
 20
630.4096173722
 30
0.0
 11
466.8856532528
 21
630.4096173722
 31
0.0
  0
ARC
  5
12A
330
1F
100
AcDbEntity
  8
0
  6
Continuous
 62
     7
370
    15
100
AcDbCircle
 10
506.3859977975
 20
605.4096169997
 30
0.0
 40
44.09000000000002
100
AcDbArc
 50
34.5428207699
 51
145.4571792301
  0
LINE
  5
12B
330
1F
100
AcDbEntity
  8
0
  6
Continuous
 62
     7
370
    15
100
AcDbLine
 10
545.8863423421
 20
630.4096173722
 30
0.0
 11
542.7030482545
 21
630.4096173722
 31
0.0
  0
LINE
  5
12C
330
1F
100
AcDbEntity
  8
0
  6
Continuous
 62
     7
370
    15
100
AcDbLine
 10
545.8863423421
 20
625.4096165527
 30
0.0
 11
545.8863423421
 21
630.4096173722
 31
0.0
  0
LINE
  5
12D
330
1F
100
AcDbEntity
  8
0
  6
Continuous
 62
     7
370
    15
100
AcDbLine
 10
540.8863433852
 20
625.4096165527
 30
0.0
 11
545.8863423421
 21
625.4096165527
 31
0.0
  0
LINE
  5
12E
330
1F
100
AcDbEntity
  8
0
  6
Continuous
 62
     7
370
    15
100
AcDbLine
 10
540.8863433852
 20
585.4096174467
 30
0.0
 11
540.8863433852
 21
625.4096165527
 31
0.0
  0
LINE
  5
12F
330
1F
100
AcDbEntity
  8
0
  6
Continuous
 62
     7
370
    15
100
AcDbLine
 10
545.8863423421
 20
585.4096174467
 30
0.0
 11
540.8863433852
 21
585.4096174467
 31
0.0
  0
LINE
  5
130
330
1F
100
AcDbEntity
  8
0
  6
Continuous
 62
     7
370
    15
100
AcDbLine
 10
545.8863423421
 20
580.4096166272
 30
0.0
 11
545.8863423421
 21
585.4096174467
 31
0.0
  0
LINE
  5
131
330
1F
100
AcDbEntity
  8
0
  6
Continuous
 62
     7
370
    15
100
AcDbLine
 10
542.7030482545
 20
580.4096166272
 30
0.0
 11
545.8863423421
 21
580.4096166272
 31
0.0
  0
ARC
  5
132
330
1F
100
AcDbEntity
  8
0
  6
Continuous
 62
     7
370
    15
100
AcDbCircle
 10
506.3859977975
 20
605.4096169997
 30
0.0
 40
44.09000000000002
100
AcDbArc
 50
214.5428207699
 51
325.4571792301
  0
LINE
  5
133
330
1F
100
AcDbEntity
  8
0
  6
Continuous
 62
     7
370
    15
100
AcDbLine
 10
466.8856532528
 20
580.4096166272
 30
0.0
 11
470.0689473405
 21
580.4096166272
 31
0.0
  0
LINE
  5
134
330
1F
100
AcDbEntity
  8
0
  6
Continuous
 62
     7
370
    15
100
AcDbLine
 10
466.8856532528
 20
585.4096174467
 30
0.0
 11
466.8856532528
 21
580.4096166272
 31
0.0
  0
LINE
  5
135
330
1F
100
AcDbEntity
  8
0
  6
Continuous
 62
     7
370
    15
100
AcDbLine
 10
471.8856522098
 20
585.4096174467
 30
0.0
 11
466.8856532528
 21
585.4096174467
 31
0.0
  0
CIRCLE
  5
136
330
1F
100
AcDbEntity
  8
0
  6
Continuous
 62
     7
370
    15
100
AcDbCircle
 10
506.3859977975
 20
625.4096169997
 30
0.0
 40
1.749999999999943
  0
CIRCLE
  5
137
330
1F
100
AcDbEntity
  8
0
  6
Continuous
 62
     7
370
    15
100
AcDbCircle
 10
490.8859977975
 20
595.9096169997
 30
0.0
 40
1.500000000000057
  0
CIRCLE
  5
138
330
1F
100
AcDbEntity
  8
0
  6
Continuous
 62
     7
370
    15
100
AcDbCircle
 10
490.8859977975
 20
617.9096169997
 30
0.0
 40
1.500000000000057
  0
CIRCLE
  5
139
330
1F
100
AcDbEntity
  8
0
  6
Continuous
 62
     7
370
    15
100
AcDbCircle
 10
521.8859977975
 20
617.9096169997
 30
0.0
 40
1.5
  0
CIRCLE
  5
13A
330
1F
100
AcDbEntity
  8
0
  6
Continuous
 62
     7
370
    15
100
AcDbCircle
 10
521.8859977975
 20
595.9096169997
 30
0.0
 40
1.5
  0
CIRCLE
  5
13B
330
1F
100
AcDbEntity
  8
0
  6
Continuous
 62
     7
370
    15
100
AcDbCircle
 10
403.3373934029
 20
585.624421767
 30
0.0
 40
1.75
  0
CIRCLE
  5
13C
330
1F
100
AcDbEntity
  8
0
  6
Continuous
 62
     7
370
    15
100
AcDbCircle
 10
403.3373934029
 20
605.624421767
 30
0.0
 40
4.050000000000011
  0
LINE
  5
13D
330
1F
100
AcDbEntity
  8
0
  6
Continuous
 62
     7
370
    15
100
AcDbLine
 10
368.8370478152
 20
625.62442132
 30
0.0
 11
368.8370478152
 21
585.6244222141
 31
0.0
  0
LINE
  5
13E
330
1F
100
AcDbEntity
  8
0
  6
Continuous
 62
     7
370
    15
100
AcDbLine
 10
363.8370488583
 20
625.62442132
 30
0.0
 11
368.8370478152
 21
625.62442132
 31
0.0
  0
LINE
  5
13F
330
1F
100
AcDbEntity
  8
0
  6
Continuous
 62
     7
370
    15
100
AcDbLine
 10
363.8370488583
 20
630.6244221396
 30
0.0
 11
363.8370488583
 21
625.62442132
 31
0.0
  0
LINE
  5
140
330
1F
100
AcDbEntity
  8
0
  6
Continuous
 62
     7
370
    15
100
AcDbLine
 10
367.0203429459
 20
630.6244221396
 30
0.0
 11
363.8370488583
 21
630.6244221396
 31
0.0
  0
ARC
  5
141
330
1F
100
AcDbEntity
  8
0
  6
Continuous
 62
     7
370
    15
100
AcDbCircle
 10
403.3373934029
 20
605.624421767
 30
0.0
 40
44.09000000000002
100
AcDbArc
 50
34.5428207699
 51
145.4571792301
  0
LINE
  5
142
330
1F
100
AcDbEntity
  8
0
  6
Continuous
 62
     7
370
    15
100
AcDbLine
 10
442.8377379476
 20
630.6244221396
 30
0.0
 11
439.6544438599
 21
630.6244221396
 31
0.0
  0
LINE
  5
143
330
1F
100
AcDbEntity
  8
0
  6
Continuous
 62
     7
370
    15
100
AcDbLine
 10
442.8377379476
 20
625.62442132
 30
0.0
 11
442.8377379476
 21
630.6244221396
 31
0.0
  0
LINE
  5
144
330
1F
100
AcDbEntity
  8
0
  6
Continuous
 62
     7
370
    15
100
AcDbLine
 10
437.8377389907
 20
625.62442132
 30
0.0
 11
442.8377379476
 21
625.62442132
 31
0.0
  0
LINE
  5
145
330
1F
100
AcDbEntity
  8
0
  6
Continuous
 62
     7
370
    15
100
AcDbLine
 10
437.8377389907
 20
585.6244222141
 30
0.0
 11
437.8377389907
 21
625.62442132
 31
0.0
  0
LINE
  5
146
330
1F
100
AcDbEntity
  8
0
  6
Continuous
 62
     7
370
    15
100
AcDbLine
 10
442.8377379476
 20
585.6244222141
 30
0.0
 11
437.8377389907
 21
585.6244222141
 31
0.0
  0
LINE
  5
147
330
1F
100
AcDbEntity
  8
0
  6
Continuous
 62
     7
370
    15
100
AcDbLine
 10
442.8377379476
 20
580.6244213945
 30
0.0
 11
442.8377379476
 21
585.6244222141
 31
0.0
  0
LINE
  5
148
330
1F
100
AcDbEntity
  8
0
  6
Continuous
 62
     7
370
    15
100
AcDbLine
 10
439.6544438599
 20
580.6244213945
 30
0.0
 11
442.8377379476
 21
580.6244213945
 31
0.0
  0
ARC
  5
149
330
1F
100
AcDbEntity
  8
0
  6
Continuous
 62
     7
370
    15
100
AcDbCircle
 10
403.3373934029
 20
605.624421767
 30
0.0
 40
44.09000000000009
100
AcDbArc
 50
214.5428207699
 51
325.4571792301
  0
LINE
  5
14A
330
1F
100
AcDbEntity
  8
0
  6
Continuous
 62
     7
370
    15
100
AcDbLine
 10
363.8370488583
 20
580.6244213945
 30
0.0
 11
367.0203429459
 21
580.6244213945
 31
0.0
  0
LINE
  5
14B
330
1F
100
AcDbEntity
  8
0
  6
Continuous
 62
     7
370
    15
100
AcDbLine
 10
363.8370488583
 20
585.6244222141
 30
0.0
 11
363.8370488583
 21
580.6244213945
 31
0.0
  0
LINE
  5
14C
330
1F
100
AcDbEntity
  8
0
  6
Continuous
 62
     7
370
    15
100
AcDbLine
 10
368.8370478152
 20
585.6244222141
 30
0.0
 11
363.8370488583
 21
585.6244222141
 31
0.0
  0
CIRCLE
  5
14D
330
1F
100
AcDbEntity
  8
0
  6
Continuous
 62
     7
370
    15
100
AcDbCircle
 10
403.3373934029
 20
625.624421767
 30
0.0
 40
1.75
  0
CIRCLE
  5
14E
330
1F
100
AcDbEntity
  8
0
  6
Continuous
 62
     7
370
    15
100
AcDbCircle
 10
387.8373934029
 20
596.124421767
 30
0.0
 40
1.500000000000057
  0
CIRCLE
  5
14F
330
1F
100
AcDbEntity
  8
0
  6
Continuous
 62
     7
370
    15
100
AcDbCircle
 10
387.8373934029
 20
618.124421767
 30
0.0
 40
1.500000000000057
  0
CIRCLE
  5
150
330
1F
100
AcDbEntity
  8
0
  6
Continuous
 62
     7
370
    15
100
AcDbCircle
 10
418.8373934029
 20
618.124421767
 30
0.0
 40
1.5
  0
CIRCLE
  5
151
330
1F
100
AcDbEntity
  8
0
  6
Continuous
 62
     7
370
    15
100
AcDbCircle
 10
418.8373934029
 20
596.124421767
 30
0.0
 40
1.5
  0
CIRCLE
  5
152
330
1F
100
AcDbEntity
  8
0
  6
Continuous
 62
     7
370
    15
100
AcDbCircle
 10
440.7022189531
 20
684.8424559609
 30
0.0
 40
1.499999999999943
  0
CIRCLE
  5
153
330
1F
100
AcDbEntity
  8
0
  6
Continuous
 62
     7
370
    15
100
AcDbCircle
 10
433.2022189531
 20
677.3424559609
 30
0.0
 40
1.5
  0
CIRCLE
  5
154
330
1F
100
AcDbEntity
  8
0
  6
Continuous
 62
     7
370
    15
100
AcDbCircle
 10
333.2022189531
 20
662.8424559609
 30
0.0
 40
1.5
  0
CIRCLE
  5
155
330
1F
100
AcDbEntity
  8
0
  6
Continuous
 62
     7
370
    15
100
AcDbCircle
 10
433.2022189531
 20
684.8424559609
 30
0.0
 40
3.5
  0
SPLINE
  5
156
330
1F
100
AcDbEntity
  8
0
  6
Continuous
 62
     7
370
    15
100
AcDbSpline
210
0.0
220
0.0
230
1.0
 70
     8
 71
     3
 72
     8
 73
     4
 74
     0
 42
0.000000001
 43
0.00000001
 40
0.0
 40
0.0
 40
0.0
 40
0.0
 40
1.0
 40
1.0
 40
1.0
 40
1.0
 10
451.9757768607325
 20
701.3516510802937
 30
0.0
 10
433.6851487900912
 20
722.9752585441014
 30
0.0
 10
359.528556859122
 20
720.1437707441519
 30
0.0
 10
323.2022189531031
 20
684.84245596094
 30
0.0
  0
ARC
  5
157
330
1F
100
AcDbEntity
  8
0
  6
Continuous
 62
     7
370
    15
100
AcDbCircle
 10
433.2022189531
 20
684.8424559609
 30
0.0
 40
25.00000000000006
100
AcDbArc
 50
251.688447369
 51
41.3279297079
  0
SPLINE
  5
158
330
1F
100
AcDbEntity
  8
0
  6
Continuous
 62
     7
370
    15
100
AcDbSpline
210
0.0
220
0.0
230
1.0
 70
     8
 71
     3
 72
     8
 73
     4
 74
     0
 42
0.000000001
 43
0.00000001
 40
0.0
 40
0.0
 40
0.0
 40
0.0
 40
1.0
 40
1.0
 40
1.0
 40
1.0
 10
323.2022189531031
 20
634.8424559609401
 30
0.0
 10
348.8889391136394
 20
659.0721688140094
 30
0.0
 10
384.2787547531794
 20
678.4451014210688
 30
0.0
 10
425.3476218626692
 20
661.1084022712109
 30
0.0
  0
SPLINE
  5
159
330
1F
100
AcDbEntity
  8
0
  6
Continuous
 62
     7
370
    15
100
AcDbSpline
210
0.0
220
0.0
230
1.0
 70
     8
 71
     3
 72
     8
 73
     4
 74
     0
 42
0.000000001
 43
0.00000001
 40
0.0
 40
0.0
 40
0.0
 40
0.0
 40
1.0
 40
1.0
 40
1.0
 40
1.0
 10
260.8722620852334
 20
673.6008801693051
 30
0.0
 10
269.0532529414714
 20
656.4422806458781
 30
0.0
 10
319.8391338423865
 20
629.5329260233298
 30
0.0
 10
323.2022189531031
 20
634.8424559609401
 30
0.0
  0
ARC
  5
15A
330
1F
100
AcDbEntity
  8
0
  6
Continuous
 62
     7
370
    15
100
AcDbCircle
 10
283.2022189531
 20
684.8424559609
 30
0.0
 40
25.00000000000003
100
AcDbArc
 50
24.1558463156
 51
206.7220664684
  0
SPLINE
  5
15B
330
1F
100
AcDbEntity
  8
0
  6
Continuous
 62
     7
370
    15
100
AcDbSpline
210
0.0
220
0.0
230
1.0
 70
     8
 71
     3
 72
     8
 73
     4
 74
     0
 42
0.000000001
 43
0.00000001
 40
0.0
 40
0.0
 40
0.0
 40
0.0
 40
1.0
 40
1.0
 40
1.0
 40
1.0
 10
323.2022189531031
 20
684.84245596094
 30
0.0
 10
319.1394716284576
 20
679.9028430690204
 30
0.0
 10
310.2937347921012
 20
684.9383598539821
 30
0.0
 10
306.0131125313452
 20
695.0729561521387
 30
0.0
  0
CIRCLE
  5
15C
330
1F
100
AcDbEntity
  8
0
  6
Continuous
 62
     7
370
    15
100
AcDbCircle
 10
403.5405999707
 20
692.3424559609
 30
0.0
 40
1.5
  0
CIRCLE
  5
15D
330
1F
100
AcDbEntity
  8
0
  6
Continuous
 62
     7
370
    15
100
AcDbCircle
 10
283.2022189531
 20
684.8424559609
 30
0.0
 40
1.5
  0
CIRCLE
  5
15E
330
1F
100
AcDbEntity
  8
0
  6
Continuous
 62
     7
370
    15
100
AcDbCircle
 10
425.7022189531
 20
684.8424559609
 30
0.0
 40
1.5
  0
CIRCLE
  5
15F
330
1F
100
AcDbEntity
  8
0
  6
Continuous
 62
     7
370
    15
100
AcDbCircle
 10
433.2022189531
 20
692.3424559609
 30
0.0
 40
1.5
  0
CIRCLE
  5
160
330
1F
100
AcDbEntity
  8
0
  6
Continuous
 62
     7
370
    15
100
AcDbCircle
 10
439.6604399891
 20
760.75077878
 30
0.0
 40
1.500000000000057
  0
CIRCLE
  5
161
330
1F
100
AcDbEntity
  8
0
  6
Continuous
 62
     7
370
    15
100
AcDbCircle
 10
432.1604399891
 20
753.25077878
 30
0.0
 40
1.5
  0
CIRCLE
  5
162
330
1F
100
AcDbEntity
  8
0
  6
Continuous
 62
     7
370
    15
100
AcDbCircle
 10
332.1604399891
 20
738.75077878
 30
0.0
 40
1.5
  0
CIRCLE
  5
163
330
1F
100
AcDbEntity
  8
0
  6
Continuous
 62
     7
370
    15
100
AcDbCircle
 10
432.1604399891
 20
760.75077878
 30
0.0
 40
3.5
  0
SPLINE
  5
164
330
1F
100
AcDbEntity
  8
0
  6
Continuous
 62
     7
370
    15
100
AcDbSpline
210
0.0
220
0.0
230
1.0
 70
     8
 71
     3
 72
     8
 73
     4
 74
     0
 42
0.000000001
 43
0.00000001
 40
0.0
 40
0.0
 40
0.0
 40
0.0
 40
1.0
 40
1.0
 40
1.0
 40
1.0
 10
450.9339978967313
 20
777.2599738993208
 30
0.0
 10
432.64336982609
 20
798.8835813631285
 30
0.0
 10
358.4867778951208
 20
796.052093563179
 30
0.0
 10
322.1604399891019
 20
760.7507787799672
 30
0.0
  0
ARC
  5
165
330
1F
100
AcDbEntity
  8
0
  6
Continuous
 62
     7
370
    15
100
AcDbCircle
 10
432.1604399891
 20
760.75077878
 30
0.0
 40
25.00000000000006
100
AcDbArc
 50
251.688447369
 51
41.3279297079
  0
SPLINE
  5
166
330
1F
100
AcDbEntity
  8
0
  6
Continuous
 62
     7
370
    15
100
AcDbSpline
210
0.0
220
0.0
230
1.0
 70
     8
 71
     3
 72
     8
 73
     4
 74
     0
 42
0.000000001
 43
0.00000001
 40
0.0
 40
0.0
 40
0.0
 40
0.0
 40
1.0
 40
1.0
 40
1.0
 40
1.0
 10
322.1604399891019
 20
710.7507787799673
 30
0.0
 10
347.8471601496381
 20
734.9804916330365
 30
0.0
 10
383.2369757891782
 20
754.353424240096
 30
0.0
 10
424.305842898668
 20
737.0167250902381
 30
0.0
  0
SPLINE
  5
167
330
1F
100
AcDbEntity
  8
0
  6
Continuous
 62
     7
370
    15
100
AcDbSpline
210
0.0
220
0.0
230
1.0
 70
     8
 71
     3
 72
     8
 73
     4
 74
     0
 42
0.000000001
 43
0.00000001
 40
0.0
 40
0.0
 40
0.0
 40
0.0
 40
1.0
 40
1.0
 40
1.0
 40
1.0
 10
259.8304831212322
 20
749.5092029883323
 30
0.0
 10
268.0114739774702
 20
732.3506034649052
 30
0.0
 10
318.7973548783852
 20
705.4412488423569
 30
0.0
 10
322.1604399891019
 20
710.7507787799673
 30
0.0
  0
ARC
  5
168
330
1F
100
AcDbEntity
  8
0
  6
Continuous
 62
     7
370
    15
100
AcDbCircle
 10
282.1604399891
 20
760.75077878
 30
0.0
 40
25.00000000000003
100
AcDbArc
 50
24.1558463156
 51
206.7220664684
  0
SPLINE
  5
169
330
1F
100
AcDbEntity
  8
0
  6
Continuous
 62
     7
370
    15
100
AcDbSpline
210
0.0
220
0.0
230
1.0
 70
     8
 71
     3
 72
     8
 73
     4
 74
     0
 42
0.000000001
 43
0.00000001
 40
0.0
 40
0.0
 40
0.0
 40
0.0
 40
1.0
 40
1.0
 40
1.0
 40
1.0
 10
322.1604399891019
 20
760.7507787799672
 30
0.0
 10
318.0976926644564
 20
755.8111658880475
 30
0.0
 10
309.2519558281
 20
760.8466826730092
 30
0.0
 10
304.971333567344
 20
770.9812789711658
 30
0.0
  0
CIRCLE
  5
16A
330
1F
100
AcDbEntity
  8
0
  6
Continuous
 62
     7
370
    15
100
AcDbCircle
 10
402.4988210067
 20
768.25077878
 30
0.0
 40
1.5
  0
CIRCLE
  5
16B
330
1F
100
AcDbEntity
  8
0
  6
Continuous
 62
     7
370
    15
100
AcDbCircle
 10
282.1604399891
 20
760.75077878
 30
0.0
 40
1.5
  0
CIRCLE
  5
16C
330
1F
100
AcDbEntity
  8
0
  6
Continuous
 62
     7
370
    15
100
AcDbCircle
 10
424.6604399891
 20
760.75077878
 30
0.0
 40
1.5
  0
CIRCLE
  5
16D
330
1F
100
AcDbEntity
  8
0
  6
Continuous
 62
     7
370
    15
100
AcDbCircle
 10
432.1604399891
 20
768.25077878
 30
0.0
 40
1.5
  0
CIRCLE
  5
16E
330
1F
100
AcDbEntity
  8
0
  6
Continuous
 62
     7
370
    15
100
AcDbCircle
 10
129.6444944446
 20
404.3572330637
 30
0.0
 40
1.5
  0
CIRCLE
  5
16F
330
1F
100
AcDbEntity
  8
0
  6
Continuous
 62
     7
370
    15
100
AcDbCircle
 10
134.6444944446
 20
334.3572330637
 30
0.0
 40
1.5
  0
ARC
  5
170
330
1F
100
AcDbEntity
  8
0
  6
Continuous
 62
     7
370
    15
100
AcDbCircle
 10
170.11391148
 20
369.5981248681
 30
0.0
 40
24.99999999999999
100
AcDbArc
 50
173.1883843949
 51
224.814829183
  0
ARC
  5
171
330
1F
100
AcDbEntity
  8
0
  6
Continuous
 62
     7
370
    15
100
AcDbCircle
 10
134.6444944446
 20
334.3572330637
 30
0.0
 40
25.0
100
AcDbArc
 50
323.982951798
 51
44.814829183
  0
ARC
  5
172
330
1F
100
AcDbEntity
  8
0
  6
Continuous
 62
     7
370
    15
100
AcDbCircle
 10
185.3814293877
 20
293.7957865492
 30
0.0
 40
40.00000000000001
100
AcDbArc
 50
139.7202683199
 51
188.9754355044
  0
ARC
  5
173
330
1F
100
AcDbEntity
  8
0
  6
Continuous
 62
     7
370
    15
100
AcDbCircle
 10
139.6444944446
 20
284.3572330637
 30
0.0
 40
7.000000000000025
100
AcDbArc
 50
219.8923142325
 51
27.1855349488
  0
ARC
  5
174
330
1F
100
AcDbEntity
  8
0
  6
Continuous
 62
     7
370
    15
100
AcDbCircle
 10
275.6325029674
 20
382.6020176006
 30
0.0
 40
174.7473009526701
100
AcDbArc
 50
158.190761367
 51
216.0082378052
  0
LINE
  5
175
330
1F
100
AcDbEntity
  8
0
  6
Continuous
 62
     7
370
    15
100
AcDbLine
 10
117.6429605638
 20
444.8904109163
 30
0.0
 11
113.3925775592
 21
447.5237068696
 31
0.0
  0
LINE
  5
176
330
1F
100
AcDbEntity
  8
0
  6
Continuous
 62
     7
370
    15
100
AcDbLine
 10
118.9596085404
 20
447.0155996246
 30
0.0
 11
117.6429605638
 21
444.8904109163
 31
0.0
  0
LINE
  5
177
330
1F
100
AcDbEntity
  8
0
  6
Continuous
 62
     7
370
    15
100
AcDbLine
 10
123.2099915449
 20
444.382311122
 30
0.0
 11
118.9596085404
 21
447.0155996246
 31
0.0
  0
LINE
  5
178
330
1F
100
AcDbEntity
  8
0
  6
Continuous
 62
     7
370
    15
100
AcDbLine
 10
121.8933435683
 20
442.2571149631
 30
0.0
 11
123.2099915449
 21
444.382311122
 31
0.0
  0
LINE
  5
179
330
1F
100
AcDbEntity
  8
0
  6
Continuous
 62
     7
370
    15
100
AcDbLine
 10
130.3941109744
 20
436.9905305071
 30
0.0
 11
121.8933435683
 21
442.2571149631
 31
0.0
  0
LINE
  5
17A
330
1F
100
AcDbEntity
  8
0
  6
Continuous
 62
     7
370
    15
100
AcDbLine
 10
131.7107582525
 20
439.1157192154
 30
0.0
 11
130.3941109744
 21
436.9905305071
 31
0.0
  0
LINE
  5
17B
330
1F
100
AcDbEntity
  8
0
  6
Continuous
 62
     7
370
    15
100
AcDbLine
 10
140.2115254258
 20
433.8491273089
 30
0.0
 11
131.7107582525
 21
439.1157192154
 31
0.0
  0
LINE
  5
17C
330
1F
100
AcDbEntity
  8
0
  6
Continuous
 62
     7
370
    15
100
AcDbLine
 10
138.8948779148
 20
431.7239386006
 30
0.0
 11
140.2115254258
 21
433.8491273089
 31
0.0
  0
LINE
  5
17D
330
1F
100
AcDbEntity
  8
0
  6
Continuous
 62
     7
370
    15
100
AcDbLine
 10
147.3956453209
 20
426.457346694
 30
0.0
 11
138.8948779148
 21
431.7239386006
 31
0.0
  0
LINE
  5
17E
330
1F
100
AcDbEntity
  8
0
  6
Continuous
 62
     7
370
    15
100
AcDbLine
 10
148.7122923662
 20
428.5825428529
 30
0.0
 11
147.3956453209
 21
426.457346694
 31
0.0
  0
LINE
  5
17F
330
1F
100
AcDbEntity
  8
0
  6
Continuous
 62
     7
370
    15
100
AcDbLine
 10
152.9626763021
 20
425.9492468996
 30
0.0
 11
148.7122923662
 21
428.5825428529
 31
0.0
  0
LINE
  5
180
330
1F
100
AcDbEntity
  8
0
  6
Continuous
 62
     7
370
    15
100
AcDbLine
 10
151.6460283254
 20
423.8240581913
 30
0.0
 11
152.9626763021
 21
425.9492468996
 31
0.0
  0
LINE
  5
181
330
1F
100
AcDbEntity
  8
0
  6
Continuous
 62
     7
370
    15
100
AcDbLine
 10
155.89641133
 20
421.190762238
 30
0.0
 11
151.6460283254
 21
423.8240581913
 31
0.0
  0
ARC
  5
182
330
1F
100
AcDbEntity
  8
0
  6
Continuous
 62
     7
370
    15
100
AcDbCircle
 10
403.4551601262
 20
341.7258863432
 30
0.0
 40
260.0000000003411
100
AcDbArc
 50
162.2036811831
 51
173.1883843949
  0
CIRCLE
  5
183
330
1F
100
AcDbEntity
  8
0
  6
Continuous
 62
     7
370
    15
100
AcDbCircle
 10
139.6444944446
 20
284.3572330637
 30
0.0
 40
1.500000000000028
  0
CIRCLE
  5
184
330
1F
100
AcDbEntity
  8
0
  6
Continuous
 62
     7
370
    15
100
AcDbCircle
 10
129.6444944446
 20
364.3572330637
 30
0.0
 40
1.5
  0
CIRCLE
  5
185
330
1F
100
AcDbEntity
  8
0
  6
Continuous
 62
     7
370
    15
100
AcDbCircle
 10
58.4766566232
 20
424.3345549578
 30
0.0
 40
1.499999999999993
  0
CIRCLE
  5
186
330
1F
100
AcDbEntity
  8
0
  6
Continuous
 62
     7
370
    15
100
AcDbCircle
 10
63.4766566232
 20
354.3345549578
 30
0.0
 40
1.500000000000007
  0
ARC
  5
187
330
1F
100
AcDbEntity
  8
0
  6
Continuous
 62
     7
370
    15
100
AcDbCircle
 10
98.9460736586
 20
389.5754467622
 30
0.0
 40
24.99999999999999
100
AcDbArc
 50
173.1883843949
 51
224.814829183
  0
ARC
  5
188
330
1F
100
AcDbEntity
  8
0
  6
Continuous
 62
     7
370
    15
100
AcDbCircle
 10
63.4766566232
 20
354.3345549578
 30
0.0
 40
25.0
100
AcDbArc
 50
323.982951798
 51
44.814829183
  0
ARC
  5
189
330
1F
100
AcDbEntity
  8
0
  6
Continuous
 62
     7
370
    15
100
AcDbCircle
 10
114.2135915663
 20
313.7731084433
 30
0.0
 40
40.00000000000001
100
AcDbArc
 50
139.7202683199
 51
188.9754355044
  0
ARC
  5
18A
330
1F
100
AcDbEntity
  8
0
  6
Continuous
 62
     7
370
    15
100
AcDbCircle
 10
68.4766566232
 20
304.3345549578
 30
0.0
 40
7.000000000000029
100
AcDbArc
 50
219.8923142325
 51
27.1855349488
  0
ARC
  5
18B
330
1F
100
AcDbEntity
  8
0
  6
Continuous
 62
     7
370
    15
100
AcDbCircle
 10
204.464665146
 20
402.5793394947
 30
0.0
 40
174.7473009526701
100
AcDbArc
 50
158.190761367
 51
216.0082378052
  0
LINE
  5
18C
330
1F
100
AcDbEntity
  8
0
  6
Continuous
 62
     7
370
    15
100
AcDbLine
 10
46.4751227424
 20
464.8677328104
 30
0.0
 11
42.2247397379
 21
467.5010287637
 31
0.0
  0
LINE
  5
18D
330
1F
100
AcDbEntity
  8
0
  6
Continuous
 62
     7
370
    15
100
AcDbLine
 10
47.791770719
 20
466.9929215188
 30
0.0
 11
46.4751227424
 21
464.8677328104
 31
0.0
  0
LINE
  5
18E
330
1F
100
AcDbEntity
  8
0
  6
Continuous
 62
     7
370
    15
100
AcDbLine
 10
52.0421537236
 20
464.3596330161
 30
0.0
 11
47.791770719
 21
466.9929215188
 31
0.0
  0
LINE
  5
18F
330
1F
100
AcDbEntity
  8
0
  6
Continuous
 62
     7
370
    15
100
AcDbLine
 10
50.7255057469
 20
462.2344368572
 30
0.0
 11
52.0421537236
 21
464.3596330161
 31
0.0
  0
LINE
  5
190
330
1F
100
AcDbEntity
  8
0
  6
Continuous
 62
     7
370
    15
100
AcDbLine
 10
59.226273153
 20
456.9678524012
 30
0.0
 11
50.7255057469
 21
462.2344368572
 31
0.0
  0
LINE
  5
191
330
1F
100
AcDbEntity
  8
0
  6
Continuous
 62
     7
370
    15
100
AcDbLine
 10
60.5429204312
 20
459.0930411095
 30
0.0
 11
59.226273153
 21
456.9678524012
 31
0.0
  0
LINE
  5
192
330
1F
100
AcDbEntity
  8
0
  6
Continuous
 62
     7
370
    15
100
AcDbLine
 10
69.0436876044
 20
453.826449203
 30
0.0
 11
60.5429204312
 21
459.0930411095
 31
0.0
  0
LINE
  5
193
330
1F
100
AcDbEntity
  8
0
  6
Continuous
 62
     7
370
    15
100
AcDbLine
 10
67.7270400934
 20
451.7012604947
 30
0.0
 11
69.0436876044
 21
453.826449203
 31
0.0
  0
LINE
  5
194
330
1F
100
AcDbEntity
  8
0
  6
Continuous
 62
     7
370
    15
100
AcDbLine
 10
76.2278074995
 20
446.4346685881
 30
0.0
 11
67.7270400934
 21
451.7012604947
 31
0.0
  0
LINE
  5
195
330
1F
100
AcDbEntity
  8
0
  6
Continuous
 62
     7
370
    15
100
AcDbLine
 10
77.5444545448
 20
448.559864747
 30
0.0
 11
76.2278074995
 21
446.4346685881
 31
0.0
  0
LINE
  5
196
330
1F
100
AcDbEntity
  8
0
  6
Continuous
 62
     7
370
    15
100
AcDbLine
 10
81.7948384807
 20
445.9265687937
 30
0.0
 11
77.5444545448
 21
448.559864747
 31
0.0
  0
LINE
  5
197
330
1F
100
AcDbEntity
  8
0
  6
Continuous
 62
     7
370
    15
100
AcDbLine
 10
80.4781905041
 20
443.8013800854
 30
0.0
 11
81.7948384807
 21
445.9265687937
 31
0.0
  0
LINE
  5
198
330
1F
100
AcDbEntity
  8
0
  6
Continuous
 62
     7
370
    15
100
AcDbLine
 10
84.7285735086
 20
441.1680841321
 30
0.0
 11
80.4781905041
 21
443.8013800854
 31
0.0
  0
ARC
  5
199
330
1F
100
AcDbEntity
  8
0
  6
Continuous
 62
     7
370
    15
100
AcDbCircle
 10
332.2873223048
 20
361.7032082373
 30
0.0
 40
260.0000000003411
100
AcDbArc
 50
162.2036811831
 51
173.1883843949
  0
CIRCLE
  5
19A
330
1F
100
AcDbEntity
  8
0
  6
Continuous
 62
     7
370
    15
100
AcDbCircle
 10
68.4766566232
 20
304.3345549578
 30
0.0
 40
1.5
  0
CIRCLE
  5
19B
330
1F
100
AcDbEntity
  8
0
  6
Continuous
 62
     7
370
    15
100
AcDbCircle
 10
58.4766566232
 20
384.3345549578
 30
0.0
 40
1.499999999999993
  0
CIRCLE
  5
19C
330
1F
100
AcDbEntity
  8
0
  6
Continuous
 62
     7
370
    15
100
AcDbCircle
 10
133.3980187452
 20
743.6140964515
 30
0.0
 40
2.0
  0
CIRCLE
  5
19D
330
1F
100
AcDbEntity
  8
0
  6
Continuous
 62
     7
370
    15
100
AcDbCircle
 10
133.3980187452
 20
792.2440964515
 30
0.0
 40
2.0
  0
LINE
  5
19E
330
1F
100
AcDbEntity
  8
0
  6
Continuous
 62
     7
370
    15
100
AcDbLine
 10
129.8980187582
 20
794.0790958018
 30
0.0
 11
126.8980187321
 21
794.0790958018
 31
0.0
  0
LINE
  5
19F
330
1F
100
AcDbEntity
  8
0
  6
Continuous
 62
     7
370
    15
100
AcDbLine
 10
126.8980187321
 20
794.0790958018
 30
0.0
 11
126.8980187321
 21
791.0790971728
 31
0.0
  0
ARC
  5
1A0
330
1F
100
AcDbEntity
  8
0
  6
Continuous
 62
     7
370
    15
100
AcDbCircle
 10
123.8980187452
 20
791.0790964515
 30
0.0
 40
3.0
100
AcDbArc
 50
270.0
 51
0.0
  0
LINE
  5
1A1
330
1F
100
AcDbEntity
  8
0
  6
Continuous
 62
     7
370
    15
100
AcDbLine
 10
123.8980189389
 20
788.079096681
 30
0.0
 11
118.648018544
 21
788.079096681
 31
0.0
  0
LINE
  5
1A2
330
1F
100
AcDbEntity
  8
0
  6
Continuous
 62
     7
370
    15
100
AcDbLine
 10
118.648018544
 20
788.079096681
 30
0.0
 11
118.648018544
 21
747.7790962221
 31
0.0
  0
LINE
  5
1A3
330
1F
100
AcDbEntity
  8
0
  6
Continuous
 62
     7
370
    15
100
AcDbLine
 10
118.648018544
 20
747.7790962221
 30
0.0
 11
123.8980189389
 21
747.7790962221
 31
0.0
  0
ARC
  5
1A4
330
1F
100
AcDbEntity
  8
0
  6
Continuous
 62
     7
370
    15
100
AcDbCircle
 10
123.8980187452
 20
744.7790964515
 30
0.0
 40
3.0
100
AcDbArc
 50
0.0
 51
90.0
  0
LINE
  5
1A5
330
1F
100
AcDbEntity
  8
0
  6
Continuous
 62
     7
370
    15
100
AcDbLine
 10
126.8980187321
 20
744.7790957303
 30
0.0
 11
126.8980187321
 21
741.7790971012
 31
0.0
  0
LINE
  5
1A6
330
1F
100
AcDbEntity
  8
0
  6
Continuous
 62
     7
370
    15
100
AcDbLine
 10
126.8980187321
 20
741.7790971012
 30
0.0
 11
129.8980187582
 21
741.7790971012
 31
0.0
  0
LINE
  5
1A7
330
1F
100
AcDbEntity
  8
0
  6
Continuous
 62
     7
370
    15
100
AcDbLine
 10
129.8980187582
 20
741.7790971012
 30
0.0
 11
129.8980187582
 21
744.7790957303
 31
0.0
  0
ARC
  5
1A8
330
1F
100
AcDbEntity
  8
0
  6
Continuous
 62
     7
370
    15
100
AcDbCircle
 10
132.8980187452
 20
744.7790964515
 30
0.0
 40
3.0
100
AcDbArc
 50
90.0
 51
180.0
  0
LINE
  5
1A9
330
1F
100
AcDbEntity
  8
0
  6
Continuous
 62
     7
370
    15
100
AcDbLine
 10
132.8980185515
 20
747.7790962221
 30
0.0
 11
138.1480189463
 21
747.7790962221
 31
0.0
  0
LINE
  5
1AA
330
1F
100
AcDbEntity
  8
0
  6
Continuous
 62
     7
370
    15
100
AcDbLine
 10
138.1480189463
 20
747.7790962221
 30
0.0
 11
138.1480189463
 21
788.079096681
 31
0.0
  0
LINE
  5
1AB
330
1F
100
AcDbEntity
  8
0
  6
Continuous
 62
     7
370
    15
100
AcDbLine
 10
138.1480189463
 20
788.079096681
 30
0.0
 11
132.8980185515
 21
788.079096681
 31
0.0
  0
ARC
  5
1AC
330
1F
100
AcDbEntity
  8
0
  6
Continuous
 62
     7
370
    15
100
AcDbCircle
 10
132.8980187452
 20
791.0790964515
 30
0.0
 40
3.0
100
AcDbArc
 50
180.0
 51
270.0
  0
LINE
  5
1AD
330
1F
100
AcDbEntity
  8
0
  6
Continuous
 62
     7
370
    15
100
AcDbLine
 10
129.8980187582
 20
791.0790971728
 30
0.0
 11
129.8980187582
 21
794.0790958018
 31
0.0
  0
LINE
  5
1AE
330
1F
100
AcDbEntity
  8
0
  6
Continuous
 62
     7
370
    15
100
AcDbLine
 10
145.8980188197
 20
788.079096681
 30
0.0
 11
143.3980184099
 21
788.079096681
 31
0.0
  0
LINE
  5
1AF
330
1F
100
AcDbEntity
  8
0
  6
Continuous
 62
     7
370
    15
100
AcDbLine
 10
145.8980188197
 20
783.0790967928
 30
0.0
 11
145.8980188197
 21
788.079096681
 31
0.0
  0
LINE
  5
1B0
330
1F
100
AcDbEntity
  8
0
  6
Continuous
 62
     7
370
    15
100
AcDbLine
 10
143.3980184099
 20
783.0790967928
 30
0.0
 11
145.8980188197
 21
783.0790967928
 31
0.0
  0
LINE
  5
1B1
330
1F
100
AcDbEntity
  8
0
  6
Continuous
 62
     7
370
    15
100
AcDbLine
 10
143.3980184099
 20
778.0790969045
 30
0.0
 11
143.3980184099
 21
783.0790967928
 31
0.0
  0
LINE
  5
1B2
330
1F
100
AcDbEntity
  8
0
  6
Continuous
 62
     7
370
    15
100
AcDbLine
 10
145.8980188197
 20
778.0790969045
 30
0.0
 11
143.3980184099
 21
778.0790969045
 31
0.0
  0
LINE
  5
1B3
330
1F
100
AcDbEntity
  8
0
  6
Continuous
 62
     7
370
    15
100
AcDbLine
 10
145.8980188197
 20
768.0790964587
 30
0.0
 11
145.8980188197
 21
778.0790969045
 31
0.0
  0
LINE
  5
1B4
330
1F
100
AcDbEntity
  8
0
  6
Continuous
 62
     7
370
    15
100
AcDbLine
 10
143.3980184099
 20
768.0790964587
 30
0.0
 11
145.8980188197
 21
768.0790964587
 31
0.0
  0
LINE
  5
1B5
330
1F
100
AcDbEntity
  8
0
  6
Continuous
 62
     7
370
    15
100
AcDbLine
 10
143.3980184099
 20
758.0790964202
 30
0.0
 11
143.3980184099
 21
768.0790964587
 31
0.0
  0
LINE
  5
1B6
330
1F
100
AcDbEntity
  8
0
  6
Continuous
 62
     7
370
    15
100
AcDbLine
 10
145.8980188197
 20
758.0790964202
 30
0.0
 11
143.3980184099
 21
758.0790964202
 31
0.0
  0
LINE
  5
1B7
330
1F
100
AcDbEntity
  8
0
  6
Continuous
 62
     7
370
    15
100
AcDbLine
 10
145.8980188197
 20
748.0790957124
 30
0.0
 11
145.8980188197
 21
758.0790964202
 31
0.0
  0
LINE
  5
1B8
330
1F
100
AcDbEntity
  8
0
  6
Continuous
 62
     7
370
    15
100
AcDbLine
 10
143.3980184099
 20
748.0790957124
 30
0.0
 11
145.8980188197
 21
748.0790957124
 31
0.0
  0
LINE
  5
1B9
330
1F
100
AcDbEntity
  8
0
  6
Continuous
 62
     7
370
    15
100
AcDbLine
 10
143.3980184099
 20
743.0790967555
 30
0.0
 11
143.3980184099
 21
748.0790957124
 31
0.0
  0
LINE
  5
1BA
330
1F
100
AcDbEntity
  8
0
  6
Continuous
 62
     7
370
    15
100
AcDbLine
 10
145.8980188197
 20
743.0790967555
 30
0.0
 11
143.3980184099
 21
743.0790967555
 31
0.0
  0
LINE
  5
1BB
330
1F
100
AcDbEntity
  8
0
  6
Continuous
 62
     7
370
    15
100
AcDbLine
 10
145.8980188197
 20
738.079095936
 30
0.0
 11
145.8980188197
 21
743.0790967555
 31
0.0
  0
LINE
  5
1BC
330
1F
100
AcDbEntity
  8
0
  6
Continuous
 62
     7
370
    15
100
AcDbLine
 10
110.8980186707
 20
738.079095936
 30
0.0
 11
145.8980188197
 21
738.079095936
 31
0.0
  0
LINE
  5
1BD
330
1F
100
AcDbEntity
  8
0
  6
Continuous
 62
     7
370
    15
100
AcDbLine
 10
110.8980186707
 20
743.0790967555
 30
0.0
 11
110.8980186707
 21
738.079095936
 31
0.0
  0
LINE
  5
1BE
330
1F
100
AcDbEntity
  8
0
  6
Continuous
 62
     7
370
    15
100
AcDbLine
 10
113.3980190805
 20
743.0790967555
 30
0.0
 11
110.8980186707
 21
743.0790967555
 31
0.0
  0
LINE
  5
1BF
330
1F
100
AcDbEntity
  8
0
  6
Continuous
 62
     7
370
    15
100
AcDbLine
 10
113.3980190805
 20
748.0790957124
 30
0.0
 11
113.3980190805
 21
743.0790967555
 31
0.0
  0
LINE
  5
1C0
330
1F
100
AcDbEntity
  8
0
  6
Continuous
 62
     7
370
    15
100
AcDbLine
 10
110.8980186707
 20
748.0790957124
 30
0.0
 11
113.3980190805
 21
748.0790957124
 31
0.0
  0
LINE
  5
1C1
330
1F
100
AcDbEntity
  8
0
  6
Continuous
 62
     7
370
    15
100
AcDbLine
 10
110.8980186707
 20
758.0790964202
 30
0.0
 11
110.8980186707
 21
748.0790957124
 31
0.0
  0
LINE
  5
1C2
330
1F
100
AcDbEntity
  8
0
  6
Continuous
 62
     7
370
    15
100
AcDbLine
 10
113.3980190805
 20
758.0790964202
 30
0.0
 11
110.8980186707
 21
758.0790964202
 31
0.0
  0
LINE
  5
1C3
330
1F
100
AcDbEntity
  8
0
  6
Continuous
 62
     7
370
    15
100
AcDbLine
 10
113.3980190805
 20
768.0790964587
 30
0.0
 11
113.3980190805
 21
758.0790964202
 31
0.0
  0
LINE
  5
1C4
330
1F
100
AcDbEntity
  8
0
  6
Continuous
 62
     7
370
    15
100
AcDbLine
 10
110.8980186707
 20
768.0790964587
 30
0.0
 11
113.3980190805
 21
768.0790964587
 31
0.0
  0
LINE
  5
1C5
330
1F
100
AcDbEntity
  8
0
  6
Continuous
 62
     7
370
    15
100
AcDbLine
 10
110.8980186707
 20
778.0790969045
 30
0.0
 11
110.8980186707
 21
768.0790964587
 31
0.0
  0
LINE
  5
1C6
330
1F
100
AcDbEntity
  8
0
  6
Continuous
 62
     7
370
    15
100
AcDbLine
 10
113.3980190805
 20
778.0790969045
 30
0.0
 11
110.8980186707
 21
778.0790969045
 31
0.0
  0
LINE
  5
1C7
330
1F
100
AcDbEntity
  8
0
  6
Continuous
 62
     7
370
    15
100
AcDbLine
 10
113.3980190805
 20
783.0790967928
 30
0.0
 11
113.3980190805
 21
778.0790969045
 31
0.0
  0
LINE
  5
1C8
330
1F
100
AcDbEntity
  8
0
  6
Continuous
 62
     7
370
    15
100
AcDbLine
 10
110.8980186707
 20
783.0790967928
 30
0.0
 11
113.3980190805
 21
783.0790967928
 31
0.0
  0
LINE
  5
1C9
330
1F
100
AcDbEntity
  8
0
  6
Continuous
 62
     7
370
    15
100
AcDbLine
 10
110.8980186707
 20
788.079096681
 30
0.0
 11
110.8980186707
 21
783.0790967928
 31
0.0
  0
LINE
  5
1CA
330
1F
100
AcDbEntity
  8
0
  6
Continuous
 62
     7
370
    15
100
AcDbLine
 10
113.3980190805
 20
788.079096681
 30
0.0
 11
110.8980186707
 21
788.079096681
 31
0.0
  0
ARC
  5
1CB
330
1F
100
AcDbEntity
  8
0
  6
Continuous
 62
     7
370
    15
100
AcDbCircle
 10
128.3980187452
 20
788.0790964515
 30
0.0
 40
15.0
100
AcDbArc
 50
0.0
 51
180.0
  0
CIRCLE
  5
1CC
330
1F
100
AcDbEntity
  8
0
  6
Continuous
 62
     7
370
    15
100
AcDbCircle
 10
123.3980187452
 20
792.2440964515
 30
0.0
 40
2.0
  0
CIRCLE
  5
1CD
330
1F
100
AcDbEntity
  8
0
  6
Continuous
 62
     7
370
    15
100
AcDbCircle
 10
123.3980187452
 20
743.6140964515
 30
0.0
 40
2.0
  0
CIRCLE
  5
1CE
330
1F
100
AcDbEntity
  8
0
  6
Continuous
 62
     7
370
    15
100
AcDbCircle
 10
233.812943679
 20
618.8205130165
 30
0.0
 40
1.5
  0
CIRCLE
  5
1CF
330
1F
100
AcDbEntity
  8
0
  6
Continuous
 62
     7
370
    15
100
AcDbCircle
 10
248.812943679
 20
618.8205130165
 30
0.0
 40
1.500000000000028
  0
CIRCLE
  5
1D0
330
1F
100
AcDbEntity
  8
0
  6
Continuous
 62
     7
370
    15
100
AcDbCircle
 10
241.312943679
 20
618.8205130165
 30
0.0
 40
2.5
  0
CIRCLE
  5
1D1
330
1F
100
AcDbEntity
  8
0
  6
Continuous
 62
     7
370
    15
100
AcDbCircle
 10
241.312943679
 20
618.8205130165
 30
0.0
 40
25.00000000000006
  0
CIRCLE
  5
1D2
330
1F
100
AcDbEntity
  8
0
  6
Continuous
 62
     7
370
    15
100
AcDbCircle
 10
241.312943679
 20
626.3205130165
 30
0.0
 40
1.5
  0
CIRCLE
  5
1D3
330
1F
100
AcDbEntity
  8
0
  6
Continuous
 62
     7
370
    15
100
AcDbCircle
 10
241.312943679
 20
611.3205130165
 30
0.0
 40
1.5
  0
CIRCLE
  5
1D4
330
1F
100
AcDbEntity
  8
0
  6
Continuous
 62
     7
370
    15
100
AcDbCircle
 10
324.8669021285
 20
598.9783719865
 30
0.0
 40
1.5
  0
CIRCLE
  5
1D5
330
1F
100
AcDbEntity
  8
0
  6
Continuous
 62
     7
370
    15
100
AcDbCircle
 10
324.8669021285
 20
613.9783719865
 30
0.0
 40
1.5
  0
CIRCLE
  5
1D6
330
1F
100
AcDbEntity
  8
0
  6
Continuous
 62
     7
370
    15
100
AcDbCircle
 10
319.8669021285
 20
556.4783719865
 30
0.0
 40
1.5
  0
ARC
  5
1D7
330
1F
100
AcDbEntity
  8
0
  6
Continuous
 62
     7
370
    15
100
AcDbCircle
 10
324.8669021285
 20
606.4783719865
 30
0.0
 40
25.00000000000008
100
AcDbArc
 50
12.2643167257
 51
230.9520197151
  0
ARC
  5
1D8
330
1F
100
AcDbEntity
  8
0
  6
Continuous
 62
     7
370
    15
100
AcDbCircle
 10
288.069516811
 20
603.9829559647
 30
0.0
 40
61.72243180924774
100
AcDbArc
 50
305.7789798608
 51
7.2655854077
  0
ARC
  5
1D9
330
1F
100
AcDbEntity
  8
0
  6
Continuous
 62
     7
370
    15
100
AcDbCircle
 10
319.8669021285
 20
556.4783719865
 30
0.0
 40
5.000000000000041
100
AcDbArc
 50
150.1885101698
 51
329.0761787391
  0
ARC
  5
1DA
330
1F
100
AcDbEntity
  8
0
  6
Continuous
 62
     7
370
    15
100
AcDbCircle
 10
285.6354533841
 20
566.9245263297
 30
0.0
 40
30.93488022461613
100
AcDbArc
 50
345.0884190289
 51
40.616482419
  0
CIRCLE
  5
1DB
330
1F
100
AcDbEntity
  8
0
  6
Continuous
 62
     7
370
    15
100
AcDbCircle
 10
324.8669021285
 20
606.4783719865
 30
0.0
 40
3.5
  0
CIRCLE
  5
1DC
330
1F
100
AcDbEntity
  8
0
  6
Continuous
 62
     7
370
    15
100
AcDbCircle
 10
317.3669021285
 20
606.4783719865
 30
0.0
 40
1.500000000000057
  0
CIRCLE
  5
1DD
330
1F
100
AcDbEntity
  8
0
  6
Continuous
 62
     7
370
    15
100
AcDbCircle
 10
332.3669021285
 20
606.4783719865
 30
0.0
 40
1.5
  0
CIRCLE
  5
1DE
330
1F
100
AcDbEntity
  8
0
  6
Continuous
 62
     7
370
    15
100
AcDbCircle
 10
322.2872163934
 20
400.5063084808
 30
0.0
 40
0.5
  0
CIRCLE
  5
1DF
330
1F
100
AcDbEntity
  8
0
  6
Continuous
 62
     7
370
    15
100
AcDbCircle
 10
326.7872163934
 20
400.5063084808
 30
0.0
 40
1.5
  0
CIRCLE
  5
1E0
330
1F
100
AcDbEntity
  8
0
  6
Continuous
 62
     7
370
    15
100
AcDbCircle
 10
326.2872163934
 20
420.5063084808
 30
0.0
 40
1.5
  0
ARC
  5
1E1
330
1F
100
AcDbEntity
  8
0
  6
Continuous
 62
     7
370
    15
100
AcDbCircle
 10
311.2872163934
 20
405.5063084808
 30
0.0
 40
20.00000000000006
100
AcDbArc
 50
90.0
 51
180.0
  0
LINE
  5
1E2
330
1F
100
AcDbEntity
  8
0
  6
Continuous
 62
     7
370
    15
100
AcDbLine
 10
321.2872162817
 20
425.5063081456
 30
0.0
 11
311.2872165052
 21
425.5063081456
 31
0.0
  0
ARC
  5
1E3
330
1F
100
AcDbEntity
  8
0
  6
Continuous
 62
     7
370
    15
100
AcDbCircle
 10
321.2872163934
 20
405.5063084808
 30
0.0
 40
20.00000000000006
100
AcDbArc
 50
0.0
 51
90.0
  0
LINE
  5
1E4
330
1F
100
AcDbEntity
  8
0
  6
Continuous
 62
     7
370
    15
100
AcDbLine
 10
341.287216766
 20
383.0063086299
 30
0.0
 11
341.287216766
 21
405.5063085926
 31
0.0
  0
LINE
  5
1E5
330
1F
100
AcDbEntity
  8
0
  6
Continuous
 62
     7
370
    15
100
AcDbLine
 10
331.2872160582
 20
383.0063086299
 30
0.0
 11
341.287216766
 21
383.0063086299
 31
0.0
  0
LINE
  5
1E6
330
1F
100
AcDbEntity
  8
0
  6
Continuous
 62
     7
370
    15
100
AcDbLine
 10
331.2872160582
 20
380.5063091514
 30
0.0
 11
331.2872160582
 21
383.0063086299
 31
0.0
  0
LINE
  5
1E7
330
1F
100
AcDbEntity
  8
0
  6
Continuous
 62
     7
370
    15
100
AcDbLine
 10
321.2872162817
 20
380.5063091514
 30
0.0
 11
331.2872160582
 21
380.5063091514
 31
0.0
  0
LINE
  5
1E8
330
1F
100
AcDbEntity
  8
0
  6
Continuous
 62
     7
370
    15
100
AcDbLine
 10
321.2872162817
 20
383.0063086299
 30
0.0
 11
321.2872162817
 21
380.5063091514
 31
0.0
  0
LINE
  5
1E9
330
1F
100
AcDbEntity
  8
0
  6
Continuous
 62
     7
370
    15
100
AcDbLine
 10
311.2872165052
 20
383.0063086299
 30
0.0
 11
321.2872162817
 21
383.0063086299
 31
0.0
  0
LINE
  5
1EA
330
1F
100
AcDbEntity
  8
0
  6
Continuous
 62
     7
370
    15
100
AcDbLine
 10
311.2872165052
 20
380.5063091514
 30
0.0
 11
311.2872165052
 21
383.0063086299
 31
0.0
  0
LINE
  5
1EB
330
1F
100
AcDbEntity
  8
0
  6
Continuous
 62
     7
370
    15
100
AcDbLine
 10
301.2872167287
 20
380.5063091514
 30
0.0
 11
311.2872165052
 21
380.5063091514
 31
0.0
  0
LINE
  5
1EC
330
1F
100
AcDbEntity
  8
0
  6
Continuous
 62
     7
370
    15
100
AcDbLine
 10
301.2872167287
 20
383.0063086299
 30
0.0
 11
301.2872167287
 21
380.5063091514
 31
0.0
  0
LINE
  5
1ED
330
1F
100
AcDbEntity
  8
0
  6
Continuous
 62
     7
370
    15
100
AcDbLine
 10
291.2872160209
 20
383.0063086299
 30
0.0
 11
301.2872167287
 21
383.0063086299
 31
0.0
  0
LINE
  5
1EE
330
1F
100
AcDbEntity
  8
0
  6
Continuous
 62
     7
370
    15
100
AcDbLine
 10
291.2872160209
 20
405.5063085926
 30
0.0
 11
291.2872160209
 21
383.0063086299
 31
0.0
  0
CIRCLE
  5
1EF
330
1F
100
AcDbEntity
  8
0
  6
Continuous
 62
     7
370
    15
100
AcDbCircle
 10
306.2872163934
 20
420.5063084808
 30
0.0
 40
1.5
  0
CIRCLE
  5
1F0
330
1F
100
AcDbEntity
  8
0
  6
Continuous
 62
     7
370
    15
100
AcDbCircle
 10
305.7872163934
 20
400.5063084808
 30
0.0
 40
1.5
  0
CIRCLE
  5
1F1
330
1F
100
AcDbEntity
  8
0
  6
Continuous
 62
     7
370
    15
100
AcDbCircle
 10
331.2872163934
 20
400.5063084808
 30
0.0
 40
0.5
  0
CIRCLE
  5
1F2
330
1F
100
AcDbEntity
  8
0
  6
Continuous
 62
     7
370
    15
100
AcDbCircle
 10
388.5935188465
 20
396.2635908824
 30
0.0
 40
0.5
  0
CIRCLE
  5
1F3
330
1F
100
AcDbEntity
  8
0
  6
Continuous
 62
     7
370
    15
100
AcDbCircle
 10
393.0935188465
 20
396.2635908824
 30
0.0
 40
1.5
  0
CIRCLE
  5
1F4
330
1F
100
AcDbEntity
  8
0
  6
Continuous
 62
     7
370
    15
100
AcDbCircle
 10
392.5935188465
 20
416.2635908824
 30
0.0
 40
1.5
  0
ARC
  5
1F5
330
1F
100
AcDbEntity
  8
0
  6
Continuous
 62
     7
370
    15
100
AcDbCircle
 10
377.5935188465
 20
401.2635908824
 30
0.0
 40
20.0
100
AcDbArc
 50
90.0
 51
180.0
  0
LINE
  5
1F6
330
1F
100
AcDbEntity
  8
0
  6
Continuous
 62
     7
370
    15
100
AcDbLine
 10
387.5935187348
 20
421.2635905471
 30
0.0
 11
377.5935189583
 21
421.2635905471
 31
0.0
  0
ARC
  5
1F7
330
1F
100
AcDbEntity
  8
0
  6
Continuous
 62
     7
370
    15
100
AcDbCircle
 10
387.5935188465
 20
401.2635908824
 30
0.0
 40
20.0
100
AcDbArc
 50
0.0
 51
90.0
  0
LINE
  5
1F8
330
1F
100
AcDbEntity
  8
0
  6
Continuous
 62
     7
370
    15
100
AcDbLine
 10
407.593519219
 20
378.7635910314
 30
0.0
 11
407.593519219
 21
401.2635909941
 31
0.0
  0
LINE
  5
1F9
330
1F
100
AcDbEntity
  8
0
  6
Continuous
 62
     7
370
    15
100
AcDbLine
 10
397.5935185112
 20
378.7635910314
 30
0.0
 11
407.593519219
 21
378.7635910314
 31
0.0
  0
LINE
  5
1FA
330
1F
100
AcDbEntity
  8
0
  6
Continuous
 62
     7
370
    15
100
AcDbLine
 10
397.5935185112
 20
376.2635915529
 30
0.0
 11
397.5935185112
 21
378.7635910314
 31
0.0
  0
LINE
  5
1FB
330
1F
100
AcDbEntity
  8
0
  6
Continuous
 62
     7
370
    15
100
AcDbLine
 10
387.5935187348
 20
376.2635915529
 30
0.0
 11
397.5935185112
 21
376.2635915529
 31
0.0
  0
LINE
  5
1FC
330
1F
100
AcDbEntity
  8
0
  6
Continuous
 62
     7
370
    15
100
AcDbLine
 10
387.5935187348
 20
378.7635910314
 30
0.0
 11
387.5935187348
 21
376.2635915529
 31
0.0
  0
LINE
  5
1FD
330
1F
100
AcDbEntity
  8
0
  6
Continuous
 62
     7
370
    15
100
AcDbLine
 10
377.5935189583
 20
378.7635910314
 30
0.0
 11
387.5935187348
 21
378.7635910314
 31
0.0
  0
LINE
  5
1FE
330
1F
100
AcDbEntity
  8
0
  6
Continuous
 62
     7
370
    15
100
AcDbLine
 10
377.5935189583
 20
376.2635915529
 30
0.0
 11
377.5935189583
 21
378.7635910314
 31
0.0
  0
LINE
  5
1FF
330
1F
100
AcDbEntity
  8
0
  6
Continuous
 62
     7
370
    15
100
AcDbLine
 10
367.5935191818
 20
376.2635915529
 30
0.0
 11
377.5935189583
 21
376.2635915529
 31
0.0
  0
LINE
  5
200
330
1F
100
AcDbEntity
  8
0
  6
Continuous
 62
     7
370
    15
100
AcDbLine
 10
367.5935191818
 20
378.7635910314
 30
0.0
 11
367.5935191818
 21
376.2635915529
 31
0.0
  0
LINE
  5
201
330
1F
100
AcDbEntity
  8
0
  6
Continuous
 62
     7
370
    15
100
AcDbLine
 10
357.593518474
 20
378.7635910314
 30
0.0
 11
367.5935191818
 21
378.7635910314
 31
0.0
  0
LINE
  5
202
330
1F
100
AcDbEntity
  8
0
  6
Continuous
 62
     7
370
    15
100
AcDbLine
 10
357.593518474
 20
401.2635909941
 30
0.0
 11
357.593518474
 21
378.7635910314
 31
0.0
  0
CIRCLE
  5
203
330
1F
100
AcDbEntity
  8
0
  6
Continuous
 62
     7
370
    15
100
AcDbCircle
 10
372.5935188465
 20
416.2635908824
 30
0.0
 40
1.5
  0
CIRCLE
  5
204
330
1F
100
AcDbEntity
  8
0
  6
Continuous
 62
     7
370
    15
100
AcDbCircle
 10
372.0935188465
 20
396.2635908824
 30
0.0
 40
1.5
  0
CIRCLE
  5
205
330
1F
100
AcDbEntity
  8
0
  6
Continuous
 62
     7
370
    15
100
AcDbCircle
 10
397.5935188465
 20
396.2635908824
 30
0.0
 40
0.5
  0
CIRCLE
  5
206
330
1F
100
AcDbEntity
  8
0
  6
Continuous
 62
     7
370
    15
100
AcDbCircle
 10
466.9574845106
 20
416.1811224615
 30
0.0
 40
1.5
  0
LINE
  5
207
330
1F
100
AcDbEntity
  8
0
  6
Continuous
 62
     7
370
    15
100
AcDbLine
 10
461.9574846223
 20
422.2618479525
 30
0.0
 11
461.9574846223
 21
386.1811224615
 31
0.0
  0
LINE
  5
208
330
1F
100
AcDbEntity
  8
0
  6
Continuous
 62
     7
370
    15
100
AcDbLine
 10
464.0717607912
 20
425.6125342344
 30
0.0
 11
461.9574846223
 21
422.2618479525
 31
0.0
  0
LINE
  5
209
330
1F
100
AcDbEntity
  8
0
  6
Continuous
 62
     7
370
    15
100
AcDbLine
 10
461.9574846223
 20
426.9466389214
 30
0.0
 11
464.0717607912
 21
425.6125342344
 31
0.0
  0
LINE
  5
20A
330
1F
100
AcDbEntity
  8
0
  6
Continuous
 62
     7
370
    15
100
AcDbLine
 10
469.8432082299
 20
439.4438553845
 30
0.0
 11
461.9574846223
 21
426.9466389214
 31
0.0
  0
LINE
  5
20B
330
1F
100
AcDbEntity
  8
0
  6
Continuous
 62
     7
370
    15
100
AcDbLine
 10
471.9574843988
 20
438.1097506975
 30
0.0
 11
469.8432082299
 21
439.4438553845
 31
0.0
  0
LINE
  5
20C
330
1F
100
AcDbEntity
  8
0
  6
Continuous
 62
     7
370
    15
100
AcDbLine
 10
471.9574843988
 20
386.1811224615
 30
0.0
 11
471.9574843988
 21
438.1097506975
 31
0.0
  0
ARC
  5
20D
330
1F
100
AcDbEntity
  8
0
  6
Continuous
 62
     7
370
    15
100
AcDbCircle
 10
466.9574845106
 20
386.1811224615
 30
0.0
 40
5.0
100
AcDbArc
 50
180.0
 51
0.0
  0
CIRCLE
  5
20E
330
1F
100
AcDbEntity
  8
0
  6
Continuous
 62
     7
370
    15
100
AcDbCircle
 10
466.9574845106
 20
386.1811224615
 30
0.0
 40
1.5
  0
CIRCLE
  5
20F
330
1F
100
AcDbEntity
  8
0
  6
Continuous
 62
     7
370
    15
100
AcDbCircle
 10
441.5514406503
 20
413.8331213132
 30
0.0
 40
1.5
  0
LINE
  5
210
330
1F
100
AcDbEntity
  8
0
  6
Continuous
 62
     7
370
    15
100
AcDbLine
 10
436.551440762
 20
419.9138468042
 30
0.0
 11
436.551440762
 21
383.8331213132
 31
0.0
  0
LINE
  5
211
330
1F
100
AcDbEntity
  8
0
  6
Continuous
 62
     7
370
    15
100
AcDbLine
 10
438.6657169309
 20
423.2645330861
 30
0.0
 11
436.551440762
 21
419.9138468042
 31
0.0
  0
LINE
  5
212
330
1F
100
AcDbEntity
  8
0
  6
Continuous
 62
     7
370
    15
100
AcDbLine
 10
436.551440762
 20
424.5986377731
 30
0.0
 11
438.6657169309
 21
423.2645330861
 31
0.0
  0
LINE
  5
213
330
1F
100
AcDbEntity
  8
0
  6
Continuous
 62
     7
370
    15
100
AcDbLine
 10
444.4371643697
 20
437.0958542362
 30
0.0
 11
436.551440762
 21
424.5986377731
 31
0.0
  0
LINE
  5
214
330
1F
100
AcDbEntity
  8
0
  6
Continuous
 62
     7
370
    15
100
AcDbLine
 10
446.5514405385
 20
435.7617495492
 30
0.0
 11
444.4371643697
 21
437.0958542362
 31
0.0
  0
LINE
  5
215
330
1F
100
AcDbEntity
  8
0
  6
Continuous
 62
     7
370
    15
100
AcDbLine
 10
446.5514405385
 20
383.8331213132
 30
0.0
 11
446.5514405385
 21
435.7617495492
 31
0.0
  0
ARC
  5
216
330
1F
100
AcDbEntity
  8
0
  6
Continuous
 62
     7
370
    15
100
AcDbCircle
 10
441.5514406503
 20
383.8331213132
 30
0.0
 40
5.0
100
AcDbArc
 50
180.0
 51
0.0
  0
CIRCLE
  5
217
330
1F
100
AcDbEntity
  8
0
  6
Continuous
 62
     7
370
    15
100
AcDbCircle
 10
441.5514406503
 20
383.8331213132
 30
0.0
 40
1.5
  0
CIRCLE
  5
218
330
1F
100
AcDbEntity
  8
0
  6
Continuous
 62
     7
370
    15
100
AcDbCircle
 10
318.6764493616
 20
330.4503814771
 30
0.0
 40
1.5
  0
LINE
  5
219
330
1F
100
AcDbEntity
  8
0
  6
Continuous
 62
     7
370
    15
100
AcDbLine
 10
323.6764492498
 20
305.4503814771
 30
0.0
 11
323.6764492498
 21
330.4503818496
 31
0.0
  0
ARC
  5
21A
330
1F
100
AcDbEntity
  8
0
  6
Continuous
 62
     7
370
    15
100
AcDbCircle
 10
318.6764493616
 20
305.4503814771
 30
0.0
 40
5.0
100
AcDbArc
 50
180.0
 51
0.0
  0
LINE
  5
21B
330
1F
100
AcDbEntity
  8
0
  6
Continuous
 62
     7
370
    15
100
AcDbLine
 10
313.6764494733
 20
330.4503818496
 30
0.0
 11
313.6764494733
 21
305.4503814771
 31
0.0
  0
ARC
  5
21C
330
1F
100
AcDbEntity
  8
0
  6
Continuous
 62
     7
370
    15
100
AcDbCircle
 10
318.6764493616
 20
330.4503814771
 30
0.0
 40
5.0
100
AcDbArc
 50
0.0
 51
180.0
  0
CIRCLE
  5
21D
330
1F
100
AcDbEntity
  8
0
  6
Continuous
 62
     7
370
    15
100
AcDbCircle
 10
318.6764493616
 20
305.4503814771
 30
0.0
 40
1.5
  0
CIRCLE
  5
21E
330
1F
100
AcDbEntity
  8
0
  6
Continuous
 62
     7
370
    15
100
AcDbCircle
 10
348.8172445422
 20
328.4441885252
 30
0.0
 40
1.5
  0
LINE
  5
21F
330
1F
100
AcDbEntity
  8
0
  6
Continuous
 62
     7
370
    15
100
AcDbLine
 10
353.8172444304
 20
303.4441885252
 30
0.0
 11
353.8172444304
 21
328.4441888977
 31
0.0
  0
ARC
  5
220
330
1F
100
AcDbEntity
  8
0
  6
Continuous
 62
     7
370
    15
100
AcDbCircle
 10
348.8172445422
 20
303.4441885252
 30
0.0
 40
5.0
100
AcDbArc
 50
180.0
 51
0.0
  0
LINE
  5
221
330
1F
100
AcDbEntity
  8
0
  6
Continuous
 62
     7
370
    15
100
AcDbLine
 10
343.8172446539
 20
328.4441888977
 30
0.0
 11
343.8172446539
 21
303.4441885252
 31
0.0
  0
ARC
  5
222
330
1F
100
AcDbEntity
  8
0
  6
Continuous
 62
     7
370
    15
100
AcDbCircle
 10
348.8172445422
 20
328.4441885252
 30
0.0
 40
5.0
100
AcDbArc
 50
0.0
 51
180.0
  0
CIRCLE
  5
223
330
1F
100
AcDbEntity
  8
0
  6
Continuous
 62
     7
370
    15
100
AcDbCircle
 10
348.8172445422
 20
303.4441885252
 30
0.0
 40
1.5
  0
CIRCLE
  5
224
330
1F
100
AcDbEntity
  8
0
  6
Continuous
 62
     7
370
    15
100
AcDbCircle
 10
404.3475477423
 20
328.7450686609
 30
0.0
 40
1.5
  0
LINE
  5
225
330
1F
100
AcDbEntity
  8
0
  6
Continuous
 62
     7
370
    15
100
AcDbLine
 10
409.3475476305
 20
303.7450686609
 30
0.0
 11
409.3475476305
 21
328.7450690335
 31
0.0
  0
ARC
  5
226
330
1F
100
AcDbEntity
  8
0
  6
Continuous
 62
     7
370
    15
100
AcDbCircle
 10
404.3475477423
 20
303.7450686609
 30
0.0
 40
5.0
100
AcDbArc
 50
180.0
 51
0.0
  0
LINE
  5
227
330
1F
100
AcDbEntity
  8
0
  6
Continuous
 62
     7
370
    15
100
AcDbLine
 10
399.347547854
 20
328.7450690335
 30
0.0
 11
399.347547854
 21
303.7450686609
 31
0.0
  0
ARC
  5
228
330
1F
100
AcDbEntity
  8
0
  6
Continuous
 62
     7
370
    15
100
AcDbCircle
 10
404.3475477423
 20
328.7450686609
 30
0.0
 40
5.0
100
AcDbArc
 50
0.0
 51
180.0
  0
CIRCLE
  5
229
330
1F
100
AcDbEntity
  8
0
  6
Continuous
 62
     7
370
    15
100
AcDbCircle
 10
404.3475477423
 20
303.7450686609
 30
0.0
 40
1.5
  0
CIRCLE
  5
22A
330
1F
100
AcDbEntity
  8
0
  6
Continuous
 62
     7
370
    15
100
AcDbCircle
 10
378.0077822905
 20
330.9824990919
 30
0.0
 40
1.5
  0
LINE
  5
22B
330
1F
100
AcDbEntity
  8
0
  6
Continuous
 62
     7
370
    15
100
AcDbLine
 10
383.0077821788
 20
305.9824990919
 30
0.0
 11
383.0077821788
 21
330.9824994644
 31
0.0
  0
ARC
  5
22C
330
1F
100
AcDbEntity
  8
0
  6
Continuous
 62
     7
370
    15
100
AcDbCircle
 10
378.0077822905
 20
305.9824990919
 30
0.0
 40
5.0
100
AcDbArc
 50
180.0
 51
0.0
  0
LINE
  5
22D
330
1F
100
AcDbEntity
  8
0
  6
Continuous
 62
     7
370
    15
100
AcDbLine
 10
373.0077824023
 20
330.9824994644
 30
0.0
 11
373.0077824023
 21
305.9824990919
 31
0.0
  0
ARC
  5
22E
330
1F
100
AcDbEntity
  8
0
  6
Continuous
 62
     7
370
    15
100
AcDbCircle
 10
378.0077822905
 20
330.9824990919
 30
0.0
 40
5.0
100
AcDbArc
 50
0.0
 51
180.0
  0
CIRCLE
  5
22F
330
1F
100
AcDbEntity
  8
0
  6
Continuous
 62
     7
370
    15
100
AcDbCircle
 10
378.0077822905
 20
305.9824990919
 30
0.0
 40
1.5
  0
LINE
  5
230
330
1F
100
AcDbEntity
  8
0
  6
Continuous
 62
     7
370
    15
100
AcDbLine
 10
432.433939927
 20
328.2472847898
 30
0.0
 11
432.433939927
 21
313.4701031197
 31
0.0
  0
LINE
  5
231
330
1F
100
AcDbEntity
  8
0
  6
Continuous
 62
     7
370
    15
100
AcDbLine
 10
432.433939927
 20
313.4701031197
 30
0.0
 11
434.9339398711
 21
313.4701031197
 31
0.0
  0
LINE
  5
232
330
1F
100
AcDbEntity
  8
0
  6
Continuous
 62
     7
370
    15
100
AcDbLine
 10
434.9339398711
 20
313.4701031197
 30
0.0
 11
434.9339398711
 21
328.2472847898
 31
0.0
  0
LINE
  5
233
330
1F
100
AcDbEntity
  8
0
  6
Continuous
 62
     7
370
    15
100
AcDbLine
 10
434.9339398711
 20
328.2472847898
 30
0.0
 11
432.433939927
 21
328.2472847898
 31
0.0
  0
ARC
  5
234
330
1F
100
AcDbEntity
  8
0
  6
Continuous
 62
     7
370
    15
100
AcDbCircle
 10
430.683939899
 20
310.3586939548
 30
0.0
 40
2.0
100
AcDbArc
 50
180.0
 51
270.0
  0
LINE
  5
235
330
1F
100
AcDbEntity
  8
0
  6
Continuous
 62
     7
370
    15
100
AcDbLine
 10
428.6839400108
 20
331.3586938132
 30
0.0
 11
428.6839400108
 21
310.3586940963
 31
0.0
  0
ARC
  5
236
330
1F
100
AcDbEntity
  8
0
  6
Continuous
 62
     7
370
    15
100
AcDbCircle
 10
430.683939899
 20
331.3586939548
 30
0.0
 40
2.0
100
AcDbArc
 50
90.0
 51
180.0
  0
LINE
  5
237
330
1F
100
AcDbEntity
  8
0
  6
Continuous
 62
     7
370
    15
100
AcDbLine
 10
436.6839399251
 20
333.358694141
 30
0.0
 11
430.683939873
 21
333.358694141
 31
0.0
  0
ARC
  5
238
330
1F
100
AcDbEntity
  8
0
  6
Continuous
 62
     7
370
    15
100
AcDbCircle
 10
436.683939899
 20
331.3586939548
 30
0.0
 40
2.0
100
AcDbArc
 50
0.0
 51
90.0
  0
LINE
  5
239
330
1F
100
AcDbEntity
  8
0
  6
Continuous
 62
     7
370
    15
100
AcDbLine
 10
438.6839397873
 20
310.3586940963
 30
0.0
 11
438.6839397873
 21
331.3586938132
 31
0.0
  0
ARC
  5
23A
330
1F
100
AcDbEntity
  8
0
  6
Continuous
 62
     7
370
    15
100
AcDbCircle
 10
436.683939899
 20
310.3586939548
 30
0.0
 40
2.0
100
AcDbArc
 50
270.0
 51
0.0
  0
LINE
  5
23B
330
1F
100
AcDbEntity
  8
0
  6
Continuous
 62
     7
370
    15
100
AcDbLine
 10
430.683939873
 20
308.3586937685
 30
0.0
 11
436.6839399251
 21
308.3586937685
 31
0.0
  0
LINE
  5
23C
330
1F
100
AcDbEntity
  8
0
  6
Continuous
 62
     7
370
    15
100
AcDbLine
 10
465.4344785492
 20
330.4529275856
 30
0.0
 11
465.4344785492
 21
315.6757459155
 31
0.0
  0
LINE
  5
23D
330
1F
100
AcDbEntity
  8
0
  6
Continuous
 62
     7
370
    15
100
AcDbLine
 10
465.4344785492
 20
315.6757459155
 30
0.0
 11
467.9344784933
 21
315.6757459155
 31
0.0
  0
LINE
  5
23E
330
1F
100
AcDbEntity
  8
0
  6
Continuous
 62
     7
370
    15
100
AcDbLine
 10
467.9344784933
 20
315.6757459155
 30
0.0
 11
467.9344784933
 21
330.4529275856
 31
0.0
  0
LINE
  5
23F
330
1F
100
AcDbEntity
  8
0
  6
Continuous
 62
     7
370
    15
100
AcDbLine
 10
467.9344784933
 20
330.4529275856
 30
0.0
 11
465.4344785492
 21
330.4529275856
 31
0.0
  0
ARC
  5
240
330
1F
100
AcDbEntity
  8
0
  6
Continuous
 62
     7
370
    15
100
AcDbCircle
 10
463.6844785213
 20
312.5643367506
 30
0.0
 40
2.0
100
AcDbArc
 50
180.0
 51
270.0
  0
LINE
  5
241
330
1F
100
AcDbEntity
  8
0
  6
Continuous
 62
     7
370
    15
100
AcDbLine
 10
461.684478633
 20
333.564336609
 30
0.0
 11
461.684478633
 21
312.5643368921
 31
0.0
  0
ARC
  5
242
330
1F
100
AcDbEntity
  8
0
  6
Continuous
 62
     7
370
    15
100
AcDbCircle
 10
463.6844785213
 20
333.5643367506
 30
0.0
 40
2.0
100
AcDbArc
 50
90.0
 51
180.0
  0
LINE
  5
243
330
1F
100
AcDbEntity
  8
0
  6
Continuous
 62
     7
370
    15
100
AcDbLine
 10
469.6844785474
 20
335.5643369368
 30
0.0
 11
463.6844784952
 21
335.5643369368
 31
0.0
  0
ARC
  5
244
330
1F
100
AcDbEntity
  8
0
  6
Continuous
 62
     7
370
    15
100
AcDbCircle
 10
469.6844785213
 20
333.5643367506
 30
0.0
 40
2.0
100
AcDbArc
 50
0.0
 51
90.0
  0
LINE
  5
245
330
1F
100
AcDbEntity
  8
0
  6
Continuous
 62
     7
370
    15
100
AcDbLine
 10
471.6844784095
 20
312.5643368921
 30
0.0
 11
471.6844784095
 21
333.564336609
 31
0.0
  0
ARC
  5
246
330
1F
100
AcDbEntity
  8
0
  6
Continuous
 62
     7
370
    15
100
AcDbCircle
 10
469.6844785213
 20
312.5643367506
 30
0.0
 40
2.0
100
AcDbArc
 50
270.0
 51
0.0
  0
LINE
  5
247
330
1F
100
AcDbEntity
  8
0
  6
Continuous
 62
     7
370
    15
100
AcDbLine
 10
463.6844784952
 20
310.5643365643
 30
0.0
 11
469.6844785474
 21
310.5643365643
 31
0.0
  0
CIRCLE
  5
248
330
1F
100
AcDbEntity
  8
0
  6
Continuous
 62
     7
370
    15
100
AcDbCircle
 10
374.9007831998
 20
351.6282856981
 30
0.0
 40
1.0
  0
CIRCLE
  5
249
330
1F
100
AcDbEntity
  8
0
  6
Continuous
 62
     7
370
    15
100
AcDbCircle
 10
382.4007831998
 20
351.6282856981
 30
0.0
 40
1.5
  0
LINE
  5
24A
330
1F
100
AcDbEntity
  8
0
  6
Continuous
 62
     7
370
    15
100
AcDbLine
 10
407.4007835723
 20
345.1282855639
 30
0.0
 11
407.4007835723
 21
358.1282858322
 31
0.0
  0
LINE
  5
24B
330
1F
100
AcDbEntity
  8
0
  6
Continuous
 62
     7
370
    15
100
AcDbLine
 10
397.4007828645
 20
345.1282855639
 30
0.0
 11
407.4007835723
 21
345.1282855639
 31
0.0
  0
LINE
  5
24C
330
1F
100
AcDbEntity
  8
0
  6
Continuous
 62
     7
370
    15
100
AcDbLine
 10
397.4007828645
 20
347.6282855081
 30
0.0
 11
397.4007828645
 21
345.1282855639
 31
0.0
  0
LINE
  5
24D
330
1F
100
AcDbEntity
  8
0
  6
Continuous
 62
     7
370
    15
100
AcDbLine
 10
387.400783088
 20
347.6282855081
 30
0.0
 11
397.4007828645
 21
347.6282855081
 31
0.0
  0
LINE
  5
24E
330
1F
100
AcDbEntity
  8
0
  6
Continuous
 62
     7
370
    15
100
AcDbLine
 10
387.400783088
 20
345.1282855639
 30
0.0
 11
387.400783088
 21
347.6282855081
 31
0.0
  0
LINE
  5
24F
330
1F
100
AcDbEntity
  8
0
  6
Continuous
 62
     7
370
    15
100
AcDbLine
 10
377.4007833116
 20
345.1282855639
 30
0.0
 11
387.400783088
 21
345.1282855639
 31
0.0
  0
LINE
  5
250
330
1F
100
AcDbEntity
  8
0
  6
Continuous
 62
     7
370
    15
100
AcDbLine
 10
377.4007833116
 20
347.6282855081
 30
0.0
 11
377.4007833116
 21
345.1282855639
 31
0.0
  0
LINE
  5
251
330
1F
100
AcDbEntity
  8
0
  6
Continuous
 62
     7
370
    15
100
AcDbLine
 10
367.4007835351
 20
347.6282855081
 30
0.0
 11
377.4007833116
 21
347.6282855081
 31
0.0
  0
LINE
  5
252
330
1F
100
AcDbEntity
  8
0
  6
Continuous
 62
     7
370
    15
100
AcDbLine
 10
367.4007835351
 20
345.1282855639
 30
0.0
 11
367.4007835351
 21
347.6282855081
 31
0.0
  0
LINE
  5
253
330
1F
100
AcDbEntity
  8
0
  6
Continuous
 62
     7
370
    15
100
AcDbLine
 10
357.4007828273
 20
345.1282855639
 30
0.0
 11
367.4007835351
 21
345.1282855639
 31
0.0
  0
LINE
  5
254
330
1F
100
AcDbEntity
  8
0
  6
Continuous
 62
     7
370
    15
100
AcDbLine
 10
357.4007828273
 20
358.1282858322
 30
0.0
 11
357.4007828273
 21
345.1282855639
 31
0.0
  0
LINE
  5
255
330
1F
100
AcDbEntity
  8
0
  6
Continuous
 62
     7
370
    15
100
AcDbLine
 10
367.4007835351
 20
358.1282858322
 30
0.0
 11
357.4007828273
 21
358.1282858322
 31
0.0
  0
LINE
  5
256
330
1F
100
AcDbEntity
  8
0
  6
Continuous
 62
     7
370
    15
100
AcDbLine
 10
367.4007835351
 20
355.628285888
 30
0.0
 11
367.4007835351
 21
358.1282858322
 31
0.0
  0
LINE
  5
257
330
1F
100
AcDbEntity
  8
0
  6
Continuous
 62
     7
370
    15
100
AcDbLine
 10
377.4007833116
 20
355.628285888
 30
0.0
 11
367.4007835351
 21
355.628285888
 31
0.0
  0
LINE
  5
258
330
1F
100
AcDbEntity
  8
0
  6
Continuous
 62
     7
370
    15
100
AcDbLine
 10
377.4007833116
 20
358.1282858322
 30
0.0
 11
377.4007833116
 21
355.628285888
 31
0.0
  0
LINE
  5
259
330
1F
100
AcDbEntity
  8
0
  6
Continuous
 62
     7
370
    15
100
AcDbLine
 10
387.400783088
 20
358.1282858322
 30
0.0
 11
377.4007833116
 21
358.1282858322
 31
0.0
  0
LINE
  5
25A
330
1F
100
AcDbEntity
  8
0
  6
Continuous
 62
     7
370
    15
100
AcDbLine
 10
387.400783088
 20
355.628285888
 30
0.0
 11
387.400783088
 21
358.1282858322
 31
0.0
  0
LINE
  5
25B
330
1F
100
AcDbEntity
  8
0
  6
Continuous
 62
     7
370
    15
100
AcDbLine
 10
397.4007828645
 20
355.628285888
 30
0.0
 11
387.400783088
 21
355.628285888
 31
0.0
  0
LINE
  5
25C
330
1F
100
AcDbEntity
  8
0
  6
Continuous
 62
     7
370
    15
100
AcDbLine
 10
397.4007828645
 20
358.1282858322
 30
0.0
 11
397.4007828645
 21
355.628285888
 31
0.0
  0
LINE
  5
25D
330
1F
100
AcDbEntity
  8
0
  6
Continuous
 62
     7
370
    15
100
AcDbLine
 10
407.4007835723
 20
358.1282858322
 30
0.0
 11
397.4007828645
 21
358.1282858322
 31
0.0
  0
CIRCLE
  5
25E
330
1F
100
AcDbEntity
  8
0
  6
Continuous
 62
     7
370
    15
100
AcDbCircle
 10
389.9007831998
 20
351.6282856981
 30
0.0
 40
0.9778202834347098
  0
CIRCLE
  5
25F
330
1F
100
AcDbEntity
  8
0
  6
Continuous
 62
     7
370
    15
100
AcDbCircle
 10
314.0939310635
 20
278.8921729982
 30
0.0
 40
1.5
  0
LINE
  5
260
330
1F
100
AcDbEntity
  8
0
  6
Continuous
 62
     7
370
    15
100
AcDbLine
 10
319.0939309517
 20
253.8921729982
 30
0.0
 11
319.0939309517
 21
278.8921733707
 31
0.0
  0
ARC
  5
261
330
1F
100
AcDbEntity
  8
0
  6
Continuous
 62
     7
370
    15
100
AcDbCircle
 10
314.0939310635
 20
253.8921729982
 30
0.0
 40
5.0
100
AcDbArc
 50
180.0
 51
0.0
  0
LINE
  5
262
330
1F
100
AcDbEntity
  8
0
  6
Continuous
 62
     7
370
    15
100
AcDbLine
 10
309.0939311752
 20
278.8921733707
 30
0.0
 11
309.0939311752
 21
253.8921729982
 31
0.0
  0
ARC
  5
263
330
1F
100
AcDbEntity
  8
0
  6
Continuous
 62
     7
370
    15
100
AcDbCircle
 10
314.0939310635
 20
278.8921729982
 30
0.0
 40
5.0
100
AcDbArc
 50
0.0
 51
180.0
  0
CIRCLE
  5
264
330
1F
100
AcDbEntity
  8
0
  6
Continuous
 62
     7
370
    15
100
AcDbCircle
 10
314.0939310635
 20
253.8921729982
 30
0.0
 40
1.5
  0
CIRCLE
  5
265
330
1F
100
AcDbEntity
  8
0
  6
Continuous
 62
     7
370
    15
100
AcDbCircle
 10
344.234726244
 20
275.4815473659
 30
0.0
 40
1.5
  0
LINE
  5
266
330
1F
100
AcDbEntity
  8
0
  6
Continuous
 62
     7
370
    15
100
AcDbLine
 10
349.2347261323
 20
250.4815473659
 30
0.0
 11
349.2347261323
 21
275.4815477384
 31
0.0
  0
ARC
  5
267
330
1F
100
AcDbEntity
  8
0
  6
Continuous
 62
     7
370
    15
100
AcDbCircle
 10
344.234726244
 20
250.4815473659
 30
0.0
 40
5.0
100
AcDbArc
 50
180.0
 51
0.0
  0
LINE
  5
268
330
1F
100
AcDbEntity
  8
0
  6
Continuous
 62
     7
370
    15
100
AcDbLine
 10
339.2347263558
 20
275.4815477384
 30
0.0
 11
339.2347263558
 21
250.4815473659
 31
0.0
  0
ARC
  5
269
330
1F
100
AcDbEntity
  8
0
  6
Continuous
 62
     7
370
    15
100
AcDbCircle
 10
344.234726244
 20
275.4815473659
 30
0.0
 40
5.0
100
AcDbArc
 50
0.0
 51
180.0
  0
CIRCLE
  5
26A
330
1F
100
AcDbEntity
  8
0
  6
Continuous
 62
     7
370
    15
100
AcDbCircle
 10
344.234726244
 20
250.4815473659
 30
0.0
 40
1.5
  0
CIRCLE
  5
26B
330
1F
100
AcDbEntity
  8
0
  6
Continuous
 62
     7
370
    15
100
AcDbCircle
 10
399.7650294441
 20
277.186860182
 30
0.0
 40
1.5
  0
LINE
  5
26C
330
1F
100
AcDbEntity
  8
0
  6
Continuous
 62
     7
370
    15
100
AcDbLine
 10
404.7650293324
 20
252.186860182
 30
0.0
 11
404.7650293324
 21
277.1868605546
 31
0.0
  0
ARC
  5
26D
330
1F
100
AcDbEntity
  8
0
  6
Continuous
 62
     7
370
    15
100
AcDbCircle
 10
399.7650294441
 20
252.186860182
 30
0.0
 40
5.0
100
AcDbArc
 50
180.0
 51
0.0
  0
LINE
  5
26E
330
1F
100
AcDbEntity
  8
0
  6
Continuous
 62
     7
370
    15
100
AcDbLine
 10
394.7650295559
 20
277.1868605546
 30
0.0
 11
394.7650295559
 21
252.186860182
 31
0.0
  0
ARC
  5
26F
330
1F
100
AcDbEntity
  8
0
  6
Continuous
 62
     7
370
    15
100
AcDbCircle
 10
399.7650294441
 20
277.186860182
 30
0.0
 40
5.0
100
AcDbArc
 50
0.0
 51
180.0
  0
CIRCLE
  5
270
330
1F
100
AcDbEntity
  8
0
  6
Continuous
 62
     7
370
    15
100
AcDbCircle
 10
399.7650294441
 20
252.186860182
 30
0.0
 40
1.5
  0
CIRCLE
  5
271
330
1F
100
AcDbEntity
  8
0
  6
Continuous
 62
     7
370
    15
100
AcDbCircle
 10
373.4252639924
 20
279.424290613
 30
0.0
 40
1.5
  0
LINE
  5
272
330
1F
100
AcDbEntity
  8
0
  6
Continuous
 62
     7
370
    15
100
AcDbLine
 10
378.4252638806
 20
254.424290613
 30
0.0
 11
378.4252638806
 21
279.4242909855
 31
0.0
  0
ARC
  5
273
330
1F
100
AcDbEntity
  8
0
  6
Continuous
 62
     7
370
    15
100
AcDbCircle
 10
373.4252639924
 20
254.424290613
 30
0.0
 40
5.0
100
AcDbArc
 50
180.0
 51
0.0
  0
LINE
  5
274
330
1F
100
AcDbEntity
  8
0
  6
Continuous
 62
     7
370
    15
100
AcDbLine
 10
368.4252641042
 20
279.4242909855
 30
0.0
 11
368.4252641042
 21
254.424290613
 31
0.0
  0
ARC
  5
275
330
1F
100
AcDbEntity
  8
0
  6
Continuous
 62
     7
370
    15
100
AcDbCircle
 10
373.4252639924
 20
279.424290613
 30
0.0
 40
5.0
100
AcDbArc
 50
0.0
 51
180.0
  0
CIRCLE
  5
276
330
1F
100
AcDbEntity
  8
0
  6
Continuous
 62
     7
370
    15
100
AcDbCircle
 10
373.4252639924
 20
254.424290613
 30
0.0
 40
1.5
  0
LINE
  5
277
330
1F
100
AcDbEntity
  8
0
  6
Continuous
 62
     7
370
    15
100
AcDbLine
 10
279.1910793026
 20
511.2212671864
 30
0.0
 11
279.1910793026
 21
510.720008587
 31
0.0
  0
ELLIPSE
  5
278
330
1F
100
AcDbEntity
  8
0
  6
Continuous
 62
     7
370
    15
100
AcDbEllipse
 10
279.0910793026
 20
510.2244723228
 30
0.0
 11
-0.7500534627295677
 21
0.0
 31
0.0
210
0.0
220
0.0
230
1.0
 40
0.6666191476
 41
1.704518326781616
 42
4.57866698039795
  0
LINE
  5
279
330
1F
100
AcDbEntity
  8
0
  6
Continuous
 62
     7
370
    15
100
AcDbLine
 10
279.1910793026
 20
509.7289360586
 30
0.0
 11
279.1910793026
 21
509.2276774593
 31
0.0
  0
ELLIPSE
  5
27A
330
1F
100
AcDbEntity
  8
0
  6
Continuous
 62
     7
370
    15
100
AcDbEllipse
 10
279.0910793026
 20
510.2244723228
 30
0.0
 11
-1.249999999999943
 21
0.0
 31
0.0
210
0.0
220
0.0
230
1.0
 40
0.8
 41
1.650881906828577
 42
4.632303400351016
  0
LINE
  5
27B
330
1F
100
AcDbEntity
  8
0
  6
Continuous
 62
     7
370
    15
100
AcDbLine
 10
280.3410793026
 20
520.2244367307
 30
0.0
 11
280.3410793026
 21
520.7244367307
 31
0.0
  0
LINE
  5
27C
330
1F
100
AcDbEntity
  8
0
  6
Continuous
 62
     7
370
    15
100
AcDbLine
 10
280.3410793026
 20
520.7244367307
 30
0.0
 11
279.1910793026
 21
520.7244367307
 31
0.0
  0
LINE
  5
27D
330
1F
100
AcDbEntity
  8
0
  6
Continuous
 62
     7
370
    15
100
AcDbLine
 10
279.1910793026
 20
520.7244367307
 30
0.0
 11
279.1910793026
 21
520.2199586122
 31
0.0
  0
ELLIPSE
  5
27E
330
1F
100
AcDbEntity
  8
0
  6
Continuous
 62
     7
370
    15
100
AcDbEllipse
 10
279.0910793026
 20
519.7244367307
 30
0.0
 11
-0.7500534627295679
 21
0.0001944289322182158
 31
0.0
210
0.0
220
0.0
230
1.0
 40
0.6666191396
 41
1.704691125850224
 42
4.578839783483506
  0
LINE
  5
27F
330
1F
100
AcDbEntity
  8
0
  6
Continuous
 62
     7
370
    15
100
AcDbLine
 10
279.1910793026
 20
519.2288860437
 30
0.0
 11
279.1910793026
 21
518.7276272128
 31
0.0
  0
ELLIPSE
  5
280
330
1F
100
AcDbEntity
  8
0
  6
Continuous
 62
     7
370
    15
100
AcDbEllipse
 10
279.0910793026
 20
519.7244367307
 30
0.0
 11
-1.249999999999943
 21
0.0005077932131598573
 31
0.0
210
0.0
220
0.0
230
1.0
 40
0.799999934
 41
1.651206890208474
 42
3.665699195602401
  0
LINE
  5
281
330
1F
100
AcDbEntity
  8
0
  6
Continuous
 62
     7
370
    15
100
AcDbLine
 10
280.1734968597
 20
520.2244367307
 30
0.0
 11
280.3410793026
 21
520.2244367307
 31
0.0
  0
LINE
  5
282
330
1F
100
AcDbEntity
  8
0
  6
Continuous
 62
     7
370
    15
100
AcDbLine
 10
279.1910793026
 20
518.2244368132
 30
0.0
 11
279.1910793026
 21
517.7244368132
 31
0.0
  0
LINE
  5
283
330
1F
100
AcDbEntity
  8
0
  6
Continuous
 62
     7
370
    15
100
AcDbLine
 10
279.1910793026
 20
517.7244368132
 30
0.0
 11
280.3410793026
 21
517.7244368132
 31
0.0
  0
LINE
  5
284
330
1F
100
AcDbEntity
  8
0
  6
Continuous
 62
     7
370
    15
100
AcDbLine
 10
280.3410793026
 20
517.7244368132
 30
0.0
 11
280.3410793026
 21
518.2244368132
 31
0.0
  0
LINE
  5
285
330
1F
100
AcDbEntity
  8
0
  6
Continuous
 62
     7
370
    15
100
AcDbLine
 10
280.3410793026
 20
518.2244368132
 30
0.0
 11
279.1910793026
 21
518.2244368132
 31
0.0
  0
LINE
  5
286
330
1F
100
AcDbEntity
  8
0
  6
Continuous
 62
     7
370
    15
100
AcDbLine
 10
279.1910793026
 20
517.2244368132
 30
0.0
 11
279.1910793026
 21
516.7199193322
 31
0.0
  0
ELLIPSE
  5
287
330
1F
100
AcDbEntity
  8
0
  6
Continuous
 62
     7
370
    15
100
AcDbEllipse
 10
279.0910793026
 20
516.2244368132
 30
0.0
 11
-0.7500534627295679
 21
0.000728618992070551
 31
0.0
210
0.0
220
0.0
230
1.0
 40
0.6666189637
 41
1.70516586730718
 42
4.579314577335858
  0
LINE
  5
288
330
1F
100
AcDbEntity
  8
0
  6
Continuous
 62
     7
370
    15
100
AcDbLine
 10
279.1910793026
 20
515.7288463461
 30
0.0
 11
279.1910793026
 21
515.2275906778
 31
0.0
  0
ELLIPSE
  5
289
330
1F
100
AcDbEntity
  8
0
  6
Continuous
 62
     7
370
    15
100
AcDbEllipse
 10
279.0910793026
 20
516.2244368132
 30
0.0
 11
-1.249999999999943
 21
0.001767667859439825
 31
0.0
210
0.0
220
0.0
230
1.0
 40
0.7999992001
 41
1.65201316128613
 42
3.666958772249873
  0
LINE
  5
28A
330
1F
100
AcDbEntity
  8
0
  6
Continuous
 62
     7
370
    15
100
AcDbLine
 10
280.1732140076
 20
516.7244368132
 30
0.0
 11
280.3410793026
 21
516.7244368132
 31
0.0
  0
LINE
  5
28B
330
1F
100
AcDbEntity
  8
0
  6
Continuous
 62
     7
370
    15
100
AcDbLine
 10
280.3410793026
 20
516.7244368132
 30
0.0
 11
280.3410793026
 21
517.2244368132
 31
0.0
  0
LINE
  5
28C
330
1F
100
AcDbEntity
  8
0
  6
Continuous
 62
     7
370
    15
100
AcDbLine
 10
280.3410793026
 20
517.2244368132
 30
0.0
 11
279.1910793026
 21
517.2244368132
 31
0.0
  0
LINE
  5
28D
330
1F
100
AcDbEntity
  8
0
  6
Continuous
 62
     7
370
    15
100
AcDbLine
 10
279.1910793026
 20
513.228776912
 30
0.0
 11
279.1910793026
 21
512.7275477407
 31
0.0
  0
ELLIPSE
  5
28E
330
1F
100
AcDbEntity
  8
0
  6
Continuous
 62
     7
370
    15
100
AcDbEllipse
 10
279.0910793026
 20
513.7244665897
 30
0.0
 11
-1.249999999999943
 21
0.004232743343322909
 31
0.0
210
0.0
220
0.0
230
1.0
 40
0.7999954135
 41
1.653590545934708
 42
4.635012628410164
  0
LINE
  5
28F
330
1F
100
AcDbEntity
  8
0
  6
Continuous
 62
     7
370
    15
100
AcDbLine
 10
279.1910793026
 20
514.7211416296
 30
0.0
 11
279.1910793026
 21
514.2198519508
 31
0.0
  0
ELLIPSE
  5
290
330
1F
100
AcDbEntity
  8
0
  6
Continuous
 62
     7
370
    15
100
AcDbEllipse
 10
279.0910793026
 20
513.7244665897
 30
0.0
 11
-0.7500534627295677
 21
0.002054045612112532
 31
0.0
210
0.0
220
0.0
230
1.0
 40
0.6666169276
 41
1.706343652561065
 42
4.580492754498902
  0
LINE
  5
291
330
1F
100
AcDbEntity
  8
0
  6
Continuous
 62
     7
370
    15
100
AcDbLine
 10
279.1910793026
 20
512.2244723228
 30
0.0
 11
279.1910793026
 21
511.7244723228
 31
0.0
  0
LINE
  5
292
330
1F
100
AcDbEntity
  8
0
  6
Continuous
 62
     7
370
    15
100
AcDbLine
 10
279.1910793026
 20
511.7244723228
 30
0.0
 11
280.3410793026
 21
511.7244723228
 31
0.0
  0
LINE
  5
293
330
1F
100
AcDbEntity
  8
0
  6
Continuous
 62
     7
370
    15
100
AcDbLine
 10
280.3410793026
 20
511.7244723228
 30
0.0
 11
280.3410793026
 21
512.2244723228
 31
0.0
  0
LINE
  5
294
330
1F
100
AcDbEntity
  8
0
  6
Continuous
 62
     7
370
    15
100
AcDbLine
 10
280.3410793026
 20
512.2244723228
 30
0.0
 11
279.1910793026
 21
512.2244723228
 31
0.0
  0
LINE
  5
295
330
1F
100
AcDbEntity
  8
0
  6
Continuous
 62
     7
370
    15
100
AcDbLine
 10
280.3410793026
 20
506.6406703633
 30
0.0
 11
280.3410793026
 21
507.6406703633
 31
0.0
  0
LINE
  5
296
330
1F
100
AcDbEntity
  8
0
  6
Continuous
 62
     7
370
    15
100
AcDbLine
 10
280.3410793026
 20
507.6406703633
 30
0.0
 11
279.1910793026
 21
508.004944814
 31
0.0
  0
LINE
  5
297
330
1F
100
AcDbEntity
  8
0
  6
Continuous
 62
     7
370
    15
100
AcDbLine
 10
279.1910793026
 20
508.004944814
 30
0.0
 11
279.1910793026
 21
506.6406703633
 31
0.0
  0
LINE
  5
298
330
1F
100
AcDbEntity
  8
0
  6
Continuous
 62
     7
370
    15
100
AcDbLine
 10
279.1910793026
 20
506.6406703633
 30
0.0
 11
280.3410793026
 21
506.6406703633
 31
0.0
  0
CIRCLE
  5
299
330
1F
100
AcDbEntity
  8
0
  6
Continuous
 62
     7
370
    15
100
AcDbCircle
 10
239.2691838324
 20
570.6531948823
 30
0.0
 40
1.5
  0
CIRCLE
  5
29A
330
1F
100
AcDbEntity
  8
0
  6
Continuous
 62
     7
370
    15
100
AcDbCircle
 10
284.3979849821
 20
522.2454864124
 30
0.0
 40
1.5
  0
CIRCLE
  5
29B
330
1F
100
AcDbEntity
  8
0
  6
Continuous
 62
     7
370
    15
100
AcDbCircle
 10
174.3979849821
 20
526.6406703633
 30
0.0
 40
1.75
  0
CIRCLE
  5
29C
330
1F
100
AcDbEntity
  8
0
  6
Continuous
 62
     7
370
    15
100
AcDbCircle
 10
221.2680426672
 20
526.8416804901
 30
0.0
 40
1.749999999999858
  0
CIRCLE
  5
29D
330
1F
100
AcDbEntity
  8
0
  6
Continuous
 62
     7
370
    15
100
AcDbCircle
 10
181.6679075801
 20
552.2953692722
 30
0.0
 40
1.75
  0
LINE
  5
29E
330
1F
100
AcDbEntity
  8
0
  6
Continuous
 62
     7
370
    15
100
AcDbLine
 10
289.3979849821
 20
556.6406703633
 30
0.0
 11
284.3979849821
 21
556.6406703633
 31
0.0
  0
LINE
  5
29F
330
1F
100
AcDbEntity
  8
0
  6
Continuous
 62
     7
370
    15
100
AcDbLine
 10
289.3979849821
 20
551.6406703633
 30
0.0
 11
289.3979849821
 21
556.6406703633
 31
0.0
  0
LINE
  5
2A0
330
1F
100
AcDbEntity
  8
0
  6
Continuous
 62
     7
370
    15
100
AcDbLine
 10
294.3979849821
 20
551.6406703633
 30
0.0
 11
289.3979849821
 21
551.6406703633
 31
0.0
  0
LINE
  5
2A1
330
1F
100
AcDbEntity
  8
0
  6
Continuous
 62
     7
370
    15
100
AcDbLine
 10
294.3979849821
 20
511.6406703633
 30
0.0
 11
294.3979849821
 21
551.6406703633
 31
0.0
  0
LINE
  5
2A2
330
1F
100
AcDbEntity
  8
0
  6
Continuous
 62
     7
370
    15
100
AcDbLine
 10
289.3979849821
 20
511.6406703633
 30
0.0
 11
294.3979849821
 21
511.6406703633
 31
0.0
  0
LINE
  5
2A3
330
1F
100
AcDbEntity
  8
0
  6
Continuous
 62
     7
370
    15
100
AcDbLine
 10
289.3979849821
 20
506.6406703633
 30
0.0
 11
289.3979849821
 21
511.6406703633
 31
0.0
  0
ARC
  5
2A4
330
1F
100
AcDbEntity
  8
0
  6
Continuous
 62
     7
370
    15
100
AcDbCircle
 10
239.2691838324
 20
570.6531948823
 30
0.0
 40
81.30498139720628
100
AcDbArc
 50
217.0723591544
 51
308.0648249033
  0
ARC
  5
2A5
330
1F
100
AcDbEntity
  8
0
  6
Continuous
 62
     7
370
    15
100
AcDbCircle
 10
174.3979849821
 20
526.6406703633
 30
0.0
 40
5.000000000000023
100
AcDbArc
 50
150.3767599041
 51
270.0
  0
ARC
  5
2A6
330
1F
100
AcDbEntity
  8
0
  6
Continuous
 62
     7
370
    15
100
AcDbCircle
 10
194.3979849821
 20
546.6406703633
 30
0.0
 40
30.00000000000015
100
AcDbArc
 50
76.9279085143
 51
215.7524415519
  0
ARC
  5
2A7
330
1F
100
AcDbEntity
  8
0
  6
Continuous
 62
     7
370
    15
100
AcDbCircle
 10
218.7958883486
 20
634.4237282165
 30
0.0
 40
61.15171519001987
100
AcDbArc
 50
253.260859201
 51
278.5543875128
  0
ARC
  5
2A8
330
1F
100
AcDbEntity
  8
0
  6
Continuous
 62
     7
370
    15
100
AcDbCircle
 10
245.1799116353
 20
529.505893866
 30
0.0
 40
47.69018109208452
100
AcDbArc
 50
34.6791538549
 51
111.2539736591
  0
LINE
  5
2A9
330
1F
100
AcDbEntity
  8
0
  6
Continuous
 62
     7
370
    15
100
AcDbLine
 10
222.6822562295
 20
532.4985347396
 30
0.0
 11
194.3979849821
 21
560.7828059871
 31
0.0
  0
LINE
  5
2AA
330
1F
100
AcDbEntity
  8
0
  6
Continuous
 62
     7
370
    15
100
AcDbLine
 10
194.3979849821
 20
560.7828059871
 30
0.0
 11
188.387577342
 21
554.772398347
 31
0.0
  0
LINE
  5
2AB
330
1F
100
AcDbEntity
  8
0
  6
Continuous
 62
     7
370
    15
100
AcDbLine
 10
188.387577342
 20
554.772398347
 30
0.0
 11
184.1449366549
 21
559.0150390341
 31
0.0
  0
LINE
  5
2AC
330
1F
100
AcDbEntity
  8
0
  6
Continuous
 62
     7
370
    15
100
AcDbLine
 10
184.1449366549
 20
559.0150390341
 30
0.0
 11
182.0236163113
 21
556.8937186905
 31
0.0
  0
LINE
  5
2AD
330
1F
100
AcDbEntity
  8
0
  6
Continuous
 62
     7
370
    15
100
AcDbLine
 10
182.0236163113
 20
556.8937186905
 30
0.0
 11
186.2662569984
 21
552.6510780034
 31
0.0
  0
LINE
  5
2AE
330
1F
100
AcDbEntity
  8
0
  6
Continuous
 62
     7
370
    15
100
AcDbLine
 10
186.2662569984
 20
552.6510780034
 30
0.0
 11
180.2558493584
 21
546.6406703633
 31
0.0
  0
LINE
  5
2AF
330
1F
100
AcDbEntity
  8
0
  6
Continuous
 62
     7
370
    15
100
AcDbLine
 10
180.2558493584
 20
546.6406703633
 30
0.0
 11
208.5401206058
 21
518.3563991159
 31
0.0
  0
LINE
  5
2B0
330
1F
100
AcDbEntity
  8
0
  6
Continuous
 62
     7
370
    15
100
AcDbLine
 10
208.5401206058
 20
518.3563991159
 30
0.0
 11
214.5486955577
 21
524.3649740677
 31
0.0
  0
LINE
  5
2B1
330
1F
100
AcDbEntity
  8
0
  6
Continuous
 62
     7
370
    15
100
AcDbLine
 10
214.5486955577
 20
524.3649740677
 30
0.0
 11
218.7913362448
 21
520.1223333806
 31
0.0
  0
LINE
  5
2B2
330
1F
100
AcDbEntity
  8
0
  6
Continuous
 62
     7
370
    15
100
AcDbLine
 10
218.7913362448
 20
520.1223333806
 30
0.0
 11
220.9144892766
 21
522.2454864124
 31
0.0
  0
LINE
  5
2B3
330
1F
100
AcDbEntity
  8
0
  6
Continuous
 62
     7
370
    15
100
AcDbLine
 10
220.9144892766
 20
522.2454864124
 30
0.0
 11
216.6718485895
 21
526.4881270995
 31
0.0
  0
LINE
  5
2B4
330
1F
100
AcDbEntity
  8
0
  6
Continuous
 62
     7
370
    15
100
AcDbLine
 10
216.6718485895
 20
526.4881270995
 30
0.0
 11
222.6822562295
 21
532.4985347396
 31
0.0
  0
CIRCLE
  5
2B5
330
1F
100
AcDbEntity
  8
0
  6
Continuous
 62
     7
370
    15
100
AcDbCircle
 10
188.7395076295
 20
559.3669693216
 30
0.0
 40
1.749999999999972
  0
CIRCLE
  5
2B6
330
1F
100
AcDbEntity
  8
0
  6
Continuous
 62
     7
370
    15
100
AcDbCircle
 10
214.1951421671
 20
519.76877999
 30
0.0
 40
1.749999999999915
  0
CIRCLE
  5
2B7
330
1F
100
AcDbEntity
  8
0
  6
Continuous
 62
     7
370
    15
100
AcDbCircle
 10
284.3979849821
 20
539.8194866285
 30
0.0
 40
1.5
  0
CIRCLE
  5
2B8
330
1F
100
AcDbEntity
  8
0
  6
Continuous
 62
     7
370
    15
100
AcDbCircle
 10
239.2691838324
 20
500.5918935494
 30
0.0
 40
1.5
  0
LINE
  5
2B9
330
1F
100
AcDbEntity
  8
0
  6
Continuous
 62
     7
370
    15
100
AcDbLine
 10
275.3410793026
 20
506.6406703633
 30
0.0
 11
278.9910793026
 21
506.6406703633
 31
0.0
  0
LINE
  5
2BA
330
1F
100
AcDbEntity
  8
0
  6
Continuous
 62
     7
370
    15
100
AcDbLine
 10
278.9910793026
 20
506.6406703633
 30
0.0
 11
278.9910793026
 21
508.0682968924
 31
0.0
  0
LINE
  5
2BB
330
1F
100
AcDbEntity
  8
0
  6
Continuous
 62
     7
370
    15
100
AcDbLine
 10
278.9910793026
 20
508.0682968924
 30
0.0
 11
275.3410793026
 21
509.2244723228
 31
0.0
  0
LINE
  5
2BC
330
1F
100
AcDbEntity
  8
0
  6
Continuous
 62
     7
370
    15
100
AcDbLine
 10
275.3410793026
 20
509.2244723228
 30
0.0
 11
275.3410793026
 21
508.7244723228
 31
0.0
  0
LINE
  5
2BD
330
1F
100
AcDbEntity
  8
0
  6
Continuous
 62
     7
370
    15
100
AcDbLine
 10
275.3410793026
 20
508.7244723228
 30
0.0
 11
278.7625991239
 21
507.6406703633
 31
0.0
  0
LINE
  5
2BE
330
1F
100
AcDbEntity
  8
0
  6
Continuous
 62
     7
370
    15
100
AcDbLine
 10
278.7625991239
 20
507.6406703633
 30
0.0
 11
275.3410793026
 21
507.6406703633
 31
0.0
  0
LINE
  5
2BF
330
1F
100
AcDbEntity
  8
0
  6
Continuous
 62
     7
370
    15
100
AcDbLine
 10
275.3410793026
 20
507.6406703633
 30
0.0
 11
275.3410793026
 21
506.6406703633
 31
0.0
  0
LINE
  5
2C0
330
1F
100
AcDbEntity
  8
0
  6
Continuous
 62
     7
370
    15
100
AcDbLine
 10
275.3410793026
 20
511.7244723228
 30
0.0
 11
278.9910793026
 21
511.7244723228
 31
0.0
  0
LINE
  5
2C1
330
1F
100
AcDbEntity
  8
0
  6
Continuous
 62
     7
370
    15
100
AcDbLine
 10
278.9910793026
 20
511.7244723228
 30
0.0
 11
278.9910793026
 21
512.2244723228
 31
0.0
  0
LINE
  5
2C2
330
1F
100
AcDbEntity
  8
0
  6
Continuous
 62
     7
370
    15
100
AcDbLine
 10
278.9910793026
 20
512.2244723228
 30
0.0
 11
275.3410793026
 21
512.2244723228
 31
0.0
  0
LINE
  5
2C3
330
1F
100
AcDbEntity
  8
0
  6
Continuous
 62
     7
370
    15
100
AcDbLine
 10
275.3410793026
 20
512.2244723228
 30
0.0
 11
275.3410793026
 21
511.7244723228
 31
0.0
  0
LINE
  5
2C4
330
1F
100
AcDbEntity
  8
0
  6
Continuous
 62
     7
370
    15
100
AcDbLine
 10
278.9910793026
 20
510.720008587
 30
0.0
 11
278.9910793026
 21
511.2212671864
 31
0.0
  0
ELLIPSE
  5
2C5
330
1F
100
AcDbEntity
  8
0
  6
Continuous
 62
     7
370
    15
100
AcDbEllipse
 10
279.0910793026
 20
510.2244723228
 30
0.0
 11
-1.249999999999943
 21
0.0
 31
0.0
210
0.0
220
0.0
230
1.0
 40
0.8
 41
4.792474560419111
 42
7.773896053940078
  0
LINE
  5
2C6
330
1F
100
AcDbEntity
  8
0
  6
Continuous
 62
     7
370
    15
100
AcDbLine
 10
278.9910793026
 20
509.2276774593
 30
0.0
 11
278.9910793026
 21
509.7289360586
 31
0.0
  0
ELLIPSE
  5
2C7
330
1F
100
AcDbEntity
  8
0
  6
Continuous
 62
     7
370
    15
100
AcDbEllipse
 10
279.0910793026
 20
510.2244723228
 30
0.0
 11
-0.7500534627295677
 21
0.0
 31
0.0
210
0.0
220
0.0
230
1.0
 40
0.6666191476
 41
4.846110980372726
 42
7.720259633986456
  0
LINE
  5
2C8
330
1F
100
AcDbEntity
  8
0
  6
Continuous
 62
     7
370
    15
100
AcDbLine
 10
275.3410793026
 20
516.7244368132
 30
0.0
 11
278.0081491451
 21
516.7244368132
 31
0.0
  0
ELLIPSE
  5
2C9
330
1F
100
AcDbEntity
  8
0
  6
Continuous
 62
     7
370
    15
100
AcDbEllipse
 10
279.0910793026
 20
516.2244368132
 30
0.0
 11
-1.249999999999943
 21
0.001767667859439825
 31
0.0
210
0.0
220
0.0
230
1.0
 40
0.7999992001
 41
5.761354524091098
 42
7.775027411115015
  0
LINE
  5
2CA
330
1F
100
AcDbEntity
  8
0
  6
Continuous
 62
     7
370
    15
100
AcDbLine
 10
278.9910793026
 20
515.2276924957
 30
0.0
 11
278.9910793026
 21
515.7289542942
 31
0.0
  0
ELLIPSE
  5
2CB
330
1F
100
AcDbEntity
  8
0
  6
Continuous
 62
     7
370
    15
100
AcDbEllipse
 10
279.0910793026
 20
516.2244368132
 30
0.0
 11
-0.7500534627295679
 21
0.000728618992070551
 31
0.0
210
0.0
220
0.0
230
1.0
 40
0.6666189637
 41
4.846758520898785
 42
7.720907230925687
  0
LINE
  5
2CC
330
1F
100
AcDbEntity
  8
0
  6
Continuous
 62
     7
370
    15
100
AcDbLine
 10
278.9910793026
 20
516.7200272804
 30
0.0
 11
278.9910793026
 21
517.2244368132
 31
0.0
  0
LINE
  5
2CD
330
1F
100
AcDbEntity
  8
0
  6
Continuous
 62
     7
370
    15
100
AcDbLine
 10
278.9910793026
 20
517.2244368132
 30
0.0
 11
275.3410793026
 21
517.2244368132
 31
0.0
  0
LINE
  5
2CE
330
1F
100
AcDbEntity
  8
0
  6
Continuous
 62
     7
370
    15
100
AcDbLine
 10
275.3410793026
 20
517.2244368132
 30
0.0
 11
275.3410793026
 21
516.7244368132
 31
0.0
  0
LINE
  5
2CF
330
1F
100
AcDbEntity
  8
0
  6
Continuous
 62
     7
370
    15
100
AcDbLine
 10
277.8410793026
 20
517.7244368132
 30
0.0
 11
278.9910793026
 21
517.7244368132
 31
0.0
  0
LINE
  5
2D0
330
1F
100
AcDbEntity
  8
0
  6
Continuous
 62
     7
370
    15
100
AcDbLine
 10
278.9910793026
 20
517.7244368132
 30
0.0
 11
278.9910793026
 21
518.2244368132
 31
0.0
  0
LINE
  5
2D1
330
1F
100
AcDbEntity
  8
0
  6
Continuous
 62
     7
370
    15
100
AcDbLine
 10
278.9910793026
 20
518.2244368132
 30
0.0
 11
277.8410793026
 21
518.2244368132
 31
0.0
  0
LINE
  5
2D2
330
1F
100
AcDbEntity
  8
0
  6
Continuous
 62
     7
370
    15
100
AcDbLine
 10
277.8410793026
 20
518.2244368132
 30
0.0
 11
277.8410793026
 21
517.7244368132
 31
0.0
  0
LINE
  5
2D3
330
1F
100
AcDbEntity
  8
0
  6
Continuous
 62
     7
370
    15
100
AcDbLine
 10
277.8410793026
 20
520.2244367307
 30
0.0
 11
278.0084332386
 21
520.2244367307
 31
0.0
  0
ELLIPSE
  5
2D4
330
1F
100
AcDbEntity
  8
0
  6
Continuous
 62
     7
370
    15
100
AcDbEllipse
 10
279.0910793026
 20
519.7244367307
 30
0.0
 11
-1.249999999999943
 21
0.0005077932131598573
 31
0.0
210
0.0
220
0.0
230
1.0
 40
0.799999934
 41
5.76009435158971
 42
7.77422104579645
  0
LINE
  5
2D5
330
1F
100
AcDbEntity
  8
0
  6
Continuous
 62
     7
370
    15
100
AcDbLine
 10
278.9910793026
 20
518.7276564617
 30
0.0
 11
278.9910793026
 21
519.2289148492
 31
0.0
  0
ELLIPSE
  5
2D6
330
1F
100
AcDbEntity
  8
0
  6
Continuous
 62
     7
370
    15
100
AcDbEllipse
 10
279.0910793026
 20
519.7244367307
 30
0.0
 11
-0.7500534627295679
 21
0.0001944289322182158
 31
0.0
210
0.0
220
0.0
230
1.0
 40
0.6666191396
 41
4.846283779441333
 42
7.720432437072012
  0
LINE
  5
2D7
330
1F
100
AcDbEntity
  8
0
  6
Continuous
 62
     7
370
    15
100
AcDbLine
 10
278.9910793026
 20
520.2199874178
 30
0.0
 11
278.9910793026
 21
520.7244367307
 31
0.0
  0
LINE
  5
2D8
330
1F
100
AcDbEntity
  8
0
  6
Continuous
 62
     7
370
    15
100
AcDbLine
 10
278.9910793026
 20
520.7244367307
 30
0.0
 11
277.8410793026
 21
520.7244367307
 31
0.0
  0
LINE
  5
2D9
330
1F
100
AcDbEntity
  8
0
  6
Continuous
 62
     7
370
    15
100
AcDbLine
 10
277.8410793026
 20
520.7244367307
 30
0.0
 11
277.8410793026
 21
520.2244367307
 31
0.0
  0
LINE
  5
2DA
330
1F
100
AcDbEntity
  8
0
  6
Continuous
 62
     7
370
    15
100
AcDbLine
 10
278.9910793026
 20
514.2201562675
 30
0.0
 11
278.9910793026
 21
514.7213854388
 31
0.0
  0
ELLIPSE
  5
2DB
330
1F
100
AcDbEntity
  8
0
  6
Continuous
 62
     7
370
    15
100
AcDbEllipse
 10
279.0910793026
 20
513.7244665897
 30
0.0
 11
-1.249999999999943
 21
0.004232743343322909
 31
0.0
210
0.0
220
0.0
230
1.0
 40
0.7999954135
 41
4.795183199525229
 42
7.776605281999203
  0
LINE
  5
2DC
330
1F
100
AcDbEntity
  8
0
  6
Continuous
 62
     7
370
    15
100
AcDbLine
 10
278.9910793026
 20
512.7277915499
 30
0.0
 11
278.9910793026
 21
513.2290812286
 31
0.0
  0
ELLIPSE
  5
2DD
330
1F
100
AcDbEntity
  8
0
  6
Continuous
 62
     7
370
    15
100
AcDbEllipse
 10
279.0910793026
 20
513.7244665897
 30
0.0
 11
-0.7500534627295677
 21
0.002054045612112532
 31
0.0
210
0.0
220
0.0
230
1.0
 40
0.6666169276
 41
4.847936306153211
 42
7.722085408087407
  0
INSERT
  5
2E9
330
1F
100
AcDbEntity
  8
0
  6
Continuous
 62
     7
370
     0
100
AcDbBlockReference
  2
SW_CENTERMARKSYMBOL_0
 10
174.3979849821
 20
526.6406703633
 30
0.0
  0
INSERT
  5
2F5
330
1F
100
AcDbEntity
  8
0
  6
Continuous
 62
     7
370
     0
100
AcDbBlockReference
  2
SW_CENTERMARKSYMBOL_1
 10
239.2691838324
 20
570.6531948823
 30
0.0
  0
INSERT
  5
301
330
1F
100
AcDbEntity
  8
0
  6
Continuous
 62
     7
370
     0
100
AcDbBlockReference
  2
SW_CENTERMARKSYMBOL_2
 10
181.6679075801
 20
552.2953692722
 30
0.0
  0
INSERT
  5
30D
330
1F
100
AcDbEntity
  8
0
  6
Continuous
 62
     7
370
     0
100
AcDbBlockReference
  2
SW_CENTERMARKSYMBOL_3
 10
188.7395076295
 20
559.3669693216
 30
0.0
  0
INSERT
  5
319
330
1F
100
AcDbEntity
  8
0
  6
Continuous
 62
     7
370
     0
100
AcDbBlockReference
  2
SW_CENTERMARKSYMBOL_4
 10
221.2680426672
 20
526.8416804901
 30
0.0
  0
INSERT
  5
325
330
1F
100
AcDbEntity
  8
0
  6
Continuous
 62
     7
370
     0
100
AcDbBlockReference
  2
SW_CENTERMARKSYMBOL_5
 10
214.1951421671
 20
519.76877999
 30
0.0
  0
INSERT
  5
331
330
1F
100
AcDbEntity
  8
0
  6
Continuous
 62
     7
370
     0
100
AcDbBlockReference
  2
SW_CENTERMARKSYMBOL_6
 10
284.3979849821
 20
539.8194866285
 30
0.0
  0
INSERT
  5
33D
330
1F
100
AcDbEntity
  8
0
  6
Continuous
 62
     7
370
     0
100
AcDbBlockReference
  2
SW_CENTERMARKSYMBOL_7
 10
284.3979849821
 20
522.2454864124
 30
0.0
  0
INSERT
  5
349
330
1F
100
AcDbEntity
  8
0
  6
Continuous
 62
     7
370
     0
100
AcDbBlockReference
  2
SW_CENTERMARKSYMBOL_8
 10
239.2691838324
 20
500.5918935494
 30
0.0
  0
ENDSEC
  0
SECTION
  2
OBJECTS
  0
DICTIONARY
  5
C
330
0
100
AcDbDictionary
281
     1
  3
ACAD_GROUP
350
D
  3
ACAD_LAYOUT
350
1A
  3
ACAD_MLINESTYLE
350
17
  3
ACAD_PLOTSETTINGS
350
19
  3
ACAD_PLOTSTYLENAME
350
E
  3
ACAD_SCALELIST
350
47
  0
DICTIONARY
  5
D
102
{ACAD_REACTORS
330
C
102
}
330
C
100
AcDbDictionary
281
     1
  0
DICTIONARY
  5
1A
102
{ACAD_REACTORS
330
C
102
}
330
C
100
AcDbDictionary
281
     1
  3
Layout1
350
1E
  3
Layout2
350
26
  3
Model
350
22
  0
DICTIONARY
  5
17
102
{ACAD_REACTORS
330
C
102
}
330
C
100
AcDbDictionary
281
     1
  3
Standard
350
18
  0
DICTIONARY
  5
19
102
{ACAD_REACTORS
330
C
102
}
330
C
100
AcDbDictionary
281
     1
  0
ACDBDICTIONARYWDFLT
  5
E
102
{ACAD_REACTORS
330
C
102
}
330
C
100
AcDbDictionary
281
     1
  3
Normal
350
F
100
AcDbDictionaryWithDefault
340
F
  0
DICTIONARY
  5
47
102
{ACAD_REACTORS
330
C
102
}
330
C
100
AcDbDictionary
281
     1
  3
A0
350
48
  3
A1
350
49
  3
A2
350
4A
  3
A3
350
4B
  3
A4
350
4C
  3
A5
350
4D
  3
A6
350
4E
  3
A7
350
4F
  3
A8
350
50
  3
A9
350
51
  3
B0
350
52
  3
B1
350
53
  3
B2
350
54
  3
B3
350
55
  3
B4
350
56
  3
B5
350
57
  3
B6
350
58
  3
B7
350
59
  3
B8
350
5A
  3
B9
350
5B
  3
C0
350
5C
  3
C1
350
5D
  3
C2
350
5E
  3
C3
350
5F
  3
C4
350
60
  3
C5
350
61
  3
C6
350
62
  3
C7
350
63
  3
C8
350
64
  3
C9
350
65
  3
D0
350
66
  3
D1
350
67
  3
D2
350
68
  0
LAYOUT
  5
1E
102
{ACAD_REACTORS
330
1A
102
}
330
1A
100
AcDbPlotSettings
  1

  2
none_device
  4

  6

 40
0.0
 41
0.0
 42
0.0
 43
0.0
 44
0.0
 45
0.0
 46
0.0
 47
0.0
 48
0.0
 49
0.0
140
0.0
141
0.0
142
1.0
143
1.0
 70
   688
 72
     1
 73
     0
 74
     5
  7

 75
    16
147
1.0
148
0.0
149
0.0
100
AcDbLayout
  1
Layout1
 70
     1
 71
     1
 10
0.0
 20
0.0
 11
420.0
 21
297.0
 12
0.0
 22
0.0
 32
0.0
 14
1.0000000000E+20
 24
1.0000000000E+20
 34
1.0000000000E+20
 15
-1.0000000000E+20
 25
-1.0000000000E+20
 35
-1.0000000000E+20
146
0.0
 13
0.0
 23
0.0
 33
0.0
 16
1.0
 26
0.0
 36
0.0
 17
0.0
 27
1.0
 37
0.0
 76
     0
330
1B
  0
LAYOUT
  5
26
102
{ACAD_REACTORS
330
1A
102
}
330
1A
100
AcDbPlotSettings
  1

  2
none_device
  4

  6

 40
0.0
 41
0.0
 42
0.0
 43
0.0
 44
0.0
 45
0.0
 46
0.0
 47
0.0
 48
0.0
 49
0.0
140
0.0
141
0.0
142
1.0
143
1.0
 70
   688
 72
     1
 73
     0
 74
     5
  7

 75
    16
147
1.0
148
0.0
149
0.0
100
AcDbLayout
  1
Layout2
 70
     1
 71
     2
 10
0.0
 20
0.0
 11
0.0
 21
0.0
 12
0.0
 22
0.0
 32
0.0
 14
0.0
 24
0.0
 34
0.0
 15
0.0
 25
0.0
 35
0.0
146
0.0
 13
0.0
 23
0.0
 33
0.0
 16
1.0
 26
0.0
 36
0.0
 17
0.0
 27
1.0
 37
0.0
 76
     0
330
23
  0
LAYOUT
  5
22
102
{ACAD_REACTORS
330
1A
102
}
330
1A
100
AcDbPlotSettings
  1

  2
none_device
  4
Letter_(8.50_x_11.00_Inches)
  6

 40
6.35
 41
6.35
 42
6.35000508
 43
6.35000508
 44
215.9
 45
279.4
 46
0.0
 47
0.0
 48
0.0
 49
0.0
140
0.0
141
0.0
142
1.0
143
1.0
 70
  1712
 72
     1
 73
     0
 74
     0
  7

 75
     0
147
1.0
148
0.0
149
0.0
100
AcDbLayout
  1
Model
 70
     1
 71
     0
 10
0.0
 20
0.0
 11
1189.0
 21
841.0
 12
0.0
 22
0.0
 32
0.0
 14
0.0
 24
0.0
 34
0.0
 15
1189.0
 25
841.0
 35
0.0
146
0.0
 13
0.0
 23
0.0
 33
0.0
 16
1.0
 26
0.0
 36
0.0
 17
0.0
 27
1.0
 37
0.0
 76
     0
330
1F
331
29
  0
MLINESTYLE
  5
18
102
{ACAD_REACTORS
330
17
102
}
330
17
100
AcDbMlineStyle
  2
Standard
 70
     0
  3

 62
   256
 51
90.0
 52
90.0
 71
     2
 49
0.5
 62
   256
  6
BYLAYER
 49
-0.5
 62
   256
  6
BYLAYER
  0
ACDBPLACEHOLDER
  5
F
102
{ACAD_REACTORS
330
E
102
}
330
E
  0
SCALE
  5
48
102
{ACAD_REACTORS
330
47
102
}
330
47
100
AcDbScale
 70
     0
300
1:1
140
1.0
141
1.0
290
     1
  0
SCALE
  5
49
102
{ACAD_REACTORS
330
47
102
}
330
47
100
AcDbScale
 70
     0
300
1:2
140
1.0
141
2.0
290
     0
  0
SCALE
  5
4A
102
{ACAD_REACTORS
330
47
102
}
330
47
100
AcDbScale
 70
     0
300
1:4
140
1.0
141
4.0
290
     0
  0
SCALE
  5
4B
102
{ACAD_REACTORS
330
47
102
}
330
47
100
AcDbScale
 70
     0
300
1:5
140
1.0
141
5.0
290
     0
  0
SCALE
  5
4C
102
{ACAD_REACTORS
330
47
102
}
330
47
100
AcDbScale
 70
     0
300
1:8
140
1.0
141
8.0
290
     0
  0
SCALE
  5
4D
102
{ACAD_REACTORS
330
47
102
}
330
47
100
AcDbScale
 70
     0
300
1:10
140
1.0
141
10.0
290
     0
  0
SCALE
  5
4E
102
{ACAD_REACTORS
330
47
102
}
330
47
100
AcDbScale
 70
     0
300
1:16
140
1.0
141
16.0
290
     0
  0
SCALE
  5
4F
102
{ACAD_REACTORS
330
47
102
}
330
47
100
AcDbScale
 70
     0
300
1:20
140
1.0
141
20.0
290
     0
  0
SCALE
  5
50
102
{ACAD_REACTORS
330
47
102
}
330
47
100
AcDbScale
 70
     0
300
1:30
140
1.0
141
30.0
290
     0
  0
SCALE
  5
51
102
{ACAD_REACTORS
330
47
102
}
330
47
100
AcDbScale
 70
     0
300
1:40
140
1.0
141
40.0
290
     0
  0
SCALE
  5
52
102
{ACAD_REACTORS
330
47
102
}
330
47
100
AcDbScale
 70
     0
300
1:50
140
1.0
141
50.0
290
     0
  0
SCALE
  5
53
102
{ACAD_REACTORS
330
47
102
}
330
47
100
AcDbScale
 70
     0
300
1:100
140
1.0
141
100.0
290
     0
  0
SCALE
  5
54
102
{ACAD_REACTORS
330
47
102
}
330
47
100
AcDbScale
 70
     0
300
2:1
140
2.0
141
1.0
290
     0
  0
SCALE
  5
55
102
{ACAD_REACTORS
330
47
102
}
330
47
100
AcDbScale
 70
     0
300
4:1
140
4.0
141
1.0
290
     0
  0
SCALE
  5
56
102
{ACAD_REACTORS
330
47
102
}
330
47
100
AcDbScale
 70
     0
300
8:1
140
8.0
141
1.0
290
     0
  0
SCALE
  5
57
102
{ACAD_REACTORS
330
47
102
}
330
47
100
AcDbScale
 70
     0
300
10:1
140
10.0
141
1.0
290
     0
  0
SCALE
  5
58
102
{ACAD_REACTORS
330
47
102
}
330
47
100
AcDbScale
 70
     0
300
100:1
140
100.0
141
1.0
290
     0
  0
SCALE
  5
59
102
{ACAD_REACTORS
330
47
102
}
330
47
100
AcDbScale
 70
     0
300
1/128" = 1'-0"
140
0.0078125
141
12.0
290
     0
  0
SCALE
  5
5A
102
{ACAD_REACTORS
330
47
102
}
330
47
100
AcDbScale
 70
     0
300
1/64" = 1'-0"
140
0.015625
141
12.0
290
     0
  0
SCALE
  5
5B
102
{ACAD_REACTORS
330
47
102
}
330
47
100
AcDbScale
 70
     0
300
1/32" = 1'-0"
140
0.03125
141
12.0
290
     0
  0
SCALE
  5
5C
102
{ACAD_REACTORS
330
47
102
}
330
47
100
AcDbScale
 70
     0
300
1/16" = 1'-0"
140
0.0625
141
12.0
290
     0
  0
SCALE
  5
5D
102
{ACAD_REACTORS
330
47
102
}
330
47
100
AcDbScale
 70
     0
300
3/32" = 1'-0"
140
0.09375
141
12.0
290
     0
  0
SCALE
  5
5E
102
{ACAD_REACTORS
330
47
102
}
330
47
100
AcDbScale
 70
     0
300
1/8" = 1'-0"
140
0.125
141
12.0
290
     0
  0
SCALE
  5
5F
102
{ACAD_REACTORS
330
47
102
}
330
47
100
AcDbScale
 70
     0
300
3/16" = 1'-0"
140
0.1875
141
12.0
290
     0
  0
SCALE
  5
60
102
{ACAD_REACTORS
330
47
102
}
330
47
100
AcDbScale
 70
     0
300
1/4" = 1'-0"
140
0.25
141
12.0
290
     0
  0
SCALE
  5
61
102
{ACAD_REACTORS
330
47
102
}
330
47
100
AcDbScale
 70
     0
300
3/8" = 1'-0"
140
0.375
141
12.0
290
     0
  0
SCALE
  5
62
102
{ACAD_REACTORS
330
47
102
}
330
47
100
AcDbScale
 70
     0
300
1/2" = 1'-0"
140
0.5
141
12.0
290
     0
  0
SCALE
  5
63
102
{ACAD_REACTORS
330
47
102
}
330
47
100
AcDbScale
 70
     0
300
3/4" = 1'-0"
140
0.75
141
12.0
290
     0
  0
SCALE
  5
64
102
{ACAD_REACTORS
330
47
102
}
330
47
100
AcDbScale
 70
     0
300
1" = 1'-0"
140
1.0
141
12.0
290
     0
  0
SCALE
  5
65
102
{ACAD_REACTORS
330
47
102
}
330
47
100
AcDbScale
 70
     0
300
1-1/2" = 1'-0"
140
1.5
141
12.0
290
     0
  0
SCALE
  5
66
102
{ACAD_REACTORS
330
47
102
}
330
47
100
AcDbScale
 70
     0
300
3" = 1'-0"
140
3.0
141
12.0
290
     0
  0
SCALE
  5
67
102
{ACAD_REACTORS
330
47
102
}
330
47
100
AcDbScale
 70
     0
300
6" = 1'-0"
140
6.0
141
12.0
290
     0
  0
SCALE
  5
68
102
{ACAD_REACTORS
330
47
102
}
330
47
100
AcDbScale
 70
     0
300
1'-0" = 1'-0"
140
12.0
141
12.0
290
     0
  0
ENDSEC
  0
EOF
